<?xml version="1.0" standalone="no"?><!DOCTYPE svg PUBLIC "-//W3C//DTD SVG 1.1//EN" "http://www.w3.org/Graphics/SVG/1.1/DTD/svg11.dtd"><svg t="1659285182192" class="icon" viewBox="0 0 1024 1024" version="1.1" xmlns="http://www.w3.org/2000/svg" p-id="5385" xmlns:xlink="http://www.w3.org/1999/xlink" width="200" height="200"><defs><style type="text/css">@font-face { font-family: feedback-iconfont; src: url("//at.alicdn.com/t/font_1031158_u69w8yhxdu.woff2?t=1630033759944") format("woff2"), url("//at.alicdn.com/t/font_1031158_u69w8yhxdu.woff?t=1630033759944") format("woff"), url("//at.alicdn.com/t/font_1031158_u69w8yhxdu.ttf?t=1630033759944") format("truetype"); }
</style></defs><path d="M146.285714 633.903558h48.760701v48.7607H146.285714zM146.285714 731.428571h48.760701v48.760701H146.285714zM195.046415 780.189272h48.764313v48.760701H195.046415zM341.332129 780.189272h48.764313v48.760701H341.332129zM292.571429 731.428571h48.7607v48.760701H292.571429zM341.332129 731.428571h48.764313v48.760701H341.332129zM585.142857 780.189272h48.760701v48.760701H585.142857zM585.142857 682.664258h48.760701v48.764313H585.142857zM633.903558 731.428571h48.7607v48.760701h-48.7607zM731.428571 731.428571h48.760701v48.760701h-48.760701zM780.189272 633.903558h48.760701v48.7607h-48.760701zM731.428571 585.142857h48.760701v48.760701h-48.760701zM731.428571 633.903558h48.760701v48.7607h-48.760701zM585.142857 536.378544h48.760701v48.764313H585.142857zM682.664258 487.617843h48.764313v48.760701h-48.764313zM682.664258 536.378544h48.764313v48.764313h-48.764313zM585.142857 390.096442h48.760701v48.760701H585.142857zM682.664258 292.571429h48.764313v48.7607h-48.764313z" fill="#F2D23E" p-id="5386"></path><path d="M633.903558 292.571429h48.7607v48.7607h-48.7607z" fill="#D4851F" p-id="5387"></path><path d="M292.571429 292.571429h48.7607v48.7607H292.571429zM341.332129 195.046415h48.764313v48.764313H341.332129z" fill="#F2D23E" p-id="5388"></path><path d="M438.857143 536.378544h48.7607v48.764313h-48.7607z" fill="#D4851F" p-id="5389"></path><path d="M390.096442 633.903558h48.760701v48.7607h-48.760701zM438.857143 633.903558h48.7607v48.7607h-48.7607z" fill="#F2D23E" p-id="5390"></path><path d="M341.332129 633.903558h48.764313v48.7607H341.332129z" fill="#D4851F" p-id="5391"></path><path d="M536.378544 633.903558h48.764313v48.7607h-48.764313z" fill="#F2D23E" p-id="5392"></path><path d="M487.617843 585.142857h48.760701v48.760701h-48.760701z" fill="#D4851F" p-id="5393"></path><path d="M487.617843 633.903558h48.760701v48.7607h-48.760701zM731.428571 780.189272h48.760701v48.760701h-48.760701zM682.664258 780.189272h48.764313v48.760701h-48.764313zM633.903558 780.189272h48.7607v48.760701h-48.7607zM536.378544 731.428571h48.764313v48.760701h-48.764313zM585.142857 731.428571h48.760701v48.760701H585.142857zM390.096442 731.428571h48.760701v48.760701h-48.760701zM487.617843 731.428571h48.760701v48.760701h-48.760701zM438.857143 731.428571h48.7607v48.760701h-48.7607zM195.046415 585.142857h48.764313v48.760701H195.046415zM146.285714 682.664258h48.760701v48.764313H146.285714z" fill="#F2D23E" p-id="5394"></path><path d="M195.046415 731.428571h48.764313v48.760701H195.046415z" fill="#D4851F" p-id="5395"></path><path d="M292.571429 780.189272h48.7607v48.760701H292.571429zM243.810728 780.189272H292.571429v48.760701H243.810728z" fill="#F2D23E" p-id="5396"></path><path d="M195.046415 682.664258h48.764313v48.764313H195.046415z" fill="#D4851F" p-id="5397"></path><path d="M195.046415 633.903558h48.764313v48.7607H195.046415zM536.378544 682.664258h48.764313v48.764313h-48.764313z" fill="#F2D23E" p-id="5398"></path><path d="M487.617843 682.664258h48.760701v48.764313h-48.760701zM390.096442 682.664258h48.760701v48.764313h-48.760701z" fill="#D4851F" p-id="5399"></path><path d="M438.857143 682.664258h48.7607v48.764313h-48.7607z" fill="#F2D23E" p-id="5400"></path><path d="M341.332129 682.664258h48.764313v48.764313H341.332129z" fill="#D4851F" p-id="5401"></path><path d="M780.189272 731.428571h48.760701v48.760701h-48.760701zM780.189272 682.664258h48.760701v48.764313h-48.760701zM682.664258 585.142857h48.764313v48.760701h-48.764313zM682.664258 633.903558h48.764313v48.7607h-48.764313z" fill="#F2D23E" p-id="5402"></path><path d="M731.428571 682.664258h48.760701v48.764313h-48.760701z" fill="#D4851F" p-id="5403"></path><path d="M633.903558 536.378544h48.7607v48.764313h-48.7607z" fill="#F2D23E" p-id="5404"></path><path d="M633.903558 585.142857h48.7607v48.760701h-48.7607z" fill="#D4851F" p-id="5405"></path><path d="M682.664258 341.332129h48.764313v48.764313h-48.764313zM633.903558 243.810728h48.7607V292.571429h-48.7607zM633.903558 195.046415h48.7607v48.764313h-48.7607zM585.142857 195.046415h48.760701v48.764313H585.142857zM536.378544 195.046415h48.764313v48.764313h-48.764313zM487.617843 195.046415h48.760701v48.764313h-48.760701zM438.857143 195.046415h48.7607v48.764313h-48.7607zM390.096442 195.046415h48.760701v48.764313h-48.760701z" fill="#F2D23E" p-id="5406"></path><path d="M585.142857 243.810728h48.760701V292.571429H585.142857zM536.378544 243.810728h48.764313V292.571429h-48.764313zM487.617843 243.810728h48.760701V292.571429h-48.760701z" fill="#D4851F" p-id="5407"></path><path d="M438.857143 243.810728h48.7607V292.571429h-48.7607zM390.096442 243.810728h48.760701V292.571429h-48.760701zM390.096442 438.857143h48.760701v48.7607h-48.760701zM292.571429 390.096442h48.7607v48.760701H292.571429zM292.571429 682.664258h48.7607v48.764313H292.571429zM243.810728 682.664258H292.571429v48.764313H243.810728zM243.810728 536.378544H292.571429v48.764313H243.810728z" fill="#F2D23E" p-id="5408"></path><path d="M243.810728 731.428571H292.571429v48.760701H243.810728z" fill="#D4851F" p-id="5409"></path><path d="M341.332129 585.142857h48.764313v48.760701H341.332129zM292.571429 341.332129h48.7607v48.764313H292.571429z" fill="#F2D23E" p-id="5410"></path><path d="M292.571429 438.857143h48.7607v48.7607H292.571429z" fill="#D4851F" p-id="5411"></path><path d="M341.332129 536.378544h48.764313v48.764313H341.332129z" fill="#F2D23E" p-id="5412"></path><path d="M292.571429 585.142857h48.7607v48.760701H292.571429z" fill="#D4851F" p-id="5413"></path><path d="M292.571429 536.378544h48.7607v48.764313H292.571429z" fill="#FFFFFF" p-id="5414"></path><path d="M243.810728 585.142857H292.571429v48.760701H243.810728zM243.810728 633.903558H292.571429v48.7607H243.810728z" fill="#F2D23E" p-id="5415"></path><path d="M292.571429 633.903558h48.7607v48.7607H292.571429z" fill="#D4851F" p-id="5416"></path><path d="M438.857143 585.142857h48.7607v48.760701h-48.7607zM390.096442 585.142857h48.760701v48.760701h-48.760701z" fill="#F2D23E" p-id="5417"></path><path d="M390.096442 536.378544h48.760701v48.764313h-48.760701z" fill="#D4851F" p-id="5418"></path><path d="M341.332129 390.096442h48.764313v48.760701H341.332129zM341.332129 341.332129h48.764313v48.764313H341.332129zM341.332129 438.857143h48.764313v48.7607H341.332129z" fill="#F2D23E" p-id="5419"></path><path d="M682.664258 682.664258h48.764313v48.764313h-48.764313z" fill="#D4851F" p-id="5420"></path><path d="M682.664258 731.428571h48.764313v48.760701h-48.764313z" fill="#FFFFFF" p-id="5421"></path><path d="M536.378544 585.142857h48.764313v48.760701h-48.764313z" fill="#D4851F" p-id="5422"></path><path d="M585.142857 585.142857h48.760701v48.760701H585.142857zM585.142857 633.903558h48.760701v48.7607H585.142857zM633.903558 633.903558h48.7607v48.7607h-48.7607zM536.378544 536.378544h48.764313v48.764313h-48.764313z" fill="#F2D23E" p-id="5423"></path><path d="M633.903558 682.664258h48.7607v48.764313h-48.7607z" fill="#D4851F" p-id="5424"></path><path d="M438.857143 438.857143h48.7607v48.7607h-48.7607zM390.096442 390.096442h48.760701v48.760701h-48.760701zM487.617843 438.857143h48.760701v48.7607h-48.760701z" fill="#F2D23E" p-id="5425"></path><path d="M487.617843 536.378544h48.760701v48.764313h-48.760701z" fill="#D4851F" p-id="5426"></path><path d="M292.571429 243.810728h48.7607V292.571429H292.571429z" fill="#F2D23E" p-id="5427"></path><path d="M341.332129 243.810728h48.764313V292.571429H341.332129z" fill="#FFFFFF" p-id="5428"></path><path d="M292.571429 195.046415h48.7607v48.764313H292.571429zM390.096442 341.332129h48.760701v48.764313h-48.760701zM682.664258 438.857143h48.764313v48.7607h-48.764313zM682.664258 390.096442h48.764313v48.760701h-48.764313zM585.142857 487.617843h48.760701v48.760701H585.142857z" fill="#F2D23E" p-id="5429"></path><path d="M633.903558 341.332129h48.7607v48.764313h-48.7607z" fill="#D4851F" p-id="5430"></path><path d="M536.378544 438.857143h48.764313v48.7607h-48.764313zM633.903558 438.857143h48.7607v48.7607h-48.7607z" fill="#F2D23E" p-id="5431"></path><path d="M633.903558 390.096442h48.7607v48.760701h-48.7607z" fill="#D4851F" p-id="5432"></path><path d="M585.142857 438.857143h48.760701v48.7607H585.142857zM633.903558 487.617843h48.7607v48.760701h-48.7607zM536.378544 487.617843h48.764313v48.760701h-48.764313zM585.142857 341.332129h48.760701v48.764313H585.142857z" fill="#F2D23E" p-id="5433"></path><path d="M585.142857 292.571429h48.760701v48.7607H585.142857z" fill="#D4851F" p-id="5434"></path><path d="M536.378544 292.571429h48.764313v48.7607h-48.764313zM438.857143 341.332129h48.7607v48.764313h-48.7607zM487.617843 292.571429h48.760701v48.7607h-48.760701zM438.857143 487.617843h48.7607v48.760701h-48.7607zM536.378544 390.096442h48.764313v48.760701h-48.764313zM487.617843 487.617843h48.760701v48.760701h-48.760701zM487.617843 390.096442h48.760701v48.760701h-48.760701zM487.617843 341.332129h48.760701v48.764313h-48.760701z" fill="#F2D23E" p-id="5435"></path><path d="M390.096442 487.617843h48.760701v48.760701h-48.760701z" fill="#D4851F" p-id="5436"></path><path d="M438.857143 292.571429h48.7607v48.7607h-48.7607zM438.857143 390.096442h48.7607v48.760701h-48.7607zM536.378544 341.332129h48.764313v48.764313h-48.764313zM390.096442 292.571429h48.760701v48.7607h-48.760701zM341.332129 292.571429h48.764313v48.7607H341.332129zM292.571429 487.617843h48.7607v48.760701H292.571429zM243.810728 390.096442H292.571429v48.760701H243.810728z" fill="#F2D23E" p-id="5437"></path><path d="M243.810728 487.617843H292.571429v48.760701H243.810728z" fill="#FFFFFF" p-id="5438"></path><path d="M243.810728 438.857143H292.571429v48.7607H243.810728zM243.810728 341.332129H292.571429v48.764313H243.810728z" fill="#F2D23E" p-id="5439"></path><path d="M341.332129 487.617843h48.764313v48.760701H341.332129z" fill="#D4851F" p-id="5440"></path><path d="M243.810728 292.571429H292.571429v48.7607H243.810728z" fill="#F2D23E" p-id="5441"></path><path d="M438.857143 877.714286h48.7607v48.7607h-48.7607zM487.617843 877.714286h48.760701v48.7607h-48.760701zM536.378544 828.949973h48.764313v48.764313h-48.764313zM438.857143 828.949973h48.7607v48.764313h-48.7607zM390.096442 828.949973h48.760701v48.764313h-48.760701zM487.617843 828.949973h48.760701v48.764313h-48.760701z" fill="#D4851F" p-id="5442"></path><path d="M536.378544 780.189272h48.764313v48.760701h-48.764313zM487.617843 780.189272h48.760701v48.760701h-48.760701zM390.096442 780.189272h48.760701v48.760701h-48.760701zM438.857143 780.189272h48.7607v48.760701h-48.7607zM536.378544 877.714286h48.764313v48.7607h-48.764313zM828.949973 780.189272h48.764313v48.760701h-48.764313zM828.949973 731.428571h48.764313v48.760701h-48.764313zM828.949973 682.664258h48.764313v48.764313h-48.764313zM828.949973 633.903558h48.764313v48.7607h-48.764313zM780.189272 780.189272h48.760701v48.760701h-48.760701zM780.189272 585.142857h48.760701v48.760701h-48.760701zM731.428571 828.949973h48.760701v48.764313h-48.760701zM731.428571 536.378544h48.760701v48.764313h-48.760701zM731.428571 487.617843h48.760701v48.760701h-48.760701zM731.428571 438.857143h48.760701v48.7607h-48.760701zM731.428571 390.096442h48.760701v48.760701h-48.760701zM731.428571 341.332129h48.760701v48.764313h-48.760701zM731.428571 292.571429h48.760701v48.7607h-48.760701zM731.428571 243.810728h48.760701V292.571429h-48.760701zM682.664258 828.949973h48.764313v48.764313h-48.764313zM682.664258 243.810728h48.764313V292.571429h-48.764313zM682.664258 195.046415h48.764313v48.764313h-48.764313zM633.903558 828.949973h48.7607v48.764313h-48.7607zM633.903558 146.285714h48.7607v48.760701h-48.7607zM585.142857 828.949973h48.760701v48.764313H585.142857zM585.142857 146.285714h48.760701v48.760701H585.142857zM536.378544 146.285714h48.764313v48.760701h-48.764313z" p-id="5443"></path><path d="M536.378544 97.525014h48.764313v48.7607h-48.764313zM487.617843 926.474986h48.760701v48.760701h-48.760701zM487.617843 146.285714h48.760701v48.760701h-48.760701z" p-id="5444"></path><path d="M487.617843 97.525014h48.760701v48.7607h-48.760701z" fill="#EAB45F" p-id="5445"></path><path d="M487.617843 48.760701h48.760701v48.764313h-48.760701zM438.857143 926.474986h48.7607v48.760701h-48.7607zM438.857143 146.285714h48.7607v48.760701h-48.7607z" p-id="5446"></path><path d="M438.857143 97.525014h48.7607v48.7607h-48.7607z" fill="#EAB45F" p-id="5447"></path><path d="M438.857143 48.760701h48.7607v48.764313h-48.7607zM390.096442 877.714286h48.760701v48.7607h-48.760701zM390.096442 146.285714h48.760701v48.760701h-48.760701z" p-id="5448"></path><path d="M390.096442 97.525014h48.760701v48.7607h-48.760701zM341.332129 828.949973h48.764313v48.764313H341.332129zM341.332129 146.285714h48.764313v48.760701H341.332129zM292.571429 828.949973h48.7607v48.764313H292.571429zM292.571429 146.285714h48.7607v48.760701H292.571429zM243.810728 828.949973H292.571429v48.764313H243.810728zM243.810728 243.810728H292.571429V292.571429H243.810728zM243.810728 195.046415H292.571429v48.764313H243.810728zM195.046415 828.949973h48.764313v48.764313H195.046415zM195.046415 536.378544h48.764313v48.764313H195.046415zM195.046415 487.617843h48.764313v48.760701H195.046415zM195.046415 438.857143h48.764313v48.7607H195.046415zM195.046415 390.096442h48.764313v48.760701H195.046415zM195.046415 341.332129h48.764313v48.764313H195.046415zM195.046415 292.571429h48.764313v48.7607H195.046415zM195.046415 243.810728h48.764313V292.571429H195.046415zM146.285714 780.189272h48.760701v48.760701H146.285714zM146.285714 585.142857h48.760701v48.760701H146.285714zM97.525014 731.428571h48.7607v48.760701H97.525014zM97.525014 682.664258h48.7607v48.764313H97.525014zM97.525014 633.903558h48.7607v48.7607H97.525014z" p-id="5449"></path></svg>