<?xml version="1.0" standalone="no"?><!DOCTYPE svg PUBLIC "-//W3C//DTD SVG 1.1//EN" "http://www.w3.org/Graphics/SVG/1.1/DTD/svg11.dtd"><svg t="1659285132210" class="icon" viewBox="0 0 1024 1024" version="1.1" xmlns="http://www.w3.org/2000/svg" p-id="4603" xmlns:xlink="http://www.w3.org/1999/xlink" width="200" height="200"><defs><style type="text/css">@font-face { font-family: feedback-iconfont; src: url("//at.alicdn.com/t/font_1031158_u69w8yhxdu.woff2?t=1630033759944") format("woff2"), url("//at.alicdn.com/t/font_1031158_u69w8yhxdu.woff?t=1630033759944") format("woff"), url("//at.alicdn.com/t/font_1031158_u69w8yhxdu.ttf?t=1630033759944") format("truetype"); }
</style></defs><path d="M975.235687 536.378544h48.764313v48.764313h-48.764313zM975.235687 487.617843h48.764313v48.760701h-48.764313zM926.474986 585.142857h48.760701v48.760701h-48.760701z" p-id="4604"></path><path d="M926.474986 536.378544h48.760701v48.764313h-48.760701zM926.474986 487.617843h48.760701v48.760701h-48.760701z" fill="#FE892D" p-id="4605"></path><path d="M926.474986 438.857143h48.760701v48.7607h-48.760701zM926.474986 390.096442h48.760701v48.760701h-48.760701zM926.474986 341.332129h48.760701v48.764313h-48.760701zM926.474986 292.571429h48.760701v48.7607h-48.760701zM926.474986 243.810728h48.760701V292.571429h-48.760701zM926.474986 195.046415h48.760701v48.764313h-48.760701zM926.474986 146.285714h48.760701v48.760701h-48.760701zM877.714286 780.189272h48.7607v48.760701H877.714286zM877.714286 731.428571h48.7607v48.760701H877.714286zM877.714286 682.664258h48.7607v48.764313H877.714286zM877.714286 633.903558h48.7607v48.7607H877.714286zM877.714286 585.142857h48.7607v48.760701H877.714286z" p-id="4606"></path><path d="M877.714286 536.378544h48.7607v48.764313H877.714286z" fill="#FE892D" p-id="4607"></path><path d="M877.714286 487.617843h48.7607v48.760701H877.714286z" fill="#DD0030" p-id="4608"></path><path d="M877.714286 438.857143h48.7607v48.7607H877.714286zM877.714286 390.096442h48.7607v48.760701H877.714286zM877.714286 341.332129h48.7607v48.764313H877.714286zM877.714286 292.571429h48.7607v48.7607H877.714286z" fill="#FE892D" p-id="4609"></path><path d="M877.714286 243.810728h48.7607V292.571429H877.714286z" fill="#FFFFFF" p-id="4610"></path><path d="M877.714286 195.046415h48.7607v48.764313H877.714286zM877.714286 146.285714h48.7607v48.760701H877.714286z" fill="#FE892D" p-id="4611"></path><path d="M877.714286 97.525014h48.7607v48.7607H877.714286zM828.949973 828.949973h48.764313v48.764313h-48.764313zM828.949973 780.189272h48.764313v48.760701h-48.764313z" p-id="4612"></path><path d="M828.949973 731.428571h48.764313v48.760701h-48.764313zM828.949973 682.664258h48.764313v48.764313h-48.764313zM828.949973 633.903558h48.764313v48.7607h-48.764313zM828.949973 585.142857h48.764313v48.760701h-48.764313z" fill="#7A3B0F" p-id="4613"></path><path d="M828.949973 536.378544h48.764313v48.764313h-48.764313zM828.949973 487.617843h48.764313v48.760701h-48.764313zM828.949973 438.857143h48.764313v48.7607h-48.764313z" fill="#FE892D" p-id="4614"></path><path d="M828.949973 390.096442h48.764313v48.760701h-48.764313z" fill="#FFFFFF" p-id="4615"></path><path d="M828.949973 341.332129h48.764313v48.764313h-48.764313zM828.949973 292.571429h48.764313v48.7607h-48.764313zM828.949973 243.810728h48.764313V292.571429h-48.764313zM828.949973 195.046415h48.764313v48.764313h-48.764313z" fill="#7A3B0F" p-id="4616"></path><path d="M828.949973 146.285714h48.764313v48.760701h-48.764313z" fill="#FE892D" p-id="4617"></path><path d="M828.949973 97.525014h48.764313v48.7607h-48.764313zM780.189272 877.714286h48.760701v48.7607h-48.760701z" p-id="4618"></path><path d="M780.189272 828.949973h48.760701v48.764313h-48.760701zM780.189272 780.189272h48.760701v48.760701h-48.760701zM780.189272 731.428571h48.760701v48.760701h-48.760701z" fill="#7A3B0F" p-id="4619"></path><path d="M780.189272 682.664258h48.760701v48.764313h-48.760701z" fill="#311809" p-id="4620"></path><path d="M780.189272 633.903558h48.760701v48.7607h-48.760701z" fill="#FFFFFF" p-id="4621"></path><path d="M780.189272 585.142857h48.760701v48.760701h-48.760701z" fill="#311809" p-id="4622"></path><path d="M780.189272 536.378544h48.760701v48.764313h-48.760701z" fill="#FC9956" p-id="4623"></path><path d="M780.189272 487.617843h48.760701v48.760701h-48.760701z" fill="#FE892D" p-id="4624"></path><path d="M780.189272 438.857143h48.760701v48.7607h-48.760701zM780.189272 390.096442h48.760701v48.760701h-48.760701z" fill="#7A3B0F" p-id="4625"></path><path d="M780.189272 341.332129h48.760701v48.764313h-48.760701z" fill="#FE892D" p-id="4626"></path><path d="M780.189272 292.571429h48.760701v48.7607h-48.760701z" fill="#FFFFFF" p-id="4627"></path><path d="M780.189272 243.810728h48.760701V292.571429h-48.760701zM780.189272 195.046415h48.760701v48.764313h-48.760701z" fill="#7A3B0F" p-id="4628"></path><path d="M780.189272 146.285714h48.760701v48.760701h-48.760701z" fill="#FE892D" p-id="4629"></path><path d="M780.189272 97.525014h48.760701v48.7607h-48.760701zM731.428571 877.714286h48.760701v48.7607h-48.760701z" p-id="4630"></path><path d="M731.428571 828.949973h48.760701v48.764313h-48.760701zM731.428571 780.189272h48.760701v48.760701h-48.760701z" fill="#7A3B0F" p-id="4631"></path><path d="M731.428571 731.428571h48.760701v48.760701h-48.760701z" fill="#311809" p-id="4632"></path><path d="M731.428571 682.664258h48.760701v48.764313h-48.760701z" fill="#7A3B0F" p-id="4633"></path><path d="M731.428571 633.903558h48.760701v48.7607h-48.760701zM731.428571 585.142857h48.760701v48.760701h-48.760701z" fill="#311809" p-id="4634"></path><path d="M731.428571 536.378544h48.760701v48.764313h-48.760701z" fill="#FC9956" p-id="4635"></path><path d="M731.428571 487.617843h48.760701v48.760701h-48.760701zM731.428571 438.857143h48.760701v48.7607h-48.760701zM731.428571 390.096442h48.760701v48.760701h-48.760701zM731.428571 341.332129h48.760701v48.764313h-48.760701z" fill="#FE892D" p-id="4636"></path><path d="M731.428571 292.571429h48.760701v48.7607h-48.760701z" fill="#FFFFFF" p-id="4637"></path><path d="M731.428571 243.810728h48.760701V292.571429h-48.760701zM731.428571 195.046415h48.760701v48.764313h-48.760701z" fill="#FE892D" p-id="4638"></path><path d="M731.428571 146.285714h48.760701v48.760701h-48.760701zM682.664258 828.949973h48.764313v48.764313h-48.764313z" p-id="4639"></path><path d="M682.664258 780.189272h48.764313v48.760701h-48.764313zM682.664258 731.428571h48.764313v48.760701h-48.764313z" fill="#7A3B0F" p-id="4640"></path><path d="M682.664258 682.664258h48.764313v48.764313h-48.764313zM682.664258 633.903558h48.764313v48.7607h-48.764313zM682.664258 585.142857h48.764313v48.760701h-48.764313z" fill="#311809" p-id="4641"></path><path d="M682.664258 536.378544h48.764313v48.764313h-48.764313z" fill="#FC9956" p-id="4642"></path><path d="M682.664258 487.617843h48.764313v48.760701h-48.764313z" fill="#FE892D" p-id="4643"></path><path d="M682.664258 438.857143h48.764313v48.7607h-48.764313zM682.664258 390.096442h48.764313v48.760701h-48.764313zM682.664258 341.332129h48.764313v48.764313h-48.764313zM682.664258 292.571429h48.764313v48.7607h-48.764313zM682.664258 243.810728h48.764313V292.571429h-48.764313zM682.664258 195.046415h48.764313v48.764313h-48.764313z" fill="#7A3B0F" p-id="4644"></path><path d="M682.664258 146.285714h48.764313v48.760701h-48.764313zM633.903558 828.949973h48.7607v48.764313h-48.7607z" p-id="4645"></path><path d="M633.903558 780.189272h48.7607v48.760701h-48.7607z" fill="#7A3B0F" p-id="4646"></path><path d="M633.903558 731.428571h48.7607v48.760701h-48.7607z" fill="#311809" p-id="4647"></path><path d="M633.903558 682.664258h48.7607v48.764313h-48.7607z" fill="#7A3B0F" p-id="4648"></path><path d="M633.903558 633.903558h48.7607v48.7607h-48.7607zM633.903558 585.142857h48.7607v48.760701h-48.7607z" fill="#311809" p-id="4649"></path><path d="M633.903558 536.378544h48.7607v48.764313h-48.7607z" fill="#FC9956" p-id="4650"></path><path d="M633.903558 487.617843h48.7607v48.760701h-48.7607z" fill="#FE892D" p-id="4651"></path><path d="M633.903558 438.857143h48.7607v48.7607h-48.7607zM633.903558 390.096442h48.7607v48.760701h-48.7607zM633.903558 341.332129h48.7607v48.764313h-48.7607zM633.903558 292.571429h48.7607v48.7607h-48.7607zM633.903558 243.810728h48.7607V292.571429h-48.7607zM633.903558 195.046415h48.7607v48.764313h-48.7607z" fill="#7A3B0F" p-id="4652"></path><path d="M633.903558 146.285714h48.7607v48.760701h-48.7607zM585.142857 828.949973h48.760701v48.764313H585.142857z" p-id="4653"></path><path d="M585.142857 780.189272h48.760701v48.760701H585.142857zM585.142857 731.428571h48.760701v48.760701H585.142857zM585.142857 682.664258h48.760701v48.764313H585.142857z" fill="#7A3B0F" p-id="4654"></path><path d="M585.142857 633.903558h48.760701v48.7607H585.142857zM585.142857 585.142857h48.760701v48.760701H585.142857zM585.142857 536.378544h48.760701v48.764313H585.142857z" fill="#311809" p-id="4655"></path><path d="M585.142857 487.617843h48.760701v48.760701H585.142857zM585.142857 438.857143h48.760701v48.7607H585.142857zM585.142857 390.096442h48.760701v48.760701H585.142857zM585.142857 341.332129h48.760701v48.764313H585.142857z" fill="#FE892D" p-id="4656"></path><path d="M585.142857 292.571429h48.760701v48.7607H585.142857zM585.142857 243.810728h48.760701V292.571429H585.142857zM585.142857 195.046415h48.760701v48.764313H585.142857z" fill="#7A3B0F" p-id="4657"></path><path d="M585.142857 146.285714h48.760701v48.760701H585.142857zM536.378544 828.949973h48.764313v48.764313h-48.764313z" p-id="4658"></path><path d="M536.378544 780.189272h48.764313v48.760701h-48.764313z" fill="#7A3B0F" p-id="4659"></path><path d="M536.378544 731.428571h48.764313v48.760701h-48.764313zM536.378544 682.664258h48.764313v48.764313h-48.764313zM536.378544 633.903558h48.764313v48.7607h-48.764313zM536.378544 585.142857h48.764313v48.760701h-48.764313z" fill="#311809" p-id="4660"></path><path d="M536.378544 536.378544h48.764313v48.764313h-48.764313zM536.378544 487.617843h48.764313v48.760701h-48.764313z" fill="#FE892D" p-id="4661"></path><path d="M536.378544 438.857143h48.764313v48.7607h-48.764313z" p-id="4662"></path><path d="M536.378544 390.096442h48.764313v48.760701h-48.764313z" fill="#FE892D" p-id="4663"></path><path d="M536.378544 341.332129h48.764313v48.764313h-48.764313z" fill="#FFFFFF" p-id="4664"></path><path d="M536.378544 292.571429h48.764313v48.7607h-48.764313zM536.378544 243.810728h48.764313V292.571429h-48.764313zM536.378544 195.046415h48.764313v48.764313h-48.764313z" fill="#FE892D" p-id="4665"></path><path d="M536.378544 146.285714h48.764313v48.760701h-48.764313zM487.617843 828.949973h48.760701v48.764313h-48.760701z" p-id="4666"></path><path d="M487.617843 780.189272h48.760701v48.760701h-48.760701z" fill="#7A3B0F" p-id="4667"></path><path d="M487.617843 731.428571h48.760701v48.760701h-48.760701zM487.617843 682.664258h48.760701v48.764313h-48.760701zM487.617843 633.903558h48.760701v48.7607h-48.760701zM487.617843 585.142857h48.760701v48.760701h-48.760701z" fill="#311809" p-id="4668"></path><path d="M487.617843 536.378544h48.760701v48.764313h-48.760701z" fill="#FE892D" p-id="4669"></path><path d="M487.617843 487.617843h48.760701v48.760701h-48.760701zM487.617843 438.857143h48.760701v48.7607h-48.760701z" p-id="4670"></path><path d="M487.617843 390.096442h48.760701v48.760701h-48.760701z" fill="#FE892D" p-id="4671"></path><path d="M487.617843 341.332129h48.760701v48.764313h-48.760701z" fill="#DD0030" p-id="4672"></path><path d="M487.617843 292.571429h48.760701v48.7607h-48.760701z" fill="#FE892D" p-id="4673"></path><path d="M487.617843 243.810728h48.760701V292.571429h-48.760701z" fill="#DD0030" p-id="4674"></path><path d="M487.617843 195.046415h48.760701v48.764313h-48.760701z" fill="#FE892D" p-id="4675"></path><path d="M487.617843 146.285714h48.760701v48.760701h-48.760701zM438.857143 828.949973h48.7607v48.764313h-48.7607z" p-id="4676"></path><path d="M438.857143 780.189272h48.7607v48.760701h-48.7607z" fill="#7A3B0F" p-id="4677"></path><path d="M438.857143 731.428571h48.7607v48.760701h-48.7607zM438.857143 682.664258h48.7607v48.764313h-48.7607zM438.857143 633.903558h48.7607v48.7607h-48.7607zM438.857143 585.142857h48.7607v48.760701h-48.7607z" fill="#311809" p-id="4678"></path><path d="M438.857143 536.378544h48.7607v48.764313h-48.7607zM438.857143 487.617843h48.7607v48.760701h-48.7607z" fill="#FE892D" p-id="4679"></path><path d="M438.857143 438.857143h48.7607v48.7607h-48.7607z" p-id="4680"></path><path d="M438.857143 390.096442h48.7607v48.760701h-48.7607zM438.857143 341.332129h48.7607v48.764313h-48.7607z" fill="#FE892D" p-id="4681"></path><path d="M438.857143 292.571429h48.7607v48.7607h-48.7607z" fill="#FFFFFF" p-id="4682"></path><path d="M438.857143 243.810728h48.7607V292.571429h-48.7607zM438.857143 195.046415h48.7607v48.764313h-48.7607z" fill="#FE892D" p-id="4683"></path><path d="M438.857143 146.285714h48.7607v48.760701h-48.7607zM390.096442 828.949973h48.760701v48.764313h-48.760701z" p-id="4684"></path><path d="M390.096442 780.189272h48.760701v48.760701h-48.760701zM390.096442 731.428571h48.760701v48.760701h-48.760701zM390.096442 682.664258h48.760701v48.764313h-48.760701z" fill="#7A3B0F" p-id="4685"></path><path d="M390.096442 633.903558h48.760701v48.7607h-48.760701zM390.096442 585.142857h48.760701v48.760701h-48.760701zM390.096442 536.378544h48.760701v48.764313h-48.760701z" fill="#311809" p-id="4686"></path><path d="M390.096442 487.617843h48.760701v48.760701h-48.760701zM390.096442 438.857143h48.760701v48.7607h-48.760701zM390.096442 390.096442h48.760701v48.760701h-48.760701zM390.096442 341.332129h48.760701v48.764313h-48.760701z" fill="#FE892D" p-id="4687"></path><path d="M390.096442 292.571429h48.760701v48.7607h-48.760701zM390.096442 243.810728h48.760701V292.571429h-48.760701zM390.096442 195.046415h48.760701v48.764313h-48.760701z" fill="#7A3B0F" p-id="4688"></path><path d="M390.096442 146.285714h48.760701v48.760701h-48.760701zM341.332129 828.949973h48.764313v48.764313H341.332129z" p-id="4689"></path><path d="M341.332129 780.189272h48.764313v48.760701H341.332129z" fill="#7A3B0F" p-id="4690"></path><path d="M341.332129 731.428571h48.764313v48.760701H341.332129z" fill="#311809" p-id="4691"></path><path d="M341.332129 682.664258h48.764313v48.764313H341.332129z" fill="#7A3B0F" p-id="4692"></path><path d="M341.332129 633.903558h48.764313v48.7607H341.332129z" fill="#FFFFFF" p-id="4693"></path><path d="M341.332129 585.142857h48.764313v48.760701H341.332129z" fill="#311809" p-id="4694"></path><path d="M341.332129 536.378544h48.764313v48.764313H341.332129z" fill="#FC9956" p-id="4695"></path><path d="M341.332129 487.617843h48.764313v48.760701H341.332129z" fill="#FE892D" p-id="4696"></path><path d="M341.332129 438.857143h48.764313v48.7607H341.332129zM341.332129 390.096442h48.764313v48.760701H341.332129zM341.332129 341.332129h48.764313v48.764313H341.332129zM341.332129 292.571429h48.764313v48.7607H341.332129zM341.332129 243.810728h48.764313V292.571429H341.332129zM341.332129 195.046415h48.764313v48.764313H341.332129z" fill="#7A3B0F" p-id="4697"></path><path d="M341.332129 146.285714h48.764313v48.760701H341.332129zM292.571429 828.949973h48.7607v48.764313H292.571429z" p-id="4698"></path><path d="M292.571429 780.189272h48.7607v48.760701H292.571429zM292.571429 731.428571h48.7607v48.760701H292.571429z" fill="#7A3B0F" p-id="4699"></path><path d="M292.571429 682.664258h48.7607v48.764313H292.571429z" fill="#311809" p-id="4700"></path><path d="M292.571429 633.903558h48.7607v48.7607H292.571429zM292.571429 585.142857h48.7607v48.760701H292.571429z" fill="#FFFFFF" p-id="4701"></path><path d="M292.571429 536.378544h48.7607v48.764313H292.571429z" fill="#FC9956" p-id="4702"></path><path d="M292.571429 487.617843h48.7607v48.760701H292.571429z" fill="#FE892D" p-id="4703"></path><path d="M292.571429 438.857143h48.7607v48.7607H292.571429zM292.571429 390.096442h48.7607v48.760701H292.571429zM292.571429 341.332129h48.7607v48.764313H292.571429zM292.571429 292.571429h48.7607v48.7607H292.571429zM292.571429 243.810728h48.7607V292.571429H292.571429zM292.571429 195.046415h48.7607v48.764313H292.571429z" fill="#7A3B0F" p-id="4704"></path><path d="M292.571429 146.285714h48.7607v48.760701H292.571429zM243.810728 877.714286H292.571429v48.7607H243.810728z" p-id="4705"></path><path d="M243.810728 828.949973H292.571429v48.764313H243.810728zM243.810728 780.189272H292.571429v48.760701H243.810728z" fill="#7A3B0F" p-id="4706"></path><path d="M243.810728 731.428571H292.571429v48.760701H243.810728z" fill="#311809" p-id="4707"></path><path d="M243.810728 682.664258H292.571429v48.764313H243.810728z" fill="#7A3B0F" p-id="4708"></path><path d="M243.810728 633.903558H292.571429v48.7607H243.810728zM243.810728 585.142857H292.571429v48.760701H243.810728z" fill="#311809" p-id="4709"></path><path d="M243.810728 536.378544H292.571429v48.764313H243.810728z" fill="#FC9956" p-id="4710"></path><path d="M243.810728 487.617843H292.571429v48.760701H243.810728zM243.810728 438.857143H292.571429v48.7607H243.810728zM243.810728 390.096442H292.571429v48.760701H243.810728zM243.810728 341.332129H292.571429v48.764313H243.810728z" fill="#FE892D" p-id="4711"></path><path d="M243.810728 292.571429H292.571429v48.7607H243.810728z" fill="#FFFFFF" p-id="4712"></path><path d="M243.810728 243.810728H292.571429V292.571429H243.810728zM243.810728 195.046415H292.571429v48.764313H243.810728z" fill="#FE892D" p-id="4713"></path><path d="M243.810728 146.285714H292.571429v48.760701H243.810728zM195.046415 877.714286h48.764313v48.7607H195.046415z" p-id="4714"></path><path d="M195.046415 828.949973h48.764313v48.764313H195.046415zM195.046415 780.189272h48.764313v48.760701H195.046415zM195.046415 731.428571h48.764313v48.760701H195.046415z" fill="#7A3B0F" p-id="4715"></path><path d="M195.046415 682.664258h48.764313v48.764313H195.046415zM195.046415 633.903558h48.764313v48.7607H195.046415zM195.046415 585.142857h48.764313v48.760701H195.046415z" fill="#311809" p-id="4716"></path><path d="M195.046415 536.378544h48.764313v48.764313H195.046415z" fill="#FC9956" p-id="4717"></path><path d="M195.046415 487.617843h48.764313v48.760701H195.046415z" fill="#FE892D" p-id="4718"></path><path d="M195.046415 438.857143h48.764313v48.7607H195.046415z" fill="#FFFFFF" p-id="4719"></path><path d="M195.046415 390.096442h48.764313v48.760701H195.046415z" fill="#7A3B0F" p-id="4720"></path><path d="M195.046415 341.332129h48.764313v48.764313H195.046415z" fill="#FE892D" p-id="4721"></path><path d="M195.046415 292.571429h48.764313v48.7607H195.046415z" fill="#FFFFFF" p-id="4722"></path><path d="M195.046415 243.810728h48.764313V292.571429H195.046415zM195.046415 195.046415h48.764313v48.764313H195.046415z" fill="#7A3B0F" p-id="4723"></path><path d="M195.046415 146.285714h48.764313v48.760701H195.046415z" fill="#FE892D" p-id="4724"></path><path d="M195.046415 97.525014h48.764313v48.7607H195.046415zM146.285714 828.949973h48.760701v48.764313H146.285714zM146.285714 780.189272h48.760701v48.760701H146.285714z" p-id="4725"></path><path d="M146.285714 731.428571h48.760701v48.760701H146.285714zM146.285714 682.664258h48.760701v48.764313H146.285714zM146.285714 633.903558h48.760701v48.7607H146.285714zM146.285714 585.142857h48.760701v48.760701H146.285714z" fill="#7A3B0F" p-id="4726"></path><path d="M146.285714 536.378544h48.760701v48.764313H146.285714zM146.285714 487.617843h48.760701v48.760701H146.285714zM146.285714 438.857143h48.760701v48.7607H146.285714z" fill="#FE892D" p-id="4727"></path><path d="M146.285714 390.096442h48.760701v48.760701H146.285714zM146.285714 341.332129h48.760701v48.764313H146.285714zM146.285714 292.571429h48.760701v48.7607H146.285714zM146.285714 243.810728h48.760701V292.571429H146.285714zM146.285714 195.046415h48.760701v48.764313H146.285714z" fill="#7A3B0F" p-id="4728"></path><path d="M146.285714 146.285714h48.760701v48.760701H146.285714z" fill="#FE892D" p-id="4729"></path><path d="M146.285714 97.525014h48.760701v48.7607H146.285714zM97.525014 780.189272h48.7607v48.760701H97.525014zM97.525014 731.428571h48.7607v48.760701H97.525014zM97.525014 682.664258h48.7607v48.764313H97.525014zM97.525014 633.903558h48.7607v48.7607H97.525014zM97.525014 585.142857h48.7607v48.760701H97.525014z" p-id="4730"></path><path d="M97.525014 536.378544h48.7607v48.764313H97.525014z" fill="#FE892D" p-id="4731"></path><path d="M97.525014 487.617843h48.7607v48.760701H97.525014z" fill="#DD0030" p-id="4732"></path><path d="M97.525014 438.857143h48.7607v48.7607H97.525014zM97.525014 390.096442h48.7607v48.760701H97.525014zM97.525014 341.332129h48.7607v48.764313H97.525014zM97.525014 292.571429h48.7607v48.7607H97.525014z" fill="#FE892D" p-id="4733"></path><path d="M97.525014 243.810728h48.7607V292.571429H97.525014z" fill="#FFFFFF" p-id="4734"></path><path d="M97.525014 195.046415h48.7607v48.764313H97.525014zM97.525014 146.285714h48.7607v48.760701H97.525014z" fill="#FE892D" p-id="4735"></path><path d="M97.525014 97.525014h48.7607v48.7607H97.525014zM48.760701 585.142857h48.764313v48.760701H48.760701z" p-id="4736"></path><path d="M48.760701 536.378544h48.764313v48.764313H48.760701zM48.760701 487.617843h48.764313v48.760701H48.760701z" fill="#FE892D" p-id="4737"></path><path d="M48.760701 438.857143h48.764313v48.7607H48.760701zM48.760701 390.096442h48.764313v48.760701H48.760701zM48.760701 341.332129h48.764313v48.764313H48.760701zM48.760701 292.571429h48.764313v48.7607H48.760701zM48.760701 243.810728h48.764313V292.571429H48.760701zM48.760701 195.046415h48.764313v48.764313H48.760701zM48.760701 146.285714h48.764313v48.760701H48.760701zM0 536.378544h48.760701v48.764313H0zM0 487.617843h48.760701v48.760701H0z" p-id="4738"></path></svg>