<?xml version="1.0" standalone="no"?><!DOCTYPE svg PUBLIC "-//W3C//DTD SVG 1.1//EN" "http://www.w3.org/Graphics/SVG/1.1/DTD/svg11.dtd"><svg t="1659285198903" class="icon" viewBox="0 0 1024 1024" version="1.1" xmlns="http://www.w3.org/2000/svg" p-id="5613" xmlns:xlink="http://www.w3.org/1999/xlink" width="200" height="200"><defs><style type="text/css">@font-face { font-family: feedback-iconfont; src: url("//at.alicdn.com/t/font_1031158_u69w8yhxdu.woff2?t=1630033759944") format("woff2"), url("//at.alicdn.com/t/font_1031158_u69w8yhxdu.woff?t=1630033759944") format("woff"), url("//at.alicdn.com/t/font_1031158_u69w8yhxdu.ttf?t=1630033759944") format("truetype"); }
</style></defs><path d="M926.474986 975.235687h48.760701v48.764313h-48.760701z" fill="#FFFFFF" p-id="5614"></path><path d="M926.474986 926.474986h48.760701v48.760701h-48.760701zM926.474986 877.714286h48.760701v48.7607h-48.760701zM926.474986 828.949973h48.760701v48.764313h-48.760701zM926.474986 780.189272h48.760701v48.760701h-48.760701zM926.474986 731.428571h48.760701v48.760701h-48.760701zM926.474986 682.664258h48.760701v48.764313h-48.760701zM926.474986 633.903558h48.760701v48.7607h-48.760701zM926.474986 585.142857h48.760701v48.760701h-48.760701zM926.474986 536.378544h48.760701v48.764313h-48.760701zM926.474986 487.617843h48.760701v48.760701h-48.760701zM926.474986 438.857143h48.760701v48.7607h-48.760701zM926.474986 390.096442h48.760701v48.760701h-48.760701zM926.474986 341.332129h48.760701v48.764313h-48.760701zM926.474986 292.571429h48.760701v48.7607h-48.760701zM926.474986 243.810728h48.760701V292.571429h-48.760701zM926.474986 195.046415h48.760701v48.764313h-48.760701zM926.474986 146.285714h48.760701v48.760701h-48.760701z" p-id="5615"></path><path d="M926.474986 97.525014h48.760701v48.7607h-48.760701zM877.714286 975.235687h48.7607v48.764313H877.714286z" p-id="5616"></path><path d="M877.714286 926.474986h48.7607v48.760701H877.714286zM877.714286 877.714286h48.7607v48.7607H877.714286zM877.714286 828.949973h48.7607v48.764313H877.714286zM877.714286 780.189272h48.7607v48.760701H877.714286zM877.714286 731.428571h48.7607v48.760701H877.714286zM877.714286 682.664258h48.7607v48.764313H877.714286zM877.714286 633.903558h48.7607v48.7607H877.714286zM877.714286 585.142857h48.7607v48.760701H877.714286zM877.714286 536.378544h48.7607v48.764313H877.714286zM877.714286 487.617843h48.7607v48.760701H877.714286zM877.714286 438.857143h48.7607v48.7607H877.714286zM877.714286 390.096442h48.7607v48.760701H877.714286zM877.714286 341.332129h48.7607v48.764313H877.714286zM877.714286 292.571429h48.7607v48.7607H877.714286z" fill="#C0CCDC" p-id="5617"></path><path d="M877.714286 243.810728h48.7607V292.571429H877.714286zM877.714286 195.046415h48.7607v48.764313H877.714286z" fill="#E53842" p-id="5618"></path><path d="M877.714286 146.285714h48.7607v48.760701H877.714286z" fill="#56425F" p-id="5619"></path><path d="M877.714286 97.525014h48.7607v48.7607H877.714286z" fill="#8089A3" p-id="5620"></path><path d="M877.714286 48.760701h48.7607v48.764313H877.714286zM828.949973 975.235687h48.764313v48.764313h-48.764313z" p-id="5621"></path><path d="M828.949973 926.474986h48.764313v48.760701h-48.764313z" fill="#FFFFFF" p-id="5622"></path><path d="M828.949973 877.714286h48.764313v48.7607h-48.764313z" fill="#56425F" p-id="5623"></path><path d="M828.949973 828.949973h48.764313v48.764313h-48.764313zM828.949973 780.189272h48.764313v48.760701h-48.764313zM828.949973 731.428571h48.764313v48.760701h-48.764313zM828.949973 682.664258h48.764313v48.764313h-48.764313zM828.949973 633.903558h48.764313v48.7607h-48.764313zM828.949973 585.142857h48.764313v48.760701h-48.764313zM828.949973 536.378544h48.764313v48.764313h-48.764313zM828.949973 487.617843h48.764313v48.760701h-48.764313zM828.949973 438.857143h48.764313v48.7607h-48.764313zM828.949973 390.096442h48.764313v48.760701h-48.764313zM828.949973 341.332129h48.764313v48.764313h-48.764313zM828.949973 292.571429h48.764313v48.7607h-48.764313z" fill="#FFFFFF" p-id="5624"></path><path d="M828.949973 243.810728h48.764313V292.571429h-48.764313zM828.949973 195.046415h48.764313v48.764313h-48.764313zM828.949973 146.285714h48.764313v48.760701h-48.764313z" fill="#E53842" p-id="5625"></path><path d="M828.949973 97.525014h48.764313v48.7607h-48.764313z" fill="#E53842" p-id="5626"></path><path d="M828.949973 48.760701h48.764313v48.764313h-48.764313z" fill="#8089A3" p-id="5627"></path><path d="M828.949973 0h48.764313v48.760701h-48.764313zM780.189272 975.235687h48.760701v48.764313h-48.760701z" p-id="5628"></path><path d="M780.189272 926.474986h48.760701v48.760701h-48.760701zM780.189272 877.714286h48.760701v48.7607h-48.760701zM780.189272 828.949973h48.760701v48.764313h-48.760701zM780.189272 780.189272h48.760701v48.760701h-48.760701zM780.189272 731.428571h48.760701v48.760701h-48.760701zM780.189272 682.664258h48.760701v48.764313h-48.760701zM780.189272 633.903558h48.760701v48.7607h-48.760701zM780.189272 585.142857h48.760701v48.760701h-48.760701zM780.189272 536.378544h48.760701v48.764313h-48.760701zM780.189272 487.617843h48.760701v48.760701h-48.760701zM780.189272 438.857143h48.760701v48.7607h-48.760701zM780.189272 390.096442h48.760701v48.760701h-48.760701zM780.189272 341.332129h48.760701v48.764313h-48.760701zM780.189272 292.571429h48.760701v48.7607h-48.760701z" fill="#FFFFFF" p-id="5629"></path><path d="M780.189272 243.810728h48.760701V292.571429h-48.760701zM780.189272 195.046415h48.760701v48.764313h-48.760701zM780.189272 146.285714h48.760701v48.760701h-48.760701z" fill="#E53842" p-id="5630"></path><path d="M780.189272 97.525014h48.760701v48.7607h-48.760701z" fill="#E53842" p-id="5631"></path><path d="M780.189272 48.760701h48.760701v48.764313h-48.760701z" fill="#FFFFFF" p-id="5632"></path><path d="M780.189272 0h48.760701v48.760701h-48.760701zM731.428571 975.235687h48.760701v48.764313h-48.760701z" p-id="5633"></path><path d="M731.428571 926.474986h48.760701v48.760701h-48.760701zM731.428571 877.714286h48.760701v48.7607h-48.760701zM731.428571 828.949973h48.760701v48.764313h-48.760701zM731.428571 780.189272h48.760701v48.760701h-48.760701zM731.428571 731.428571h48.760701v48.760701h-48.760701zM731.428571 682.664258h48.760701v48.764313h-48.760701z" fill="#FFFFFF" p-id="5634"></path><path d="M731.428571 633.903558h48.760701v48.7607h-48.760701zM731.428571 585.142857h48.760701v48.760701h-48.760701zM731.428571 536.378544h48.760701v48.764313h-48.760701z" fill="#E53842" p-id="5635"></path><path d="M731.428571 487.617843h48.760701v48.760701h-48.760701z" fill="#FFFFFF" p-id="5636"></path><path d="M731.428571 438.857143h48.760701v48.7607h-48.760701zM731.428571 390.096442h48.760701v48.760701h-48.760701z" fill="#E53842" p-id="5637"></path><path d="M731.428571 341.332129h48.760701v48.764313h-48.760701zM731.428571 292.571429h48.760701v48.7607h-48.760701z" fill="#FFFFFF" p-id="5638"></path><path d="M731.428571 243.810728h48.760701V292.571429h-48.760701zM731.428571 195.046415h48.760701v48.764313h-48.760701z" fill="#E53842" p-id="5639"></path><path d="M731.428571 146.285714h48.760701v48.760701h-48.760701z" fill="#56425F" p-id="5640"></path><path d="M731.428571 97.525014h48.760701v48.7607h-48.760701z" fill="#8089A3" p-id="5641"></path><path d="M731.428571 48.760701h48.760701v48.764313h-48.760701z" fill="#FFFFFF" p-id="5642"></path><path d="M731.428571 0h48.760701v48.760701h-48.760701zM682.664258 975.235687h48.764313v48.764313h-48.764313z" p-id="5643"></path><path d="M682.664258 926.474986h48.764313v48.760701h-48.764313z" fill="#56425F" p-id="5644"></path><path d="M682.664258 877.714286h48.764313v48.7607h-48.764313z" fill="#FFFFFF" p-id="5645"></path><path d="M682.664258 828.949973h48.764313v48.764313h-48.764313z" fill="#E53842" p-id="5646"></path><path d="M682.664258 780.189272h48.764313v48.760701h-48.764313zM682.664258 731.428571h48.764313v48.760701h-48.764313z" fill="#FFFFFF" p-id="5647"></path><path d="M682.664258 682.664258h48.764313v48.764313h-48.764313z" fill="#E53842" p-id="5648"></path><path d="M682.664258 633.903558h48.764313v48.7607h-48.764313zM682.664258 585.142857h48.764313v48.760701h-48.764313zM682.664258 536.378544h48.764313v48.764313h-48.764313z" fill="#FFFFFF" p-id="5649"></path><path d="M682.664258 487.617843h48.764313v48.760701h-48.764313z" fill="#E53842" p-id="5650"></path><path d="M682.664258 438.857143h48.764313v48.7607h-48.764313zM682.664258 390.096442h48.764313v48.760701h-48.764313z" fill="#FFFFFF" p-id="5651"></path><path d="M682.664258 341.332129h48.764313v48.764313h-48.764313z" fill="#E53842" p-id="5652"></path><path d="M682.664258 292.571429h48.764313v48.7607h-48.764313z" fill="#FFFFFF" p-id="5653"></path><path d="M682.664258 243.810728h48.764313V292.571429h-48.764313zM682.664258 195.046415h48.764313v48.764313h-48.764313zM682.664258 146.285714h48.764313v48.760701h-48.764313z" fill="#E53842" p-id="5654"></path><path d="M682.664258 97.525014h48.764313v48.7607h-48.764313z" fill="#E53842" p-id="5655"></path><path d="M682.664258 48.760701h48.764313v48.764313h-48.764313z" fill="#8089A3" p-id="5656"></path><path d="M682.664258 0h48.764313v48.760701h-48.764313zM633.903558 975.235687h48.7607v48.764313h-48.7607z" p-id="5657"></path><path d="M633.903558 926.474986h48.7607v48.760701h-48.7607zM633.903558 877.714286h48.7607v48.7607h-48.7607z" fill="#FFFFFF" p-id="5658"></path><path d="M633.903558 828.949973h48.7607v48.764313h-48.7607z" fill="#E53842" p-id="5659"></path><path d="M633.903558 780.189272h48.7607v48.760701h-48.7607zM633.903558 731.428571h48.7607v48.760701h-48.7607z" fill="#FFFFFF" p-id="5660"></path><path d="M633.903558 682.664258h48.7607v48.764313h-48.7607z" fill="#E53842" p-id="5661"></path><path d="M633.903558 633.903558h48.7607v48.7607h-48.7607zM633.903558 585.142857h48.7607v48.760701h-48.7607zM633.903558 536.378544h48.7607v48.764313h-48.7607z" fill="#FFFFFF" p-id="5662"></path><path d="M633.903558 487.617843h48.7607v48.760701h-48.7607z" fill="#E53842" p-id="5663"></path><path d="M633.903558 438.857143h48.7607v48.7607h-48.7607zM633.903558 390.096442h48.7607v48.760701h-48.7607z" fill="#FFFFFF" p-id="5664"></path><path d="M633.903558 341.332129h48.7607v48.764313h-48.7607z" fill="#E53842" p-id="5665"></path><path d="M633.903558 292.571429h48.7607v48.7607h-48.7607z" fill="#FFFFFF" p-id="5666"></path><path d="M633.903558 243.810728h48.7607V292.571429h-48.7607zM633.903558 195.046415h48.7607v48.764313h-48.7607zM633.903558 146.285714h48.7607v48.760701h-48.7607z" fill="#E53842" p-id="5667"></path><path d="M633.903558 97.525014h48.7607v48.7607h-48.7607z" fill="#E53842" p-id="5668"></path><path d="M633.903558 48.760701h48.7607v48.764313h-48.7607z" fill="#FFFFFF" p-id="5669"></path><path d="M633.903558 0h48.7607v48.760701h-48.7607zM585.142857 975.235687h48.760701v48.764313H585.142857z" p-id="5670"></path><path d="M585.142857 926.474986h48.760701v48.760701H585.142857zM585.142857 877.714286h48.760701v48.7607H585.142857z" fill="#FFFFFF" p-id="5671"></path><path d="M585.142857 828.949973h48.760701v48.764313H585.142857z" fill="#E53842" p-id="5672"></path><path d="M585.142857 780.189272h48.760701v48.760701H585.142857zM585.142857 731.428571h48.760701v48.760701H585.142857z" fill="#FFFFFF" p-id="5673"></path><path d="M585.142857 682.664258h48.760701v48.764313H585.142857z" fill="#E53842" p-id="5674"></path><path d="M585.142857 633.903558h48.760701v48.7607H585.142857zM585.142857 585.142857h48.760701v48.760701H585.142857zM585.142857 536.378544h48.760701v48.764313H585.142857z" fill="#FFFFFF" p-id="5675"></path><path d="M585.142857 487.617843h48.760701v48.760701H585.142857z" fill="#E53842" p-id="5676"></path><path d="M585.142857 438.857143h48.760701v48.7607H585.142857zM585.142857 390.096442h48.760701v48.760701H585.142857z" fill="#FFFFFF" p-id="5677"></path><path d="M585.142857 341.332129h48.760701v48.764313H585.142857z" fill="#E53842" p-id="5678"></path><path d="M585.142857 292.571429h48.760701v48.7607H585.142857z" fill="#FFFFFF" p-id="5679"></path><path d="M585.142857 243.810728h48.760701V292.571429H585.142857zM585.142857 195.046415h48.760701v48.764313H585.142857z" fill="#E53842" p-id="5680"></path><path d="M585.142857 146.285714h48.760701v48.760701H585.142857z" fill="#56425F" p-id="5681"></path><path d="M585.142857 97.525014h48.760701v48.7607H585.142857z" fill="#8089A3" p-id="5682"></path><path d="M585.142857 48.760701h48.760701v48.764313H585.142857z" fill="#FFFFFF" p-id="5683"></path><path d="M585.142857 0h48.760701v48.760701H585.142857zM536.378544 975.235687h48.764313v48.764313h-48.764313z" p-id="5684"></path><path d="M536.378544 926.474986h48.764313v48.760701h-48.764313zM536.378544 877.714286h48.764313v48.7607h-48.764313z" fill="#FFFFFF" p-id="5685"></path><path d="M536.378544 828.949973h48.764313v48.764313h-48.764313z" fill="#E53842" p-id="5686"></path><path d="M536.378544 780.189272h48.764313v48.760701h-48.764313zM536.378544 731.428571h48.764313v48.760701h-48.764313zM536.378544 682.664258h48.764313v48.764313h-48.764313zM536.378544 633.903558h48.764313v48.7607h-48.764313zM536.378544 585.142857h48.764313v48.760701h-48.764313zM536.378544 536.378544h48.764313v48.764313h-48.764313zM536.378544 487.617843h48.764313v48.760701h-48.764313zM536.378544 438.857143h48.764313v48.7607h-48.764313zM536.378544 390.096442h48.764313v48.760701h-48.764313zM536.378544 341.332129h48.764313v48.764313h-48.764313zM536.378544 292.571429h48.764313v48.7607h-48.764313z" fill="#FFFFFF" p-id="5687"></path><path d="M536.378544 243.810728h48.764313V292.571429h-48.764313zM536.378544 195.046415h48.764313v48.764313h-48.764313zM536.378544 146.285714h48.764313v48.760701h-48.764313z" fill="#E53842" p-id="5688"></path><path d="M536.378544 97.525014h48.764313v48.7607h-48.764313z" fill="#E53842" p-id="5689"></path><path d="M536.378544 48.760701h48.764313v48.764313h-48.764313z" fill="#8089A3" p-id="5690"></path><path d="M536.378544 0h48.764313v48.760701h-48.764313zM487.617843 975.235687h48.760701v48.764313h-48.760701z" p-id="5691"></path><path d="M487.617843 926.474986h48.760701v48.760701h-48.760701zM487.617843 877.714286h48.760701v48.7607h-48.760701z" fill="#FFFFFF" p-id="5692"></path><path d="M487.617843 828.949973h48.760701v48.764313h-48.760701z" fill="#E53842" p-id="5693"></path><path d="M487.617843 780.189272h48.760701v48.760701h-48.760701zM487.617843 731.428571h48.760701v48.760701h-48.760701z" fill="#FFFFFF" p-id="5694"></path><path d="M487.617843 682.664258h48.760701v48.764313h-48.760701z" fill="#E53842" p-id="5695"></path><path d="M487.617843 633.903558h48.760701v48.7607h-48.760701zM487.617843 585.142857h48.760701v48.760701h-48.760701zM487.617843 536.378544h48.760701v48.764313h-48.760701zM487.617843 487.617843h48.760701v48.760701h-48.760701z" fill="#FFFFFF" p-id="5696"></path><path d="M487.617843 438.857143h48.760701v48.7607h-48.760701zM487.617843 390.096442h48.760701v48.760701h-48.760701z" fill="#E53842" p-id="5697"></path><path d="M487.617843 341.332129h48.760701v48.764313h-48.760701zM487.617843 292.571429h48.760701v48.7607h-48.760701z" fill="#FFFFFF" p-id="5698"></path><path d="M487.617843 243.810728h48.760701V292.571429h-48.760701zM487.617843 195.046415h48.760701v48.764313h-48.760701zM487.617843 146.285714h48.760701v48.760701h-48.760701z" fill="#E53842" p-id="5699"></path><path d="M487.617843 97.525014h48.760701v48.7607h-48.760701z" fill="#E53842" p-id="5700"></path><path d="M487.617843 48.760701h48.760701v48.764313h-48.760701z" fill="#FFFFFF" p-id="5701"></path><path d="M487.617843 0h48.760701v48.760701h-48.760701zM438.857143 975.235687h48.7607v48.764313h-48.7607z" p-id="5702"></path><path d="M438.857143 926.474986h48.7607v48.760701h-48.7607zM438.857143 877.714286h48.7607v48.7607h-48.7607z" fill="#FFFFFF" p-id="5703"></path><path d="M438.857143 828.949973h48.7607v48.764313h-48.7607z" fill="#E53842" p-id="5704"></path><path d="M438.857143 780.189272h48.7607v48.760701h-48.7607zM438.857143 731.428571h48.7607v48.760701h-48.7607z" fill="#FFFFFF" p-id="5705"></path><path d="M438.857143 682.664258h48.7607v48.764313h-48.7607z" fill="#E53842" p-id="5706"></path><path d="M438.857143 633.903558h48.7607v48.7607h-48.7607zM438.857143 585.142857h48.7607v48.760701h-48.7607zM438.857143 536.378544h48.7607v48.764313h-48.7607z" fill="#FFFFFF" p-id="5707"></path><path d="M438.857143 487.617843h48.7607v48.760701h-48.7607z" fill="#E53842" p-id="5708"></path><path d="M438.857143 438.857143h48.7607v48.7607h-48.7607zM438.857143 390.096442h48.7607v48.760701h-48.7607z" fill="#FFFFFF" p-id="5709"></path><path d="M438.857143 341.332129h48.7607v48.764313h-48.7607z" fill="#E53842" p-id="5710"></path><path d="M438.857143 292.571429h48.7607v48.7607h-48.7607z" fill="#FFFFFF" p-id="5711"></path><path d="M438.857143 243.810728h48.7607V292.571429h-48.7607zM438.857143 195.046415h48.7607v48.764313h-48.7607z" fill="#E53842" p-id="5712"></path><path d="M438.857143 146.285714h48.7607v48.760701h-48.7607z" fill="#56425F" p-id="5713"></path><path d="M438.857143 97.525014h48.7607v48.7607h-48.7607z" fill="#8089A3" p-id="5714"></path><path d="M438.857143 48.760701h48.7607v48.764313h-48.7607z" fill="#FFFFFF" p-id="5715"></path><path d="M438.857143 0h48.7607v48.760701h-48.7607zM390.096442 975.235687h48.760701v48.764313h-48.760701z" p-id="5716"></path><path d="M390.096442 926.474986h48.760701v48.760701h-48.760701zM390.096442 877.714286h48.760701v48.7607h-48.760701z" fill="#FFFFFF" p-id="5717"></path><path d="M390.096442 828.949973h48.760701v48.764313h-48.760701z" fill="#E53842" p-id="5718"></path><path d="M390.096442 780.189272h48.760701v48.760701h-48.760701zM390.096442 731.428571h48.760701v48.760701h-48.760701z" fill="#FFFFFF" p-id="5719"></path><path d="M390.096442 682.664258h48.760701v48.764313h-48.760701z" fill="#E53842" p-id="5720"></path><path d="M390.096442 633.903558h48.760701v48.7607h-48.760701zM390.096442 585.142857h48.760701v48.760701h-48.760701z" fill="#FFFFFF" p-id="5721"></path><path d="M390.096442 536.378544h48.760701v48.764313h-48.760701z" fill="#E53842" p-id="5722"></path><path d="M390.096442 487.617843h48.760701v48.760701h-48.760701zM390.096442 438.857143h48.760701v48.7607h-48.760701zM390.096442 390.096442h48.760701v48.760701h-48.760701z" fill="#FFFFFF" p-id="5723"></path><path d="M390.096442 341.332129h48.760701v48.764313h-48.760701z" fill="#E53842" p-id="5724"></path><path d="M390.096442 292.571429h48.760701v48.7607h-48.760701z" fill="#FFFFFF" p-id="5725"></path><path d="M390.096442 243.810728h48.760701V292.571429h-48.760701zM390.096442 195.046415h48.760701v48.764313h-48.760701zM390.096442 146.285714h48.760701v48.760701h-48.760701z" fill="#E53842" p-id="5726"></path><path d="M390.096442 97.525014h48.760701v48.7607h-48.760701z" fill="#E53842" p-id="5727"></path><path d="M390.096442 48.760701h48.760701v48.764313h-48.760701z" fill="#8089A3" p-id="5728"></path><path d="M390.096442 0h48.760701v48.760701h-48.760701zM341.332129 975.235687h48.764313v48.764313H341.332129z" p-id="5729"></path><path d="M341.332129 926.474986h48.764313v48.760701H341.332129zM341.332129 877.714286h48.764313v48.7607H341.332129zM341.332129 828.949973h48.764313v48.764313H341.332129zM341.332129 780.189272h48.764313v48.760701H341.332129zM341.332129 731.428571h48.764313v48.760701H341.332129z" fill="#FFFFFF" p-id="5730"></path><path d="M341.332129 682.664258h48.764313v48.764313H341.332129zM341.332129 633.903558h48.764313v48.7607H341.332129zM341.332129 585.142857h48.764313v48.760701H341.332129z" fill="#E53842" p-id="5731"></path><path d="M341.332129 536.378544h48.764313v48.764313H341.332129zM341.332129 487.617843h48.764313v48.760701H341.332129z" fill="#FFFFFF" p-id="5732"></path><path d="M341.332129 438.857143h48.764313v48.7607H341.332129zM341.332129 390.096442h48.764313v48.760701H341.332129z" fill="#E53842" p-id="5733"></path><path d="M341.332129 341.332129h48.764313v48.764313H341.332129zM341.332129 292.571429h48.764313v48.7607H341.332129z" fill="#FFFFFF" p-id="5734"></path><path d="M341.332129 243.810728h48.764313V292.571429H341.332129zM341.332129 195.046415h48.764313v48.764313H341.332129zM341.332129 146.285714h48.764313v48.760701H341.332129z" fill="#E53842" p-id="5735"></path><path d="M341.332129 97.525014h48.764313v48.7607H341.332129z" fill="#E53842" p-id="5736"></path><path d="M341.332129 48.760701h48.764313v48.764313H341.332129z" fill="#FFFFFF" p-id="5737"></path><path d="M341.332129 0h48.764313v48.760701H341.332129zM292.571429 975.235687h48.7607v48.764313H292.571429z" p-id="5738"></path><path d="M292.571429 926.474986h48.7607v48.760701H292.571429zM292.571429 877.714286h48.7607v48.7607H292.571429zM292.571429 828.949973h48.7607v48.764313H292.571429zM292.571429 780.189272h48.7607v48.760701H292.571429zM292.571429 731.428571h48.7607v48.760701H292.571429zM292.571429 682.664258h48.7607v48.764313H292.571429zM292.571429 633.903558h48.7607v48.7607H292.571429zM292.571429 585.142857h48.7607v48.760701H292.571429zM292.571429 536.378544h48.7607v48.764313H292.571429zM292.571429 487.617843h48.7607v48.760701H292.571429zM292.571429 438.857143h48.7607v48.7607H292.571429zM292.571429 390.096442h48.7607v48.760701H292.571429zM292.571429 341.332129h48.7607v48.764313H292.571429zM292.571429 292.571429h48.7607v48.7607H292.571429z" fill="#FFFFFF" p-id="5739"></path><path d="M292.571429 243.810728h48.7607V292.571429H292.571429zM292.571429 195.046415h48.7607v48.764313H292.571429z" fill="#E53842" p-id="5740"></path><path d="M292.571429 146.285714h48.7607v48.760701H292.571429z" fill="#56425F" p-id="5741"></path><path d="M292.571429 97.525014h48.7607v48.7607H292.571429z" fill="#8089A3" p-id="5742"></path><path d="M292.571429 48.760701h48.7607v48.764313H292.571429z" fill="#FFFFFF" p-id="5743"></path><path d="M292.571429 0h48.7607v48.760701H292.571429zM243.810728 975.235687H292.571429v48.764313H243.810728z" p-id="5744"></path><path d="M243.810728 926.474986H292.571429v48.760701H243.810728zM243.810728 877.714286H292.571429v48.7607H243.810728zM243.810728 828.949973H292.571429v48.764313H243.810728zM243.810728 780.189272H292.571429v48.760701H243.810728zM243.810728 731.428571H292.571429v48.760701H243.810728zM243.810728 682.664258H292.571429v48.764313H243.810728zM243.810728 633.903558H292.571429v48.7607H243.810728zM243.810728 585.142857H292.571429v48.760701H243.810728zM243.810728 536.378544H292.571429v48.764313H243.810728z" fill="#FFFFFF" p-id="5745"></path><path d="M243.810728 487.617843H292.571429v48.760701H243.810728zM243.810728 438.857143H292.571429v48.7607H243.810728zM243.810728 390.096442H292.571429v48.760701H243.810728z" fill="#56425F" p-id="5746"></path><path d="M243.810728 341.332129H292.571429v48.764313H243.810728zM243.810728 292.571429H292.571429v48.7607H243.810728z" fill="#FFFFFF" p-id="5747"></path><path d="M243.810728 243.810728H292.571429V292.571429H243.810728zM243.810728 195.046415H292.571429v48.764313H243.810728zM243.810728 146.285714H292.571429v48.760701H243.810728z" fill="#E53842" p-id="5748"></path><path d="M243.810728 97.525014H292.571429v48.7607H243.810728z" fill="#E53842" p-id="5749"></path><path d="M243.810728 48.760701H292.571429v48.764313H243.810728z" fill="#8089A3" p-id="5750"></path><path d="M243.810728 0H292.571429v48.760701H243.810728zM195.046415 975.235687h48.764313v48.764313H195.046415z" p-id="5751"></path><path d="M195.046415 926.474986h48.764313v48.760701H195.046415zM195.046415 877.714286h48.764313v48.7607H195.046415zM195.046415 828.949973h48.764313v48.764313H195.046415zM195.046415 780.189272h48.764313v48.760701H195.046415zM195.046415 731.428571h48.764313v48.760701H195.046415zM195.046415 682.664258h48.764313v48.764313H195.046415zM195.046415 633.903558h48.764313v48.7607H195.046415zM195.046415 585.142857h48.764313v48.760701H195.046415zM195.046415 536.378544h48.764313v48.764313H195.046415zM195.046415 487.617843h48.764313v48.760701H195.046415zM195.046415 438.857143h48.764313v48.7607H195.046415zM195.046415 390.096442h48.764313v48.760701H195.046415zM195.046415 341.332129h48.764313v48.764313H195.046415zM195.046415 292.571429h48.764313v48.7607H195.046415zM195.046415 243.810728h48.764313V292.571429H195.046415zM195.046415 195.046415h48.764313v48.764313H195.046415zM195.046415 146.285714h48.764313v48.760701H195.046415z" fill="#C0CCDC" p-id="5752"></path><path d="M195.046415 97.525014h48.764313v48.7607H195.046415z" fill="#C0CCDC" p-id="5753"></path><path d="M195.046415 48.760701h48.764313v48.764313H195.046415z" fill="#8089A3" p-id="5754"></path><path d="M195.046415 0h48.764313v48.760701H195.046415zM146.285714 975.235687h48.760701v48.764313H146.285714z" p-id="5755"></path><path d="M146.285714 926.474986h48.760701v48.760701H146.285714zM146.285714 877.714286h48.760701v48.7607H146.285714zM146.285714 828.949973h48.760701v48.764313H146.285714zM146.285714 780.189272h48.760701v48.760701H146.285714zM146.285714 731.428571h48.760701v48.760701H146.285714zM146.285714 682.664258h48.760701v48.764313H146.285714zM146.285714 633.903558h48.760701v48.7607H146.285714zM146.285714 585.142857h48.760701v48.760701H146.285714zM146.285714 536.378544h48.760701v48.764313H146.285714zM146.285714 487.617843h48.760701v48.760701H146.285714zM146.285714 438.857143h48.760701v48.7607H146.285714zM146.285714 390.096442h48.760701v48.760701H146.285714zM146.285714 341.332129h48.760701v48.764313H146.285714zM146.285714 292.571429h48.760701v48.7607H146.285714zM146.285714 243.810728h48.760701V292.571429H146.285714zM146.285714 195.046415h48.760701v48.764313H146.285714zM146.285714 146.285714h48.760701v48.760701H146.285714z" fill="#C0CCDC" p-id="5756"></path><path d="M146.285714 97.525014h48.760701v48.7607H146.285714z" fill="#C0CCDC" p-id="5757"></path><path d="M146.285714 48.760701h48.760701v48.764313H146.285714z" p-id="5758"></path><path d="M97.525014 975.235687h48.7607v48.764313H97.525014z" fill="#FFFFFF" p-id="5759"></path><path d="M97.525014 926.474986h48.7607v48.760701H97.525014zM97.525014 877.714286h48.7607v48.7607H97.525014zM97.525014 828.949973h48.7607v48.764313H97.525014zM97.525014 780.189272h48.7607v48.760701H97.525014zM97.525014 731.428571h48.7607v48.760701H97.525014zM97.525014 682.664258h48.7607v48.764313H97.525014zM97.525014 633.903558h48.7607v48.7607H97.525014zM97.525014 585.142857h48.7607v48.760701H97.525014zM97.525014 536.378544h48.7607v48.764313H97.525014zM97.525014 487.617843h48.7607v48.760701H97.525014zM97.525014 438.857143h48.7607v48.7607H97.525014zM97.525014 390.096442h48.7607v48.760701H97.525014zM97.525014 341.332129h48.7607v48.764313H97.525014zM97.525014 292.571429h48.7607v48.7607H97.525014zM97.525014 243.810728h48.7607V292.571429H97.525014zM97.525014 195.046415h48.7607v48.764313H97.525014zM97.525014 146.285714h48.7607v48.760701H97.525014z" p-id="5760"></path><path d="M97.525014 97.525014h48.7607v48.7607H97.525014z" p-id="5761"></path></svg>