<?xml version="1.0" standalone="no"?><!DOCTYPE svg PUBLIC "-//W3C//DTD SVG 1.1//EN" "http://www.w3.org/Graphics/SVG/1.1/DTD/svg11.dtd"><svg t="1683859968281" class="icon" viewBox="0 0 1024 1024" version="1.1" xmlns="http://www.w3.org/2000/svg" p-id="6979" xmlns:xlink="http://www.w3.org/1999/xlink" width="200" height="200"><path d="M975.235687 438.857143h48.764313v48.7607h-48.764313zM975.235687 390.096442h48.764313v48.760701h-48.764313zM975.235687 341.332129h48.764313v48.764313h-48.764313zM975.235687 292.571429h48.764313v48.7607h-48.764313zM975.235687 243.810728h48.764313V292.571429h-48.764313zM926.474986 536.378544h48.760701v48.764313h-48.760701zM926.474986 487.617843h48.760701v48.760701h-48.760701z" p-id="6980"></path><path d="M926.474986 438.857143h48.760701v48.7607h-48.760701zM926.474986 390.096442h48.760701v48.760701h-48.760701zM926.474986 341.332129h48.760701v48.764313h-48.760701zM926.474986 292.571429h48.760701v48.7607h-48.760701zM926.474986 243.810728h48.760701V292.571429h-48.760701z" fill="#E41C00" p-id="6981"></path><path d="M926.474986 195.046415h48.760701v48.764313h-48.760701zM877.714286 633.903558h48.7607v48.7607H877.714286zM877.714286 585.142857h48.7607v48.760701H877.714286z" p-id="6982"></path><path d="M877.714286 536.378544h48.7607v48.764313H877.714286zM877.714286 487.617843h48.7607v48.760701H877.714286z" fill="#E41C00" p-id="6983"></path><path d="M877.714286 438.857143h48.7607v48.7607H877.714286zM877.714286 390.096442h48.7607v48.760701H877.714286z" fill="#BD0502" p-id="6984"></path><path d="M877.714286 341.332129h48.7607v48.764313H877.714286zM877.714286 292.571429h48.7607v48.7607H877.714286z" fill="#E41C00" p-id="6985"></path><path d="M877.714286 243.810728h48.7607V292.571429H877.714286z" fill="#FFFFFF" p-id="6986"></path><path d="M877.714286 195.046415h48.7607v48.764313H877.714286z" fill="#E41C00" p-id="6987"></path><path d="M877.714286 146.285714h48.7607v48.760701H877.714286zM828.949973 682.664258h48.764313v48.764313h-48.764313z" p-id="6988"></path><path d="M828.949973 633.903558h48.764313v48.7607h-48.764313zM828.949973 585.142857h48.764313v48.760701h-48.764313z" fill="#E41C00" p-id="6989"></path><path d="M828.949973 536.378544h48.764313v48.764313h-48.764313z" fill="#BD0502" p-id="6990"></path><path d="M828.949973 487.617843h48.764313v48.760701h-48.764313z" fill="#900503" p-id="6991"></path><path d="M828.949973 438.857143h48.764313v48.7607h-48.764313zM828.949973 390.096442h48.764313v48.760701h-48.764313z" fill="#BD0502" p-id="6992"></path><path d="M828.949973 341.332129h48.764313v48.764313h-48.764313zM828.949973 292.571429h48.764313v48.7607h-48.764313zM828.949973 243.810728h48.764313V292.571429h-48.764313zM828.949973 195.046415h48.764313v48.764313h-48.764313zM828.949973 146.285714h48.764313v48.760701h-48.764313z" fill="#E41C00" p-id="6993"></path><path d="M828.949973 97.525014h48.764313v48.7607h-48.764313zM780.189272 731.428571h48.760701v48.760701h-48.760701z" p-id="6994"></path><path d="M780.189272 682.664258h48.760701v48.764313h-48.760701z" fill="#E41C00" p-id="6995"></path><path d="M780.189272 633.903558h48.760701v48.7607h-48.760701zM780.189272 585.142857h48.760701v48.760701h-48.760701z" fill="#BD0502" p-id="6996"></path><path d="M780.189272 536.378544h48.760701v48.764313h-48.760701zM780.189272 487.617843h48.760701v48.760701h-48.760701zM780.189272 438.857143h48.760701v48.7607h-48.760701zM780.189272 390.096442h48.760701v48.760701h-48.760701zM780.189272 341.332129h48.760701v48.764313h-48.760701z" fill="#900503" p-id="6997"></path><path d="M780.189272 292.571429h48.760701v48.7607h-48.760701zM780.189272 243.810728h48.760701V292.571429h-48.760701z" fill="#E41C00" p-id="6998"></path><path d="M780.189272 195.046415h48.760701v48.764313h-48.760701z" fill="#BD0502" p-id="6999"></path><path d="M780.189272 146.285714h48.760701v48.760701h-48.760701z" fill="#E41C00" p-id="7000"></path><path d="M780.189272 97.525014h48.760701v48.7607h-48.760701zM731.428571 780.189272h48.760701v48.760701h-48.760701z" p-id="7001"></path><path d="M731.428571 731.428571h48.760701v48.760701h-48.760701z" fill="#E41C00" p-id="7002"></path><path d="M731.428571 682.664258h48.760701v48.764313h-48.760701zM731.428571 633.903558h48.760701v48.7607h-48.760701z" fill="#BD0502" p-id="7003"></path><path d="M731.428571 585.142857h48.760701v48.760701h-48.760701z" fill="#900503" p-id="7004"></path><path d="M731.428571 536.378544h48.760701v48.764313h-48.760701z" fill="#FFFFFF" p-id="7005"></path><path d="M731.428571 487.617843h48.760701v48.760701h-48.760701zM731.428571 438.857143h48.760701v48.7607h-48.760701z" fill="#900503" p-id="7006"></path><path d="M731.428571 390.096442h48.760701v48.760701h-48.760701z" fill="#BD0502" p-id="7007"></path><path d="M731.428571 341.332129h48.760701v48.764313h-48.760701z" fill="#E41C00" p-id="7008"></path><path d="M731.428571 292.571429h48.760701v48.7607h-48.760701z" fill="#900503" p-id="7009"></path><path d="M731.428571 243.810728h48.760701V292.571429h-48.760701zM731.428571 195.046415h48.760701v48.764313h-48.760701z" fill="#BD0502" p-id="7010"></path><path d="M731.428571 146.285714h48.760701v48.760701h-48.760701z" fill="#E41C00" p-id="7011"></path><path d="M731.428571 97.525014h48.760701v48.7607h-48.760701zM682.664258 780.189272h48.764313v48.760701h-48.764313z" p-id="7012"></path><path d="M682.664258 731.428571h48.764313v48.760701h-48.764313z" fill="#E41C00" p-id="7013"></path><path d="M682.664258 682.664258h48.764313v48.764313h-48.764313z" fill="#BD0502" p-id="7014"></path><path d="M682.664258 633.903558h48.764313v48.7607h-48.764313zM682.664258 585.142857h48.764313v48.760701h-48.764313zM682.664258 536.378544h48.764313v48.764313h-48.764313zM682.664258 487.617843h48.764313v48.760701h-48.764313zM682.664258 438.857143h48.764313v48.7607h-48.764313zM682.664258 390.096442h48.764313v48.760701h-48.764313zM682.664258 341.332129h48.764313v48.764313h-48.764313zM682.664258 292.571429h48.764313v48.7607h-48.764313z" fill="#900503" p-id="7015"></path><path d="M682.664258 243.810728h48.764313V292.571429h-48.764313zM682.664258 195.046415h48.764313v48.764313h-48.764313z" fill="#BD0502" p-id="7016"></path><path d="M682.664258 146.285714h48.764313v48.760701h-48.764313z" fill="#E41C00" p-id="7017"></path><path d="M682.664258 97.525014h48.764313v48.7607h-48.764313zM633.903558 828.949973h48.7607v48.764313h-48.7607z" p-id="7018"></path><path d="M633.903558 780.189272h48.7607v48.760701h-48.7607z" fill="#E41C00" p-id="7019"></path><path d="M633.903558 731.428571h48.7607v48.760701h-48.7607z" fill="#BD0502" p-id="7020"></path><path d="M633.903558 682.664258h48.7607v48.764313h-48.7607z" fill="#900503" p-id="7021"></path><path d="M633.903558 633.903558h48.7607v48.7607h-48.7607z" fill="#FFFFFF" p-id="7022"></path><path d="M633.903558 585.142857h48.7607v48.760701h-48.7607zM633.903558 536.378544h48.7607v48.764313h-48.7607zM633.903558 487.617843h48.7607v48.760701h-48.7607zM633.903558 438.857143h48.7607v48.7607h-48.7607zM633.903558 390.096442h48.7607v48.760701h-48.7607zM633.903558 341.332129h48.7607v48.764313h-48.7607zM633.903558 292.571429h48.7607v48.7607h-48.7607z" fill="#900503" p-id="7023"></path><path d="M633.903558 243.810728h48.7607V292.571429h-48.7607zM633.903558 195.046415h48.7607v48.764313h-48.7607z" fill="#BD0502" p-id="7024"></path><path d="M633.903558 146.285714h48.7607v48.760701h-48.7607z" fill="#E41C00" p-id="7025"></path><path d="M633.903558 97.525014h48.7607v48.7607h-48.7607zM585.142857 828.949973h48.760701v48.764313H585.142857z" p-id="7026"></path><path d="M585.142857 780.189272h48.760701v48.760701H585.142857z" fill="#E41C00" p-id="7027"></path><path d="M585.142857 731.428571h48.760701v48.760701H585.142857zM585.142857 682.664258h48.760701v48.764313H585.142857zM585.142857 633.903558h48.760701v48.7607H585.142857zM585.142857 585.142857h48.760701v48.760701H585.142857zM585.142857 536.378544h48.760701v48.764313H585.142857zM585.142857 487.617843h48.760701v48.760701H585.142857zM585.142857 438.857143h48.760701v48.7607H585.142857zM585.142857 390.096442h48.760701v48.760701H585.142857zM585.142857 341.332129h48.760701v48.764313H585.142857zM585.142857 292.571429h48.760701v48.7607H585.142857z" fill="#900503" p-id="7028"></path><path d="M585.142857 243.810728h48.760701V292.571429H585.142857zM585.142857 195.046415h48.760701v48.764313H585.142857z" fill="#BD0502" p-id="7029"></path><path d="M585.142857 146.285714h48.760701v48.760701H585.142857z" fill="#E41C00" p-id="7030"></path><path d="M585.142857 97.525014h48.760701v48.7607H585.142857zM536.378544 877.714286h48.764313v48.7607h-48.764313z" p-id="7031"></path><path d="M536.378544 828.949973h48.764313v48.764313h-48.764313z" fill="#E41C00" p-id="7032"></path><path d="M536.378544 780.189272h48.764313v48.760701h-48.764313z" fill="#BD0502" p-id="7033"></path><path d="M536.378544 731.428571h48.764313v48.760701h-48.764313zM536.378544 682.664258h48.764313v48.764313h-48.764313z" fill="#900503" p-id="7034"></path><path d="M536.378544 633.903558h48.764313v48.7607h-48.764313z" fill="#BD0502" p-id="7035"></path><path d="M536.378544 585.142857h48.764313v48.760701h-48.764313z" fill="#900503" p-id="7036"></path><path d="M536.378544 536.378544h48.764313v48.764313h-48.764313z" fill="#FFFFFF" p-id="7037"></path><path d="M536.378544 487.617843h48.764313v48.760701h-48.764313zM536.378544 438.857143h48.764313v48.7607h-48.764313zM536.378544 390.096442h48.764313v48.760701h-48.764313zM536.378544 341.332129h48.764313v48.764313h-48.764313zM536.378544 292.571429h48.764313v48.7607h-48.764313z" fill="#900503" p-id="7038"></path><path d="M536.378544 243.810728h48.764313V292.571429h-48.764313z" fill="#BD0502" p-id="7039"></path><path d="M536.378544 195.046415h48.764313v48.764313h-48.764313z" fill="#E41C00" p-id="7040"></path><path d="M536.378544 146.285714h48.764313v48.760701h-48.764313zM487.617843 926.474986h48.760701v48.760701h-48.760701z" p-id="7041"></path><path d="M487.617843 877.714286h48.760701v48.7607h-48.760701z" fill="#E41C00" p-id="7042"></path><path d="M487.617843 828.949973h48.760701v48.764313h-48.760701zM487.617843 780.189272h48.760701v48.760701h-48.760701z" fill="#BD0502" p-id="7043"></path><path d="M487.617843 731.428571h48.760701v48.760701h-48.760701z" fill="#900503" p-id="7044"></path><path d="M487.617843 682.664258h48.760701v48.764313h-48.760701z" fill="#BD0502" p-id="7045"></path><path d="M487.617843 633.903558h48.760701v48.7607h-48.760701zM487.617843 585.142857h48.760701v48.760701h-48.760701zM487.617843 536.378544h48.760701v48.764313h-48.760701zM487.617843 487.617843h48.760701v48.760701h-48.760701zM487.617843 438.857143h48.760701v48.7607h-48.760701zM487.617843 390.096442h48.760701v48.760701h-48.760701zM487.617843 341.332129h48.760701v48.764313h-48.760701z" fill="#900503" p-id="7046"></path><path d="M487.617843 292.571429h48.760701v48.7607h-48.760701z" fill="#BE0602" p-id="7047"></path><path d="M487.617843 243.810728h48.760701V292.571429h-48.760701z" fill="#E41C00" p-id="7048"></path><path d="M487.617843 195.046415h48.760701v48.764313h-48.760701zM438.857143 877.714286h48.7607v48.7607h-48.7607z" p-id="7049"></path><path d="M438.857143 828.949973h48.7607v48.764313h-48.7607z" fill="#E41C00" p-id="7050"></path><path d="M438.857143 780.189272h48.7607v48.760701h-48.7607z" fill="#BD0502" p-id="7051"></path><path d="M438.857143 731.428571h48.7607v48.760701h-48.7607zM438.857143 682.664258h48.7607v48.764313h-48.7607zM438.857143 633.903558h48.7607v48.7607h-48.7607zM438.857143 585.142857h48.7607v48.760701h-48.7607z" fill="#900503" p-id="7052"></path><path d="M438.857143 536.378544h48.7607v48.764313h-48.7607z" fill="#BD0502" p-id="7053"></path><path d="M438.857143 487.617843h48.7607v48.760701h-48.7607zM438.857143 438.857143h48.7607v48.7607h-48.7607zM438.857143 390.096442h48.7607v48.760701h-48.7607zM438.857143 341.332129h48.7607v48.764313h-48.7607zM438.857143 292.571429h48.7607v48.7607h-48.7607z" fill="#900503" p-id="7054"></path><path d="M438.857143 243.810728h48.7607V292.571429h-48.7607z" fill="#BE0602" p-id="7055"></path><path d="M438.857143 195.046415h48.7607v48.764313h-48.7607z" fill="#E41C00" p-id="7056"></path><path d="M438.857143 146.285714h48.7607v48.760701h-48.7607zM390.096442 828.949973h48.760701v48.764313h-48.760701z" p-id="7057"></path><path d="M390.096442 780.189272h48.760701v48.760701h-48.760701z" fill="#E41C00" p-id="7058"></path><path d="M390.096442 731.428571h48.760701v48.760701h-48.760701z" fill="#BD0502" p-id="7059"></path><path d="M390.096442 682.664258h48.760701v48.764313h-48.760701zM390.096442 633.903558h48.760701v48.7607h-48.760701zM390.096442 585.142857h48.760701v48.760701h-48.760701zM390.096442 536.378544h48.760701v48.764313h-48.760701zM390.096442 487.617843h48.760701v48.760701h-48.760701z" fill="#900503" p-id="7060"></path><path d="M390.096442 438.857143h48.760701v48.7607h-48.760701z" fill="#BD0502" p-id="7061"></path><path d="M390.096442 390.096442h48.760701v48.760701h-48.760701zM390.096442 341.332129h48.760701v48.764313h-48.760701z" fill="#E41C00" p-id="7062"></path><path d="M390.096442 292.571429h48.760701v48.7607h-48.760701z" fill="#900503" p-id="7063"></path><path d="M390.096442 243.810728h48.760701V292.571429h-48.760701zM390.096442 195.046415h48.760701v48.764313h-48.760701z" fill="#BE0602" p-id="7064"></path><path d="M390.096442 146.285714h48.760701v48.760701h-48.760701z" fill="#E41C00" p-id="7065"></path><path d="M390.096442 97.525014h48.760701v48.7607h-48.760701zM341.332129 828.949973h48.764313v48.764313H341.332129z" p-id="7066"></path><path d="M341.332129 780.189272h48.764313v48.760701H341.332129z" fill="#E41C00" p-id="7067"></path><path d="M341.332129 731.428571h48.764313v48.760701H341.332129z" fill="#BD0502" p-id="7068"></path><path d="M341.332129 682.664258h48.764313v48.764313H341.332129zM341.332129 633.903558h48.764313v48.7607H341.332129zM341.332129 585.142857h48.764313v48.760701H341.332129z" fill="#900503" p-id="7069"></path><path d="M341.332129 536.378544h48.764313v48.764313H341.332129z" fill="#BD0502" p-id="7070"></path><path d="M341.332129 487.617843h48.764313v48.760701H341.332129zM341.332129 438.857143h48.764313v48.7607H341.332129zM341.332129 390.096442h48.764313v48.760701H341.332129zM341.332129 341.332129h48.764313v48.764313H341.332129zM341.332129 292.571429h48.764313v48.7607H341.332129z" fill="#900503" p-id="7071"></path><path d="M341.332129 243.810728h48.764313V292.571429H341.332129z" fill="#BD0502" p-id="7072"></path><path d="M341.332129 195.046415h48.764313v48.764313H341.332129z" fill="#BE0602" p-id="7073"></path><path d="M341.332129 146.285714h48.764313v48.760701H341.332129z" fill="#E41C00" p-id="7074"></path><path d="M341.332129 97.525014h48.764313v48.7607H341.332129zM292.571429 780.189272h48.7607v48.760701H292.571429z" p-id="7075"></path><path d="M292.571429 731.428571h48.7607v48.760701H292.571429z" fill="#E41C00" p-id="7076"></path><path d="M292.571429 682.664258h48.7607v48.764313H292.571429z" fill="#BD0502" p-id="7077"></path><path d="M292.571429 633.903558h48.7607v48.7607H292.571429z" fill="#FFFFFF" p-id="7078"></path><path d="M292.571429 585.142857h48.7607v48.760701H292.571429z" fill="#900503" p-id="7079"></path><path d="M292.571429 536.378544h48.7607v48.764313H292.571429z" fill="#BD0502" p-id="7080"></path><path d="M292.571429 487.617843h48.7607v48.760701H292.571429zM292.571429 438.857143h48.7607v48.7607H292.571429z" fill="#900503" p-id="7081"></path><path d="M292.571429 390.096442h48.7607v48.760701H292.571429z" fill="#BD0502" p-id="7082"></path><path d="M292.571429 341.332129h48.7607v48.764313H292.571429z" fill="#E41C00" p-id="7083"></path><path d="M292.571429 292.571429h48.7607v48.7607H292.571429z" fill="#900503" p-id="7084"></path><path d="M292.571429 243.810728h48.7607V292.571429H292.571429z" fill="#BD0502" p-id="7085"></path><path d="M292.571429 195.046415h48.7607v48.764313H292.571429z" fill="#BE0602" p-id="7086"></path><path d="M292.571429 146.285714h48.7607v48.760701H292.571429z" fill="#E41C00" p-id="7087"></path><path d="M292.571429 97.525014h48.7607v48.7607H292.571429zM243.810728 780.189272H292.571429v48.760701H243.810728z" p-id="7088"></path><path d="M243.810728 731.428571H292.571429v48.760701H243.810728z" fill="#E41C00" p-id="7089"></path><path d="M243.810728 682.664258H292.571429v48.764313H243.810728z" fill="#BD0502" p-id="7090"></path><path d="M243.810728 633.903558H292.571429v48.7607H243.810728zM243.810728 585.142857H292.571429v48.760701H243.810728zM243.810728 536.378544H292.571429v48.764313H243.810728z" fill="#900503" p-id="7091"></path><path d="M243.810728 487.617843H292.571429v48.760701H243.810728z" fill="#BD0502" p-id="7092"></path><path d="M243.810728 438.857143H292.571429v48.7607H243.810728zM243.810728 390.096442H292.571429v48.760701H243.810728z" fill="#900503" p-id="7093"></path><path d="M243.810728 341.332129H292.571429v48.764313H243.810728z" fill="#E41C00" p-id="7094"></path><path d="M243.810728 292.571429H292.571429v48.7607H243.810728z" fill="#900503" p-id="7095"></path><path d="M243.810728 243.810728H292.571429V292.571429H243.810728z" fill="#BD0502" p-id="7096"></path><path d="M243.810728 195.046415H292.571429v48.764313H243.810728z" fill="#BE0602" p-id="7097"></path><path d="M243.810728 146.285714H292.571429v48.760701H243.810728z" fill="#E41C00" p-id="7098"></path><path d="M243.810728 97.525014H292.571429v48.7607H243.810728zM195.046415 731.428571h48.764313v48.760701H195.046415z" p-id="7099"></path><path d="M195.046415 682.664258h48.764313v48.764313H195.046415z" fill="#E41C00" p-id="7100"></path><path d="M195.046415 633.903558h48.764313v48.7607H195.046415zM195.046415 585.142857h48.764313v48.760701H195.046415z" fill="#BD0502" p-id="7101"></path><path d="M195.046415 536.378544h48.764313v48.764313H195.046415zM195.046415 487.617843h48.764313v48.760701H195.046415zM195.046415 438.857143h48.764313v48.7607H195.046415z" fill="#900503" p-id="7102"></path><path d="M195.046415 390.096442h48.764313v48.760701H195.046415zM195.046415 341.332129h48.764313v48.764313H195.046415z" fill="#E41C00" p-id="7103"></path><path d="M195.046415 292.571429h48.764313v48.7607H195.046415z" fill="#900503" p-id="7104"></path><path d="M195.046415 243.810728h48.764313V292.571429H195.046415z" fill="#BD0502" p-id="7105"></path><path d="M195.046415 195.046415h48.764313v48.764313H195.046415z" fill="#BE0602" p-id="7106"></path><path d="M195.046415 146.285714h48.764313v48.760701H195.046415z" fill="#E41C00" p-id="7107"></path><path d="M195.046415 97.525014h48.764313v48.7607H195.046415zM146.285714 682.664258h48.760701v48.764313H146.285714z" p-id="7108"></path><path d="M146.285714 633.903558h48.760701v48.7607H146.285714zM146.285714 585.142857h48.760701v48.760701H146.285714z" fill="#E41C00" p-id="7109"></path><path d="M146.285714 536.378544h48.760701v48.764313H146.285714z" fill="#BD0502" p-id="7110"></path><path d="M146.285714 487.617843h48.760701v48.760701H146.285714zM146.285714 438.857143h48.760701v48.7607H146.285714z" fill="#900503" p-id="7111"></path><path d="M146.285714 390.096442h48.760701v48.760701H146.285714zM146.285714 341.332129h48.760701v48.764313H146.285714zM146.285714 292.571429h48.760701v48.7607H146.285714z" fill="#E41C00" p-id="7112"></path><path d="M146.285714 243.810728h48.760701V292.571429H146.285714z" fill="#BD0502" p-id="7113"></path><path d="M146.285714 195.046415h48.760701v48.764313H146.285714z" fill="#BE0602" p-id="7114"></path><path d="M146.285714 146.285714h48.760701v48.760701H146.285714z" fill="#E41C00" p-id="7115"></path><path d="M146.285714 97.525014h48.760701v48.7607H146.285714zM97.525014 633.903558h48.7607v48.7607H97.525014zM97.525014 585.142857h48.7607v48.760701H97.525014z" p-id="7116"></path><path d="M97.525014 536.378544h48.7607v48.764313H97.525014zM97.525014 487.617843h48.7607v48.760701H97.525014z" fill="#E41C00" p-id="7117"></path><path d="M97.525014 438.857143h48.7607v48.7607H97.525014zM97.525014 390.096442h48.7607v48.760701H97.525014z" fill="#900503" p-id="7118"></path><path d="M97.525014 341.332129h48.7607v48.764313H97.525014zM97.525014 292.571429h48.7607v48.7607H97.525014zM97.525014 243.810728h48.7607V292.571429H97.525014zM97.525014 195.046415h48.7607v48.764313H97.525014z" fill="#E41C00" p-id="7119"></path><path d="M97.525014 146.285714h48.7607v48.760701H97.525014zM48.760701 536.378544h48.764313v48.764313H48.760701zM48.760701 487.617843h48.764313v48.760701H48.760701z" p-id="7120"></path><path d="M48.760701 438.857143h48.764313v48.7607H48.760701zM48.760701 390.096442h48.764313v48.760701H48.760701zM48.760701 341.332129h48.764313v48.764313H48.760701zM48.760701 292.571429h48.764313v48.7607H48.760701zM48.760701 243.810728h48.764313V292.571429H48.760701z" fill="#E41C00" p-id="7121"></path><path d="M48.760701 195.046415h48.764313v48.764313H48.760701zM0 438.857143h48.760701v48.7607H0zM0 390.096442h48.760701v48.760701H0zM0 341.332129h48.760701v48.764313H0zM0 292.571429h48.760701v48.7607H0zM0 243.810728h48.760701V292.571429H0z" p-id="7122"></path></svg>