<?xml version="1.0" standalone="no"?><!DOCTYPE svg PUBLIC "-//W3C//DTD SVG 1.1//EN" "http://www.w3.org/Graphics/SVG/1.1/DTD/svg11.dtd"><svg t="1683859987619" class="icon" viewBox="0 0 1024 1024" version="1.1" xmlns="http://www.w3.org/2000/svg" p-id="7455" xmlns:xlink="http://www.w3.org/1999/xlink" width="200" height="200"><path d="M877.652874 975.235687h48.782376v48.764313h-48.782376zM877.652874 926.474986h48.782376v48.760701h-48.782376zM828.870499 975.235687h48.782375v48.764313h-48.782375z" p-id="7456"></path><path d="M828.870499 926.474986h48.782375v48.760701h-48.782375z" fill="#02A796" p-id="7457"></path><path d="M828.870499 877.714286h48.782375v48.7607h-48.782375z" p-id="7458"></path><path d="M731.305749 682.664258h48.782375v48.764313h-48.782375zM731.305749 633.903558h48.782375v48.7607h-48.782375zM731.305749 585.142857h48.782375v48.760701h-48.782375zM731.305749 731.428571h48.782375v48.760701h-48.782375z" fill="#EAD5B6" p-id="7459"></path><path d="M731.305749 780.189272h48.782375v48.760701h-48.782375z" p-id="7460"></path><path d="M682.523373 682.664258h48.782376v48.764313h-48.782376zM682.523373 536.378544h48.782376v48.764313h-48.782376zM682.523373 633.903558h48.782376v48.7607h-48.782376zM682.523373 585.142857h48.782376v48.760701h-48.782376zM682.523373 731.428571h48.782376v48.760701h-48.782376zM682.523373 780.189272h48.782376v48.760701h-48.782376zM633.740998 585.142857h48.782375v48.760701h-48.782375zM633.740998 536.378544h48.782375v48.764313h-48.782375zM633.740998 731.428571h48.782375v48.760701h-48.782375zM633.740998 682.664258h48.782375v48.764313h-48.782375zM633.740998 780.189272h48.782375v48.760701h-48.782375zM633.740998 633.903558h48.782375v48.7607h-48.782375zM389.829122 585.142857h48.782375v48.760701h-48.782375z" fill="#EAD5B6" p-id="7461"></path><path d="M389.829122 877.714286h48.782375v48.7607h-48.782375z" p-id="7462"></path><path d="M389.829122 780.189272h48.782375v48.760701h-48.782375zM389.829122 633.903558h48.782375v48.7607h-48.782375zM389.829122 682.664258h48.782375v48.764313h-48.782375zM389.829122 731.428571h48.782375v48.760701h-48.782375z" fill="#EAD5B6" p-id="7463"></path><path d="M438.611497 731.428571h48.782375v48.760701h-48.782375zM438.611497 926.474986h48.782375v48.760701h-48.782375zM438.611497 633.903558h48.782375v48.7607h-48.782375zM438.611497 877.714286h48.782375v48.7607h-48.782375zM438.611497 682.664258h48.782375v48.764313h-48.782375zM438.611497 828.949973h48.782375v48.764313h-48.782375zM438.611497 585.142857h48.782375v48.760701h-48.782375zM438.611497 780.189272h48.782375v48.760701h-48.782375zM536.176248 682.664258h48.782375v48.764313h-48.782375zM536.176248 828.949973h48.782375v48.764313h-48.782375z" fill="#814E23" p-id="7464"></path><path d="M584.958623 780.189272h48.782375v48.760701h-48.782375z" p-id="7465"></path><path d="M584.958623 731.428571h48.782375v48.760701h-48.782375z" fill="#FFFFFF" p-id="7466"></path><path d="M536.176248 780.189272h48.782375v48.760701h-48.782375zM536.176248 731.428571h48.782375v48.760701h-48.782375zM536.176248 926.474986h48.782375v48.760701h-48.782375zM536.176248 877.714286h48.782375v48.7607h-48.782375zM584.958623 682.664258h48.782375v48.764313h-48.782375zM584.958623 585.142857h48.782375v48.760701h-48.782375zM536.176248 585.142857h48.782375v48.760701h-48.782375zM584.958623 633.903558h48.782375v48.7607h-48.782375zM536.176248 633.903558h48.782375v48.7607h-48.782375zM487.393872 877.714286h48.782376v48.7607h-48.782376zM487.393872 633.903558h48.782376v48.7607h-48.782376zM487.393872 828.949973h48.782376v48.764313h-48.782376zM487.393872 926.474986h48.782376v48.760701h-48.782376zM487.393872 780.189272h48.782376v48.760701h-48.782376zM487.393872 682.664258h48.782376v48.764313h-48.782376zM487.393872 585.142857h48.782376v48.760701h-48.782376zM487.393872 731.428571h48.782376v48.760701h-48.782376z" fill="#814E23" p-id="7467"></path><path d="M341.046747 780.189272h48.782375v48.760701H341.046747zM292.264371 780.189272h48.782376v48.760701H292.264371zM243.481996 780.189272h48.782375v48.760701H243.481996z" fill="#EBD6B7" p-id="7468"></path><path d="M341.046747 731.428571h48.782375v48.760701H341.046747z" fill="#8AC6F8" p-id="7469"></path><path d="M292.264371 731.428571h48.782376v48.760701H292.264371z" fill="#814E23" p-id="7470"></path><path d="M243.481996 731.428571h48.782375v48.760701H243.481996zM341.046747 536.378544h48.782375v48.764313H341.046747z" fill="#8AC6F8" p-id="7471"></path><path d="M292.264371 536.378544h48.782376v48.764313H292.264371z" fill="#814E23" p-id="7472"></path><path d="M243.481996 536.378544h48.782375v48.764313H243.481996z" fill="#8AC6F8" p-id="7473"></path><path d="M487.393872 438.857143h48.782376v48.7607h-48.782376zM536.176248 438.857143h48.782375v48.7607h-48.782375zM438.611497 438.857143h48.782375v48.7607h-48.782375zM389.829122 438.857143h48.782375v48.7607h-48.782375zM536.176248 341.332129h48.782375v48.764313h-48.782375zM487.393872 341.332129h48.782376v48.764313h-48.782376zM487.393872 390.096442h48.782376v48.760701h-48.782376zM536.176248 390.096442h48.782375v48.760701h-48.782375zM389.829122 390.096442h48.782375v48.760701h-48.782375zM438.611497 390.096442h48.782375v48.760701h-48.782375z" fill="#EBD6B7" p-id="7474"></path><path d="M341.046747 682.664258h48.782375v48.764313H341.046747z" fill="#8AC6F8" p-id="7475"></path><path d="M341.046747 633.903558h48.782375v48.7607H341.046747z" fill="#814E23" p-id="7476"></path><path d="M341.046747 585.142857h48.782375v48.760701H341.046747z" fill="#FFFFFF" p-id="7477"></path><path d="M243.481996 585.142857h48.782375v48.760701H243.481996z" fill="#8AC6F8" p-id="7478"></path><path d="M292.264371 682.664258h48.782376v48.764313H292.264371zM292.264371 633.903558h48.782376v48.7607H292.264371zM292.264371 585.142857h48.782376v48.760701H292.264371zM243.481996 633.903558h48.782375v48.7607H243.481996z" fill="#814E23" p-id="7479"></path><path d="M243.481996 682.664258h48.782375v48.764313H243.481996z" fill="#8AC6F8" p-id="7480"></path><path d="M731.305749 877.714286h48.782375v48.7607h-48.782375zM682.523373 926.474986h48.782376v48.760701h-48.782376zM731.305749 926.474986h48.782375v48.760701h-48.782375zM633.740998 926.474986h48.782375v48.760701h-48.782375z" fill="#02A796" p-id="7481"></path><path d="M584.958623 926.474986h48.782375v48.760701h-48.782375z" fill="#814E23" p-id="7482"></path><path d="M389.829122 926.474986h48.782375v48.760701h-48.782375zM341.046747 877.714286h48.782375v48.7607H341.046747zM243.481996 877.714286h48.782375v48.7607H243.481996zM292.264371 877.714286h48.782376v48.7607H292.264371zM341.046747 926.474986h48.782375v48.760701H341.046747zM292.264371 926.474986h48.782376v48.760701H292.264371zM243.481996 926.474986h48.782375v48.760701H243.481996zM194.699621 926.474986h48.782375v48.760701H194.699621zM97.13487 926.474986h48.782376v48.760701H97.13487zM145.917246 926.474986h48.782375v48.760701H145.917246zM194.699621 877.714286h48.782375v48.7607H194.699621zM97.13487 877.714286h48.782376v48.7607H97.13487zM145.917246 877.714286h48.782375v48.7607H145.917246zM194.699621 828.949973h48.782375v48.764313H194.699621zM145.917246 828.949973h48.782375v48.764313H145.917246zM682.523373 877.714286h48.782376v48.7607h-48.782376z" fill="#02A796" p-id="7483"></path><path d="M633.740998 877.714286h48.782375v48.7607h-48.782375z" p-id="7484"></path><path d="M584.958623 877.714286h48.782375v48.7607h-48.782375z" fill="#814E23" p-id="7485"></path><path d="M682.523373 828.949973h48.782376v48.764313h-48.782376z" p-id="7486"></path><path d="M731.305749 828.949973h48.782375v48.764313h-48.782375z" fill="#02A796" p-id="7487"></path><path d="M633.740998 828.949973h48.782375v48.764313h-48.782375z" fill="#EAD5B6" p-id="7488"></path><path d="M584.958623 828.949973h48.782375v48.764313h-48.782375z" fill="#814E23" p-id="7489"></path><path d="M341.046747 828.949973h48.782375v48.764313H341.046747z" p-id="7490"></path><path d="M389.829122 828.949973h48.782375v48.764313h-48.782375z" fill="#EAD5B6" p-id="7491"></path><path d="M243.481996 828.949973h48.782375v48.764313H243.481996zM292.264371 828.949973h48.782376v48.764313H292.264371z" p-id="7492"></path><path d="M194.699621 682.664258h48.782375v48.764313H194.699621z" fill="#EBD6B7" p-id="7493"></path><path d="M194.699621 780.189272h48.782375v48.760701H194.699621z" p-id="7494"></path><path d="M194.699621 731.428571h48.782375v48.760701H194.699621zM194.699621 585.142857h48.782375v48.760701H194.699621zM194.699621 633.903558h48.782375v48.7607H194.699621zM731.305749 536.378544h48.782375v48.764313h-48.782375z" fill="#EBD6B7" p-id="7495"></path><path d="M536.176248 536.378544h48.782375v48.764313h-48.782375z" fill="#814E23" p-id="7496"></path><path d="M584.958623 536.378544h48.782375v48.764313h-48.782375zM438.611497 536.378544h48.782375v48.764313h-48.782375z" fill="#EBD6B7" p-id="7497"></path><path d="M487.393872 536.378544h48.782376v48.764313h-48.782376z" fill="#814E23" p-id="7498"></path><path d="M389.829122 536.378544h48.782375v48.764313h-48.782375zM194.699621 536.378544h48.782375v48.764313H194.699621zM731.305749 487.617843h48.782375v48.760701h-48.782375zM633.740998 487.617843h48.782375v48.760701h-48.782375zM682.523373 487.617843h48.782376v48.760701h-48.782376zM487.393872 487.617843h48.782376v48.760701h-48.782376zM584.958623 487.617843h48.782375v48.760701h-48.782375zM536.176248 487.617843h48.782375v48.760701h-48.782375zM341.046747 487.617843h48.782375v48.760701H341.046747zM438.611497 487.617843h48.782375v48.760701h-48.782375zM389.829122 487.617843h48.782375v48.760701h-48.782375zM292.264371 487.617843h48.782376v48.760701H292.264371zM243.481996 487.617843h48.782375v48.760701H243.481996zM194.699621 487.617843h48.782375v48.760701H194.699621zM682.523373 438.857143h48.782376v48.7607h-48.782376z" fill="#EBD6B7" p-id="7499"></path><path d="M731.305749 438.857143h48.782375v48.7607h-48.782375z" p-id="7500"></path><path d="M633.740998 438.857143h48.782375v48.7607h-48.782375zM584.958623 438.857143h48.782375v48.7607h-48.782375z" fill="#EBD6B7" p-id="7501"></path><path d="M682.523373 390.096442h48.782376v48.760701h-48.782376z" p-id="7502"></path><path d="M633.740998 390.096442h48.782375v48.760701h-48.782375zM584.958623 390.096442h48.782375v48.760701h-48.782375zM584.958623 341.332129h48.782375v48.764313h-48.782375z" fill="#EBD6B7" p-id="7503"></path><path d="M633.740998 341.332129h48.782375v48.764313h-48.782375z" p-id="7504"></path><path d="M438.611497 341.332129h48.782375v48.764313h-48.782375z" fill="#EBD6B7" p-id="7505"></path><path d="M584.958623 292.571429h48.782375v48.7607h-48.782375z" p-id="7506"></path><path d="M536.176248 292.571429h48.782375v48.7607h-48.782375zM438.611497 292.571429h48.782375v48.7607h-48.782375zM487.393872 292.571429h48.782376v48.7607h-48.782376z" fill="#EBD6B7" p-id="7507"></path><path d="M536.176248 243.810728h48.782375V292.571429h-48.782375zM438.611497 243.810728h48.782375V292.571429h-48.782375zM487.393872 243.810728h48.782376V292.571429h-48.782376zM389.829122 292.571429h48.782375v48.7607h-48.782375zM341.046747 292.571429h48.782375v48.7607H341.046747z" p-id="7508"></path><path d="M389.829122 341.332129h48.782375v48.764313h-48.782375z" fill="#EBD6B7" p-id="7509"></path><path d="M341.046747 341.332129h48.782375v48.764313H341.046747z" p-id="7510"></path><path d="M243.481996 390.096442h48.782375v48.760701H243.481996z" fill="#FFFFFF" p-id="7511"></path><path d="M341.046747 390.096442h48.782375v48.760701H341.046747z" fill="#EBD6B7" p-id="7512"></path><path d="M292.264371 390.096442h48.782376v48.760701H292.264371z" p-id="7513"></path><path d="M341.046747 438.857143h48.782375v48.7607H341.046747z" fill="#EBD6B7" p-id="7514"></path><path d="M243.481996 438.857143h48.782375v48.7607H243.481996z" p-id="7515"></path><path d="M292.264371 438.857143h48.782376v48.7607H292.264371z" fill="#FFFFFF" p-id="7516"></path><path d="M194.699621 438.857143h48.782375v48.7607H194.699621zM877.652874 390.096442h48.782376v48.760701h-48.782376zM877.652874 341.332129h48.782376v48.764313h-48.782376zM828.870499 438.857143h48.782375v48.7607h-48.782375z" p-id="7517"></path><path d="M828.870499 390.096442h48.782375v48.760701h-48.782375z" fill="#CB453C" p-id="7518"></path><path d="M828.870499 341.332129h48.782375v48.764313h-48.782375zM780.088124 975.235687h48.782375v48.764313h-48.782375zM780.088124 926.474986h48.782375v48.760701h-48.782375z" p-id="7519"></path><path d="M780.088124 877.714286h48.782375v48.7607h-48.782375z" fill="#02A796" p-id="7520"></path><path d="M780.088124 828.949973h48.782375v48.764313h-48.782375zM780.088124 780.189272h48.782375v48.760701h-48.782375zM780.088124 731.428571h48.782375v48.760701h-48.782375zM780.088124 682.664258h48.782375v48.764313h-48.782375zM780.088124 633.903558h48.782375v48.7607h-48.782375zM780.088124 585.142857h48.782375v48.760701h-48.782375zM780.088124 536.378544h48.782375v48.764313h-48.782375zM780.088124 487.617843h48.782375v48.760701h-48.782375zM780.088124 438.857143h48.782375v48.7607h-48.782375z" p-id="7521"></path><path d="M780.088124 390.096442h48.782375v48.760701h-48.782375zM780.088124 341.332129h48.782375v48.764313h-48.782375z" fill="#CB453C" p-id="7522"></path><path d="M780.088124 292.571429h48.782375v48.7607h-48.782375zM731.305749 975.235687h48.782375v48.764313h-48.782375z" p-id="7523"></path><path d="M731.305749 390.096442h48.782375v48.760701h-48.782375zM731.305749 341.332129h48.782375v48.764313h-48.782375zM731.305749 292.571429h48.782375v48.7607h-48.782375z" fill="#CB453C" p-id="7524"></path><path d="M731.305749 243.810728h48.782375V292.571429h-48.782375zM682.523373 975.235687h48.782376v48.764313h-48.782376z" p-id="7525"></path><path d="M682.523373 341.332129h48.782376v48.764313h-48.782376zM682.523373 292.571429h48.782376v48.7607h-48.782376zM682.523373 243.810728h48.782376V292.571429h-48.782376z" fill="#CB453C" p-id="7526"></path><path d="M682.523373 195.046415h48.782376v48.764313h-48.782376zM633.740998 975.235687h48.782375v48.764313h-48.782375z" p-id="7527"></path><path d="M633.740998 292.571429h48.782375v48.7607h-48.782375zM633.740998 243.810728h48.782375V292.571429h-48.782375zM633.740998 195.046415h48.782375v48.764313h-48.782375z" fill="#CB453C" p-id="7528"></path><path d="M633.740998 146.285714h48.782375v48.760701h-48.782375zM584.958623 975.235687h48.782375v48.764313h-48.782375z" p-id="7529"></path><path d="M584.958623 243.810728h48.782375V292.571429h-48.782375zM584.958623 195.046415h48.782375v48.764313h-48.782375zM584.958623 146.285714h48.782375v48.760701h-48.782375z" fill="#CB453C" p-id="7530"></path><path d="M584.958623 97.525014h48.782375v48.7607h-48.782375zM536.176248 975.235687h48.782375v48.764313h-48.782375z" p-id="7531"></path><path d="M536.176248 195.046415h48.782375v48.764313h-48.782375zM536.176248 146.285714h48.782375v48.760701h-48.782375z" fill="#CB453C" p-id="7532"></path><path d="M536.176248 97.525014h48.782375v48.7607h-48.782375z" fill="#CB453C" p-id="7533"></path><path d="M536.176248 48.760701h48.782375v48.764313h-48.782375zM487.393872 975.235687h48.782376v48.764313h-48.782376z" p-id="7534"></path><path d="M487.393872 195.046415h48.782376v48.764313h-48.782376zM487.393872 146.285714h48.782376v48.760701h-48.782376z" fill="#CB453C" p-id="7535"></path><path d="M487.393872 97.525014h48.782376v48.7607h-48.782376zM487.393872 48.760701h48.782376v48.764313h-48.782376z" fill="#CB453C" p-id="7536"></path><path d="M487.393872 0h48.782376v48.760701h-48.782376zM438.611497 975.235687h48.782375v48.764313h-48.782375z" p-id="7537"></path><path d="M438.611497 195.046415h48.782375v48.764313h-48.782375zM438.611497 146.285714h48.782375v48.760701h-48.782375z" fill="#CB453C" p-id="7538"></path><path d="M438.611497 97.525014h48.782375v48.7607h-48.782375zM438.611497 48.760701h48.782375v48.764313h-48.782375z" fill="#CB453C" p-id="7539"></path><path d="M438.611497 0h48.782375v48.760701h-48.782375zM389.829122 975.235687h48.782375v48.764313h-48.782375z" p-id="7540"></path><path d="M389.829122 243.810728h48.782375V292.571429h-48.782375zM389.829122 195.046415h48.782375v48.764313h-48.782375zM389.829122 146.285714h48.782375v48.760701h-48.782375z" fill="#CB453C" p-id="7541"></path><path d="M389.829122 97.525014h48.782375v48.7607h-48.782375z" fill="#CB453C" p-id="7542"></path><path d="M389.829122 48.760701h48.782375v48.764313h-48.782375zM341.046747 975.235687h48.782375v48.764313H341.046747z" p-id="7543"></path><path d="M341.046747 243.810728h48.782375V292.571429H341.046747zM341.046747 195.046415h48.782375v48.764313H341.046747zM341.046747 146.285714h48.782375v48.760701H341.046747z" fill="#CB453C" p-id="7544"></path><path d="M341.046747 97.525014h48.782375v48.7607H341.046747z" p-id="7545"></path><path d="M341.046747 48.760701h48.782375v48.764313H341.046747z" fill="#CB453C" p-id="7546"></path><path d="M341.046747 0h48.782375v48.760701H341.046747zM292.264371 975.235687h48.782376v48.764313H292.264371z" p-id="7547"></path><path d="M292.264371 341.332129h48.782376v48.764313H292.264371zM292.264371 292.571429h48.782376v48.7607H292.264371zM292.264371 243.810728h48.782376V292.571429H292.264371zM292.264371 195.046415h48.782376v48.764313H292.264371zM292.264371 146.285714h48.782376v48.760701H292.264371z" fill="#CB453C" p-id="7548"></path><path d="M292.264371 97.525014h48.782376v48.7607H292.264371zM292.264371 48.760701h48.782376v48.764313H292.264371z" fill="#CB453C" p-id="7549"></path><path d="M292.264371 0h48.782376v48.760701H292.264371zM243.481996 975.235687h48.782375v48.764313H243.481996z" p-id="7550"></path><path d="M243.481996 341.332129h48.782375v48.764313H243.481996zM243.481996 292.571429h48.782375v48.7607H243.481996zM243.481996 243.810728h48.782375V292.571429H243.481996zM243.481996 195.046415h48.782375v48.764313H243.481996zM243.481996 146.285714h48.782375v48.760701H243.481996z" fill="#CB453C" p-id="7551"></path><path d="M243.481996 97.525014h48.782375v48.7607H243.481996zM243.481996 48.760701h48.782375v48.764313H243.481996z" fill="#CB453C" p-id="7552"></path><path d="M243.481996 0h48.782375v48.760701H243.481996zM194.699621 975.235687h48.782375v48.764313H194.699621z" p-id="7553"></path><path d="M194.699621 390.096442h48.782375v48.760701H194.699621zM194.699621 341.332129h48.782375v48.764313H194.699621zM194.699621 292.571429h48.782375v48.7607H194.699621zM194.699621 243.810728h48.782375V292.571429H194.699621z" fill="#CB453C" p-id="7554"></path><path d="M194.699621 195.046415h48.782375v48.764313H194.699621zM194.699621 146.285714h48.782375v48.760701H194.699621z" p-id="7555"></path><path d="M194.699621 97.525014h48.782375v48.7607H194.699621z" p-id="7556"></path><path d="M194.699621 48.760701h48.782375v48.764313H194.699621z" fill="#CB453C" p-id="7557"></path><path d="M194.699621 0h48.782375v48.760701H194.699621zM145.917246 975.235687h48.782375v48.764313H145.917246zM145.917246 780.189272h48.782375v48.760701H145.917246zM145.917246 731.428571h48.782375v48.760701H145.917246zM145.917246 682.664258h48.782375v48.764313H145.917246zM145.917246 633.903558h48.782375v48.7607H145.917246zM145.917246 585.142857h48.782375v48.760701H145.917246zM145.917246 536.378544h48.782375v48.764313H145.917246zM145.917246 487.617843h48.782375v48.760701H145.917246zM145.917246 438.857143h48.782375v48.7607H145.917246z" p-id="7558"></path><path d="M145.917246 390.096442h48.782375v48.760701H145.917246zM145.917246 341.332129h48.782375v48.764313H145.917246zM145.917246 292.571429h48.782375v48.7607H145.917246z" fill="#CB453C" p-id="7559"></path><path d="M145.917246 243.810728h48.782375V292.571429H145.917246zM145.917246 48.760701h48.782375v48.764313H145.917246zM97.13487 975.235687h48.782376v48.764313H97.13487zM97.13487 828.949973h48.782376v48.764313H97.13487zM97.13487 390.096442h48.782376v48.760701H97.13487zM97.13487 341.332129h48.782376v48.764313H97.13487zM97.13487 292.571429h48.782376v48.7607H97.13487zM48.352495 926.474986h48.782375v48.760701H48.352495zM48.352495 877.714286h48.782375v48.7607H48.352495z" p-id="7560"></path></svg>