<?xml version="1.0" standalone="no"?><!DOCTYPE svg PUBLIC "-//W3C//DTD SVG 1.1//EN" "http://www.w3.org/Graphics/SVG/1.1/DTD/svg11.dtd"><svg t="1683859705042" class="icon" viewBox="0 0 1024 1024" version="1.1" xmlns="http://www.w3.org/2000/svg" p-id="4837" xmlns:xlink="http://www.w3.org/1999/xlink" width="200" height="200"><path d="M975.235687 731.428571h48.764313v48.760701h-48.764313zM975.235687 682.664258h48.764313v48.764313h-48.764313zM975.235687 633.903558h48.764313v48.7607h-48.764313zM975.235687 585.142857h48.764313v48.760701h-48.764313zM975.235687 536.378544h48.764313v48.764313h-48.764313zM975.235687 487.617843h48.764313v48.760701h-48.764313zM975.235687 438.857143h48.764313v48.7607h-48.764313zM975.235687 390.096442h48.764313v48.760701h-48.764313zM926.474986 780.189272h48.760701v48.760701h-48.760701z" fill="#09111F" p-id="4838"></path><path d="M926.474986 731.428571h48.760701v48.760701h-48.760701zM926.474986 682.664258h48.760701v48.764313h-48.760701zM926.474986 633.903558h48.760701v48.7607h-48.760701zM926.474986 585.142857h48.760701v48.760701h-48.760701zM926.474986 536.378544h48.760701v48.764313h-48.760701zM926.474986 487.617843h48.760701v48.760701h-48.760701zM926.474986 438.857143h48.760701v48.7607h-48.760701z" fill="#5C7EBF" p-id="4839"></path><path d="M926.474986 390.096442h48.760701v48.760701h-48.760701z" fill="#FFFFFF" p-id="4840"></path><path d="M926.474986 341.332129h48.760701v48.764313h-48.760701zM926.474986 292.571429h48.760701v48.7607h-48.760701zM877.714286 828.949973h48.7607v48.764313H877.714286z" fill="#09111F" p-id="4841"></path><path d="M877.714286 780.189272h48.7607v48.760701H877.714286zM877.714286 731.428571h48.7607v48.760701H877.714286z" fill="#454853" p-id="4842"></path><path d="M877.714286 682.664258h48.7607v48.764313H877.714286zM877.714286 633.903558h48.7607v48.7607H877.714286z" fill="#5C7EBF" p-id="4843"></path><path d="M877.714286 585.142857h48.7607v48.760701H877.714286zM877.714286 536.378544h48.7607v48.764313H877.714286zM877.714286 487.617843h48.7607v48.760701H877.714286z" fill="#BFC4D9" p-id="4844"></path><path d="M877.714286 438.857143h48.7607v48.7607H877.714286z" fill="#939299" p-id="4845"></path><path d="M877.714286 390.096442h48.7607v48.760701H877.714286z" fill="#BFC4D9" p-id="4846"></path><path d="M877.714286 341.332129h48.7607v48.764313H877.714286zM877.714286 292.571429h48.7607v48.7607H877.714286z" fill="#454853" p-id="4847"></path><path d="M877.714286 243.810728h48.7607V292.571429H877.714286zM877.714286 195.046415h48.7607v48.764313H877.714286zM828.949973 780.189272h48.764313v48.760701h-48.764313z" fill="#09111F" p-id="4848"></path><path d="M828.949973 731.428571h48.764313v48.760701h-48.764313z" fill="#454853" p-id="4849"></path><path d="M828.949973 682.664258h48.764313v48.764313h-48.764313zM828.949973 633.903558h48.764313v48.7607h-48.764313zM828.949973 585.142857h48.764313v48.760701h-48.764313zM828.949973 536.378544h48.764313v48.764313h-48.764313z" fill="#BFC4D9" p-id="4850"></path><path d="M828.949973 487.617843h48.764313v48.760701h-48.764313z" fill="#939299" p-id="4851"></path><path d="M828.949973 438.857143h48.764313v48.7607h-48.764313z" fill="#0974EB" p-id="4852"></path><path d="M828.949973 390.096442h48.764313v48.760701h-48.764313z" fill="#939299" p-id="4853"></path><path d="M828.949973 341.332129h48.764313v48.764313h-48.764313z" fill="#BFC4D9" p-id="4854"></path><path d="M828.949973 292.571429h48.764313v48.7607h-48.764313z" fill="#454853" p-id="4855"></path><path d="M828.949973 243.810728h48.764313V292.571429h-48.764313zM828.949973 195.046415h48.764313v48.764313h-48.764313zM780.189272 780.189272h48.760701v48.760701h-48.760701z" fill="#09111F" p-id="4856"></path><path d="M780.189272 731.428571h48.760701v48.760701h-48.760701z" fill="#454853" p-id="4857"></path><path d="M780.189272 682.664258h48.760701v48.764313h-48.760701z" fill="#BFC4D9" p-id="4858"></path><path d="M780.189272 633.903558h48.760701v48.7607h-48.760701z" fill="#FFFFFF" p-id="4859"></path><path d="M780.189272 585.142857h48.760701v48.760701h-48.760701z" fill="#BFC4D9" p-id="4860"></path><path d="M780.189272 536.378544h48.760701v48.764313h-48.760701z" fill="#939299" p-id="4861"></path><path d="M780.189272 487.617843h48.760701v48.760701h-48.760701z" fill="#D81515" p-id="4862"></path><path d="M780.189272 438.857143h48.760701v48.7607h-48.760701z" fill="#0974EB" p-id="4863"></path><path d="M780.189272 390.096442h48.760701v48.760701h-48.760701z" fill="#EAB603" p-id="4864"></path><path d="M780.189272 341.332129h48.760701v48.764313h-48.760701z" fill="#939299" p-id="4865"></path><path d="M780.189272 292.571429h48.760701v48.7607h-48.760701zM780.189272 243.810728h48.760701V292.571429h-48.760701z" fill="#454853" p-id="4866"></path><path d="M780.189272 195.046415h48.760701v48.764313h-48.760701zM731.428571 731.428571h48.760701v48.760701h-48.760701z" fill="#09111F" p-id="4867"></path><path d="M731.428571 682.664258h48.760701v48.764313h-48.760701z" fill="#454853" p-id="4868"></path><path d="M731.428571 633.903558h48.760701v48.7607h-48.760701z" fill="#BFC4D9" p-id="4869"></path><path d="M731.428571 585.142857h48.760701v48.760701h-48.760701z" fill="#FFFFFF" p-id="4870"></path><path d="M731.428571 536.378544h48.760701v48.764313h-48.760701z" fill="#939299" p-id="4871"></path><path d="M731.428571 487.617843h48.760701v48.760701h-48.760701z" fill="#D81515" p-id="4872"></path><path d="M731.428571 438.857143h48.760701v48.7607h-48.760701z" fill="#24BF1D" p-id="4873"></path><path d="M731.428571 390.096442h48.760701v48.760701h-48.760701z" fill="#EAB603" p-id="4874"></path><path d="M731.428571 341.332129h48.760701v48.764313h-48.760701z" fill="#939299" p-id="4875"></path><path d="M731.428571 292.571429h48.760701v48.7607h-48.760701zM731.428571 243.810728h48.760701V292.571429h-48.760701z" fill="#454853" p-id="4876"></path><path d="M731.428571 195.046415h48.760701v48.764313h-48.760701zM682.664258 731.428571h48.764313v48.760701h-48.764313zM682.664258 682.664258h48.764313v48.764313h-48.764313z" fill="#09111F" p-id="4877"></path><path d="M682.664258 633.903558h48.764313v48.7607h-48.764313zM682.664258 585.142857h48.764313v48.760701h-48.764313zM682.664258 536.378544h48.764313v48.764313h-48.764313z" fill="#BFC4D9" p-id="4878"></path><path d="M682.664258 487.617843h48.764313v48.760701h-48.764313z" fill="#939299" p-id="4879"></path><path d="M682.664258 438.857143h48.764313v48.7607h-48.764313z" fill="#24BF1D" p-id="4880"></path><path d="M682.664258 390.096442h48.764313v48.760701h-48.764313z" fill="#939299" p-id="4881"></path><path d="M682.664258 341.332129h48.764313v48.764313h-48.764313z" fill="#BFC4D9" p-id="4882"></path><path d="M682.664258 292.571429h48.764313v48.7607h-48.764313zM682.664258 243.810728h48.764313V292.571429h-48.764313z" fill="#454853" p-id="4883"></path><path d="M682.664258 195.046415h48.764313v48.764313h-48.764313zM633.903558 780.189272h48.7607v48.760701h-48.7607zM633.903558 731.428571h48.7607v48.760701h-48.7607z" fill="#09111F" p-id="4884"></path><path d="M633.903558 682.664258h48.7607v48.764313h-48.7607z" fill="#BFC4D9" p-id="4885"></path><path d="M633.903558 633.903558h48.7607v48.7607h-48.7607zM633.903558 585.142857h48.7607v48.760701h-48.7607z" fill="#567097" p-id="4886"></path><path d="M633.903558 536.378544h48.7607v48.764313h-48.7607zM633.903558 487.617843h48.7607v48.760701h-48.7607z" fill="#BFC4D9" p-id="4887"></path><path d="M633.903558 438.857143h48.7607v48.7607h-48.7607z" fill="#939299" p-id="4888"></path><path d="M633.903558 390.096442h48.7607v48.760701h-48.7607zM633.903558 341.332129h48.7607v48.764313h-48.7607z" fill="#BFC4D9" p-id="4889"></path><path d="M633.903558 292.571429h48.7607v48.7607h-48.7607z" fill="#454853" p-id="4890"></path><path d="M633.903558 243.810728h48.7607V292.571429h-48.7607zM585.142857 731.428571h48.760701v48.760701H585.142857zM585.142857 682.664258h48.760701v48.764313H585.142857z" fill="#09111F" p-id="4891"></path><path d="M585.142857 633.903558h48.760701v48.7607H585.142857zM585.142857 585.142857h48.760701v48.760701H585.142857z" fill="#567097" p-id="4892"></path><path d="M585.142857 536.378544h48.760701v48.764313H585.142857z" fill="#BFC4D9" p-id="4893"></path><path d="M585.142857 487.617843h48.760701v48.760701H585.142857z" fill="#232B38" p-id="4894"></path><path d="M585.142857 438.857143h48.760701v48.7607H585.142857z" fill="#BFC4D9" p-id="4895"></path><path d="M585.142857 390.096442h48.760701v48.760701H585.142857z" fill="#567097" p-id="4896"></path><path d="M585.142857 341.332129h48.760701v48.764313H585.142857z" fill="#BFC4D9" p-id="4897"></path><path d="M585.142857 292.571429h48.760701v48.7607H585.142857zM536.378544 682.664258h48.764313v48.764313h-48.764313z" fill="#09111F" p-id="4898"></path><path d="M536.378544 633.903558h48.764313v48.7607h-48.764313zM536.378544 585.142857h48.764313v48.760701h-48.764313zM536.378544 536.378544h48.764313v48.764313h-48.764313z" fill="#BFC4D9" p-id="4899"></path><path d="M536.378544 487.617843h48.764313v48.760701h-48.764313z" fill="#232B38" p-id="4900"></path><path d="M536.378544 438.857143h48.764313v48.7607h-48.764313z" fill="#BFC4D9" p-id="4901"></path><path d="M536.378544 390.096442h48.764313v48.760701h-48.764313z" fill="#567097" p-id="4902"></path><path d="M536.378544 341.332129h48.764313v48.764313h-48.764313z" fill="#BFC4D9" p-id="4903"></path><path d="M536.378544 292.571429h48.764313v48.7607h-48.764313zM487.617843 682.664258h48.760701v48.764313h-48.760701z" fill="#09111F" p-id="4904"></path><path d="M487.617843 633.903558h48.760701v48.7607h-48.760701z" fill="#BFC4D9" p-id="4905"></path><path d="M487.617843 585.142857h48.760701v48.760701h-48.760701z" fill="#939299" p-id="4906"></path><path d="M487.617843 536.378544h48.760701v48.764313h-48.760701zM487.617843 487.617843h48.760701v48.760701h-48.760701zM487.617843 438.857143h48.760701v48.7607h-48.760701zM487.617843 390.096442h48.760701v48.760701h-48.760701zM487.617843 341.332129h48.760701v48.764313h-48.760701z" fill="#BFC4D9" p-id="4907"></path><path d="M487.617843 292.571429h48.760701v48.7607h-48.760701zM438.857143 682.664258h48.7607v48.764313h-48.7607z" fill="#09111F" p-id="4908"></path><path d="M438.857143 633.903558h48.7607v48.7607h-48.7607zM438.857143 585.142857h48.7607v48.760701h-48.7607zM438.857143 536.378544h48.7607v48.764313h-48.7607z" fill="#BFC4D9" p-id="4909"></path><path d="M438.857143 487.617843h48.7607v48.760701h-48.7607z" fill="#232B38" p-id="4910"></path><path d="M438.857143 438.857143h48.7607v48.7607h-48.7607z" fill="#BFC4D9" p-id="4911"></path><path d="M438.857143 390.096442h48.7607v48.760701h-48.7607z" fill="#567097" p-id="4912"></path><path d="M438.857143 341.332129h48.7607v48.764313h-48.7607z" fill="#BFC4D9" p-id="4913"></path><path d="M438.857143 292.571429h48.7607v48.7607h-48.7607zM390.096442 731.428571h48.760701v48.760701h-48.760701zM390.096442 682.664258h48.760701v48.764313h-48.760701z" fill="#09111F" p-id="4914"></path><path d="M390.096442 633.903558h48.760701v48.7607h-48.760701zM390.096442 585.142857h48.760701v48.760701h-48.760701zM390.096442 536.378544h48.760701v48.764313h-48.760701z" fill="#BFC4D9" p-id="4915"></path><path d="M390.096442 487.617843h48.760701v48.760701h-48.760701z" fill="#232B38" p-id="4916"></path><path d="M390.096442 438.857143h48.760701v48.7607h-48.760701z" fill="#BFC4D9" p-id="4917"></path><path d="M390.096442 390.096442h48.760701v48.760701h-48.760701z" fill="#567097" p-id="4918"></path><path d="M390.096442 341.332129h48.760701v48.764313h-48.760701z" fill="#BFC4D9" p-id="4919"></path><path d="M390.096442 292.571429h48.760701v48.7607h-48.760701zM341.332129 780.189272h48.764313v48.760701H341.332129zM341.332129 731.428571h48.764313v48.760701H341.332129z" fill="#09111F" p-id="4920"></path><path d="M341.332129 682.664258h48.764313v48.764313H341.332129z" fill="#BFC4D9" p-id="4921"></path><path d="M341.332129 633.903558h48.764313v48.7607H341.332129zM341.332129 585.142857h48.764313v48.760701H341.332129z" fill="#567097" p-id="4922"></path><path d="M341.332129 536.378544h48.764313v48.764313H341.332129zM341.332129 487.617843h48.764313v48.760701H341.332129z" fill="#BFC4D9" p-id="4923"></path><path d="M341.332129 438.857143h48.764313v48.7607H341.332129z" fill="#939299" p-id="4924"></path><path d="M341.332129 390.096442h48.764313v48.760701H341.332129zM341.332129 341.332129h48.764313v48.764313H341.332129z" fill="#BFC4D9" p-id="4925"></path><path d="M341.332129 292.571429h48.764313v48.7607H341.332129z" fill="#454853" p-id="4926"></path><path d="M341.332129 243.810728h48.764313V292.571429H341.332129zM292.571429 731.428571h48.7607v48.760701H292.571429zM292.571429 682.664258h48.7607v48.764313H292.571429z" fill="#09111F" p-id="4927"></path><path d="M292.571429 633.903558h48.7607v48.7607H292.571429zM292.571429 585.142857h48.7607v48.760701H292.571429z" fill="#567097" p-id="4928"></path><path d="M292.571429 536.378544h48.7607v48.764313H292.571429z" fill="#BFC4D9" p-id="4929"></path><path d="M292.571429 487.617843h48.7607v48.760701H292.571429z" fill="#939299" p-id="4930"></path><path d="M292.571429 438.857143h48.7607v48.7607H292.571429z" fill="#232B38" p-id="4931"></path><path d="M292.571429 390.096442h48.7607v48.760701H292.571429z" fill="#939299" p-id="4932"></path><path d="M292.571429 341.332129h48.7607v48.764313H292.571429z" fill="#BFC4D9" p-id="4933"></path><path d="M292.571429 292.571429h48.7607v48.7607H292.571429zM292.571429 243.810728h48.7607V292.571429H292.571429z" fill="#454853" p-id="4934"></path><path d="M292.571429 195.046415h48.7607v48.764313H292.571429zM243.810728 731.428571H292.571429v48.760701H243.810728z" fill="#09111F" p-id="4935"></path><path d="M243.810728 682.664258H292.571429v48.764313H243.810728z" fill="#454853" p-id="4936"></path><path d="M243.810728 633.903558H292.571429v48.7607H243.810728zM243.810728 585.142857H292.571429v48.760701H243.810728z" fill="#BFC4D9" p-id="4937"></path><path d="M243.810728 536.378544H292.571429v48.764313H243.810728z" fill="#939299" p-id="4938"></path><path d="M243.810728 487.617843H292.571429v48.760701H243.810728zM243.810728 438.857143H292.571429v48.7607H243.810728zM243.810728 390.096442H292.571429v48.760701H243.810728z" fill="#232B38" p-id="4939"></path><path d="M243.810728 341.332129H292.571429v48.764313H243.810728z" fill="#939299" p-id="4940"></path><path d="M243.810728 292.571429H292.571429v48.7607H243.810728zM243.810728 243.810728H292.571429V292.571429H243.810728z" fill="#454853" p-id="4941"></path><path d="M243.810728 195.046415H292.571429v48.764313H243.810728zM195.046415 780.189272h48.764313v48.760701H195.046415z" fill="#09111F" p-id="4942"></path><path d="M195.046415 731.428571h48.764313v48.760701H195.046415z" fill="#454853" p-id="4943"></path><path d="M195.046415 682.664258h48.764313v48.764313H195.046415z" fill="#BFC4D9" p-id="4944"></path><path d="M195.046415 633.903558h48.764313v48.7607H195.046415z" fill="#FFFFFF" p-id="4945"></path><path d="M195.046415 585.142857h48.764313v48.760701H195.046415z" fill="#BFC4D9" p-id="4946"></path><path d="M195.046415 536.378544h48.764313v48.764313H195.046415z" fill="#939299" p-id="4947"></path><path d="M195.046415 487.617843h48.764313v48.760701H195.046415zM195.046415 438.857143h48.764313v48.7607H195.046415zM195.046415 390.096442h48.764313v48.760701H195.046415z" fill="#232B38" p-id="4948"></path><path d="M195.046415 341.332129h48.764313v48.764313H195.046415z" fill="#939299" p-id="4949"></path><path d="M195.046415 292.571429h48.764313v48.7607H195.046415zM195.046415 243.810728h48.764313V292.571429H195.046415z" fill="#454853" p-id="4950"></path><path d="M195.046415 195.046415h48.764313v48.764313H195.046415zM146.285714 828.949973h48.760701v48.764313H146.285714z" fill="#09111F" p-id="4951"></path><path d="M146.285714 780.189272h48.760701v48.760701H146.285714zM146.285714 731.428571h48.760701v48.760701H146.285714z" fill="#454853" p-id="4952"></path><path d="M146.285714 682.664258h48.760701v48.764313H146.285714zM146.285714 633.903558h48.760701v48.7607H146.285714z" fill="#BFC4D9" p-id="4953"></path><path d="M146.285714 585.142857h48.760701v48.760701H146.285714z" fill="#FFFFFF" p-id="4954"></path><path d="M146.285714 536.378544h48.760701v48.764313H146.285714z" fill="#BFC4D9" p-id="4955"></path><path d="M146.285714 487.617843h48.760701v48.760701H146.285714z" fill="#939299" p-id="4956"></path><path d="M146.285714 438.857143h48.760701v48.7607H146.285714z" fill="#232B38" p-id="4957"></path><path d="M146.285714 390.096442h48.760701v48.760701H146.285714z" fill="#939299" p-id="4958"></path><path d="M146.285714 341.332129h48.760701v48.764313H146.285714zM146.285714 292.571429h48.760701v48.7607H146.285714z" fill="#454853" p-id="4959"></path><path d="M146.285714 243.810728h48.760701V292.571429H146.285714zM146.285714 195.046415h48.760701v48.764313H146.285714zM97.525014 780.189272h48.7607v48.760701H97.525014z" fill="#09111F" p-id="4960"></path><path d="M97.525014 731.428571h48.7607v48.760701H97.525014z" fill="#454853" p-id="4961"></path><path d="M97.525014 682.664258h48.7607v48.764313H97.525014zM97.525014 633.903558h48.7607v48.7607H97.525014z" fill="#5C7EBF" p-id="4962"></path><path d="M97.525014 585.142857h48.7607v48.760701H97.525014z" fill="#454853" p-id="4963"></path><path d="M97.525014 536.378544h48.7607v48.764313H97.525014z" fill="#FFFFFF" p-id="4964"></path><path d="M97.525014 487.617843h48.7607v48.760701H97.525014z" fill="#BFC4D9" p-id="4965"></path><path d="M97.525014 438.857143h48.7607v48.7607H97.525014z" fill="#939299" p-id="4966"></path><path d="M97.525014 390.096442h48.7607v48.760701H97.525014zM97.525014 341.332129h48.7607v48.764313H97.525014zM97.525014 292.571429h48.7607v48.7607H97.525014z" fill="#454853" p-id="4967"></path><path d="M97.525014 243.810728h48.7607V292.571429H97.525014zM48.760701 780.189272h48.764313v48.760701H48.760701z" fill="#09111F" p-id="4968"></path><path d="M48.760701 731.428571h48.764313v48.760701H48.760701zM48.760701 682.664258h48.764313v48.764313H48.760701zM48.760701 633.903558h48.764313v48.7607H48.760701zM48.760701 585.142857h48.764313v48.760701H48.760701zM48.760701 536.378544h48.764313v48.764313H48.760701zM48.760701 487.617843h48.764313v48.760701H48.760701zM48.760701 438.857143h48.764313v48.7607H48.760701z" fill="#5C7EBF" p-id="4969"></path><path d="M48.760701 390.096442h48.764313v48.760701H48.760701z" fill="#FFFFFF" p-id="4970"></path><path d="M48.760701 341.332129h48.764313v48.764313H48.760701zM48.760701 292.571429h48.764313v48.7607H48.760701zM0 731.428571h48.760701v48.760701H0zM0 682.664258h48.760701v48.764313H0zM0 633.903558h48.760701v48.7607H0zM0 585.142857h48.760701v48.760701H0zM0 536.378544h48.760701v48.764313H0zM0 487.617843h48.760701v48.760701H0zM0 438.857143h48.760701v48.7607H0zM0 390.096442h48.760701v48.760701H0z" fill="#09111F" p-id="4971"></path></svg>