<?xml version="1.0" standalone="no"?><!DOCTYPE svg PUBLIC "-//W3C//DTD SVG 1.1//EN" "http://www.w3.org/Graphics/SVG/1.1/DTD/svg11.dtd"><svg t="1683859941349" class="icon" viewBox="0 0 1024 1024" version="1.1" xmlns="http://www.w3.org/2000/svg" p-id="5916" xmlns:xlink="http://www.w3.org/1999/xlink" width="200" height="200"><path d="M585.142857 877.714286h48.760701v48.7607H585.142857z" fill="#C0C8D5" p-id="5917"></path><path d="M633.903558 877.714286h48.7607v48.7607h-48.7607z" fill="#FFFFFF" p-id="5918"></path><path d="M438.857143 877.714286h48.7607v48.7607h-48.7607zM536.378544 877.714286h48.764313v48.7607h-48.764313zM487.617843 877.714286h48.760701v48.7607h-48.760701z" fill="#C0C8D5" p-id="5919"></path><path d="M341.332129 877.714286h48.764313v48.7607H341.332129z" fill="#939299" p-id="5920"></path><path d="M390.096442 877.714286h48.760701v48.7607h-48.760701z" fill="#4C4F65" p-id="5921"></path><path d="M292.571429 877.714286h48.7607v48.7607H292.571429z" fill="#939299" p-id="5922"></path><path d="M633.903558 780.189272h48.7607v48.760701h-48.7607z" fill="#C0C8D5" p-id="5923"></path><path d="M585.142857 780.189272h48.760701v48.760701H585.142857z" fill="#FFFFFF" p-id="5924"></path><path d="M487.617843 780.189272h48.760701v48.760701h-48.760701zM536.378544 780.189272h48.764313v48.760701h-48.764313zM438.857143 780.189272h48.7607v48.760701h-48.7607z" fill="#C0C8D5" p-id="5925"></path><path d="M292.571429 780.189272h48.7607v48.760701H292.571429zM341.332129 780.189272h48.764313v48.760701H341.332129z" fill="#939299" p-id="5926"></path><path d="M390.096442 780.189272h48.760701v48.760701h-48.760701zM585.142857 926.474986h48.760701v48.760701H585.142857zM487.617843 926.474986h48.760701v48.760701h-48.760701zM536.378544 926.474986h48.764313v48.760701h-48.764313zM438.857143 926.474986h48.7607v48.760701h-48.7607zM390.096442 926.474986h48.760701v48.760701h-48.760701zM341.332129 926.474986h48.764313v48.760701H341.332129zM633.903558 828.949973h48.7607v48.764313h-48.7607zM585.142857 828.949973h48.760701v48.764313H585.142857zM536.378544 828.949973h48.764313v48.764313h-48.764313zM438.857143 828.949973h48.7607v48.764313h-48.7607zM487.617843 828.949973h48.760701v48.764313h-48.760701zM341.332129 828.949973h48.764313v48.764313H341.332129zM292.571429 828.949973h48.7607v48.764313H292.571429zM390.096442 828.949973h48.760701v48.764313h-48.760701zM585.142857 731.428571h48.760701v48.760701H585.142857zM633.903558 731.428571h48.7607v48.760701h-48.7607zM487.617843 731.428571h48.760701v48.760701h-48.760701zM536.378544 731.428571h48.764313v48.760701h-48.764313zM438.857143 731.428571h48.7607v48.760701h-48.7607zM292.571429 731.428571h48.7607v48.760701H292.571429zM341.332129 731.428571h48.764313v48.760701H341.332129zM390.096442 731.428571h48.760701v48.760701h-48.760701z" fill="#4C4F65" p-id="5927"></path><path d="M585.142857 682.664258h48.760701v48.764313H585.142857z" fill="#FFFFFF" p-id="5928"></path><path d="M633.903558 682.664258h48.7607v48.764313h-48.7607z" fill="#C0C8D5" p-id="5929"></path><path d="M536.378544 682.664258h48.764313v48.764313h-48.764313z" fill="#FFFFFF" p-id="5930"></path><path d="M487.617843 682.664258h48.760701v48.764313h-48.760701zM438.857143 682.664258h48.7607v48.764313h-48.7607z" fill="#C0C8D5" p-id="5931"></path><path d="M341.332129 682.664258h48.764313v48.764313H341.332129zM292.571429 682.664258h48.7607v48.764313H292.571429z" fill="#939299" p-id="5932"></path><path d="M390.096442 682.664258h48.760701v48.764313h-48.760701z" fill="#4C4F65" p-id="5933"></path><path d="M292.571429 585.142857h48.7607v48.760701H292.571429zM487.617843 536.378544h48.760701v48.764313h-48.760701zM487.617843 341.332129h48.760701v48.764313h-48.760701zM585.142857 341.332129h48.760701v48.764313H585.142857zM438.857143 390.096442h48.7607v48.760701h-48.7607zM438.857143 341.332129h48.7607v48.764313h-48.7607zM438.857143 292.571429h48.7607v48.7607h-48.7607zM633.903558 146.285714h48.7607v48.760701h-48.7607zM682.664258 243.810728h48.764313V292.571429h-48.764313zM682.664258 195.046415h48.764313v48.764313h-48.764313zM487.617843 195.046415h48.760701v48.764313h-48.760701zM438.857143 97.525014h48.7607v48.7607h-48.7607zM341.332129 536.378544h48.764313v48.764313H341.332129zM292.571429 438.857143h48.7607v48.7607H292.571429zM341.332129 438.857143h48.764313v48.7607H341.332129zM341.332129 487.617843h48.764313v48.760701H341.332129zM195.046415 341.332129h48.764313v48.764313H195.046415zM243.810728 341.332129H292.571429v48.764313H243.810728zM195.046415 292.571429h48.764313v48.7607H195.046415zM195.046415 243.810728h48.764313V292.571429H195.046415zM243.810728 243.810728H292.571429V292.571429H243.810728zM243.810728 390.096442H292.571429v48.760701H243.810728zM243.810728 292.571429H292.571429v48.7607H243.810728z" fill="#FEAD35" p-id="5934"></path><path d="M536.378544 243.810728h48.764313V292.571429h-48.764313zM536.378544 195.046415h48.764313v48.764313h-48.764313zM585.142857 243.810728h48.760701V292.571429H585.142857zM633.903558 292.571429h48.7607v48.7607h-48.7607z" fill="#F77621" p-id="5935"></path><path d="M633.903558 195.046415h48.7607v48.764313h-48.7607zM633.903558 243.810728h48.7607V292.571429h-48.7607z" fill="#FEAD35" p-id="5936"></path><path d="M585.142857 195.046415h48.760701v48.764313H585.142857zM536.378544 146.285714h48.764313v48.760701h-48.764313zM487.617843 146.285714h48.760701v48.760701h-48.760701zM585.142857 146.285714h48.760701v48.760701H585.142857zM585.142857 292.571429h48.760701v48.7607H585.142857zM633.903558 585.142857h48.7607v48.760701h-48.7607zM633.903558 536.378544h48.7607v48.764313h-48.7607z" fill="#F77621" p-id="5937"></path><path d="M682.664258 487.617843h48.764313v48.760701h-48.764313z" fill="#FFFFFF" p-id="5938"></path><path d="M731.428571 438.857143h48.760701v48.7607h-48.760701z" fill="#F77621" p-id="5939"></path><path d="M682.664258 438.857143h48.764313v48.7607h-48.764313z" fill="#FFFFFF" p-id="5940"></path><path d="M780.189272 390.096442h48.760701v48.760701h-48.760701zM780.189272 243.810728h48.760701V292.571429h-48.760701zM780.189272 195.046415h48.760701v48.764313h-48.760701zM780.189272 341.332129h48.760701v48.764313h-48.760701zM780.189272 292.571429h48.760701v48.7607h-48.760701zM731.428571 390.096442h48.760701v48.760701h-48.760701zM731.428571 341.332129h48.760701v48.764313h-48.760701zM682.664258 390.096442h48.764313v48.760701h-48.764313zM633.903558 438.857143h48.7607v48.7607h-48.7607z" fill="#F77621" p-id="5941"></path><path d="M633.903558 487.617843h48.7607v48.760701h-48.7607zM585.142857 487.617843h48.760701v48.760701H585.142857z" fill="#FFFFFF" p-id="5942"></path><path d="M633.903558 48.760701h48.7607v48.764313h-48.7607zM536.378544 48.760701h48.764313v48.764313h-48.764313zM585.142857 48.760701h48.760701v48.764313H585.142857zM682.664258 97.525014h48.764313v48.7607h-48.764313z" fill="#F77621" p-id="5943"></path><path d="M682.664258 146.285714h48.764313v48.760701h-48.764313zM633.903558 341.332129h48.7607v48.764313h-48.7607zM731.428571 292.571429h48.760701v48.7607h-48.760701zM731.428571 243.810728h48.760701V292.571429h-48.760701zM585.142857 536.378544h48.760701v48.764313H585.142857zM731.428571 195.046415h48.760701v48.764313h-48.760701zM731.428571 146.285714h48.760701v48.760701h-48.760701zM682.664258 341.332129h48.764313v48.764313h-48.764313zM682.664258 292.571429h48.764313v48.7607h-48.764313zM585.142857 438.857143h48.760701v48.7607H585.142857zM633.903558 97.525014h48.7607v48.7607h-48.7607zM633.903558 390.096442h48.7607v48.760701h-48.7607zM536.378544 438.857143h48.764313v48.7607h-48.764313zM536.378544 97.525014h48.764313v48.7607h-48.764313zM585.142857 97.525014h48.760701v48.7607H585.142857zM487.617843 48.760701h48.760701v48.764313h-48.760701zM585.142857 390.096442h48.760701v48.760701H585.142857zM487.617843 97.525014h48.760701v48.7607h-48.760701zM438.857143 48.760701h48.7607v48.764313h-48.7607z" fill="#F77621" p-id="5944"></path><path d="M585.142857 633.903558h48.760701v48.7607H585.142857zM633.903558 633.903558h48.7607v48.7607h-48.7607zM487.617843 633.903558h48.760701v48.7607h-48.760701zM438.857143 633.903558h48.7607v48.7607h-48.7607zM292.571429 633.903558h48.7607v48.7607H292.571429zM341.332129 633.903558h48.764313v48.7607H341.332129zM390.096442 633.903558h48.760701v48.7607h-48.760701z" fill="#4C4F65" p-id="5945"></path><path d="M585.142857 585.142857h48.760701v48.760701H585.142857zM438.857143 585.142857h48.7607v48.760701h-48.7607zM487.617843 585.142857h48.760701v48.760701h-48.760701zM341.332129 585.142857h48.764313v48.760701H341.332129zM390.096442 585.142857h48.760701v48.760701h-48.760701z" fill="#F77621" p-id="5946"></path><path d="M536.378544 633.903558h48.764313v48.7607h-48.764313z" fill="#4C4F65" p-id="5947"></path><path d="M487.617843 390.096442h48.760701v48.760701h-48.760701zM536.378544 536.378544h48.764313v48.764313h-48.764313zM536.378544 341.332129h48.764313v48.764313h-48.764313zM487.617843 487.617843h48.760701v48.760701h-48.760701zM487.617843 243.810728h48.760701V292.571429h-48.760701zM487.617843 438.857143h48.760701v48.7607h-48.760701zM536.378544 487.617843h48.764313v48.760701h-48.764313zM536.378544 292.571429h48.764313v48.7607h-48.764313zM536.378544 585.142857h48.764313v48.760701h-48.764313zM487.617843 292.571429h48.760701v48.7607h-48.760701zM536.378544 390.096442h48.764313v48.760701h-48.764313zM438.857143 243.810728h48.7607V292.571429h-48.7607z" fill="#F77621" p-id="5948"></path><path d="M438.857143 195.046415h48.7607v48.764313h-48.7607z" fill="#FFFFFF" p-id="5949"></path><path d="M438.857143 146.285714h48.7607v48.760701h-48.7607zM195.046415 195.046415h48.764313v48.764313H195.046415zM292.571429 195.046415h48.7607v48.764313H292.571429zM243.810728 195.046415H292.571429v48.764313H243.810728zM341.332129 292.571429h48.764313v48.7607H341.332129zM341.332129 341.332129h48.764313v48.764313H341.332129zM438.857143 536.378544h48.7607v48.764313h-48.7607zM438.857143 487.617843h48.7607v48.760701h-48.7607zM438.857143 438.857143h48.7607v48.7607h-48.7607z" fill="#F77621" p-id="5950"></path><path d="M292.571429 390.096442h48.7607v48.760701H292.571429z" fill="#FEAD35" p-id="5951"></path><path d="M292.571429 341.332129h48.7607v48.764313H292.571429zM341.332129 390.096442h48.764313v48.760701H341.332129zM292.571429 243.810728h48.7607V292.571429H292.571429zM292.571429 292.571429h48.7607v48.7607H292.571429zM390.096442 438.857143h48.760701v48.7607h-48.760701zM390.096442 536.378544h48.760701v48.764313h-48.760701zM390.096442 487.617843h48.760701v48.760701h-48.760701zM390.096442 341.332129h48.760701v48.764313h-48.760701zM390.096442 243.810728h48.760701V292.571429h-48.760701zM390.096442 292.571429h48.760701v48.7607h-48.760701zM390.096442 390.096442h48.760701v48.760701h-48.760701zM341.332129 146.285714h48.764313v48.760701H341.332129zM292.571429 48.760701h48.7607v48.764313H292.571429z" fill="#F77621" p-id="5952"></path><path d="M390.096442 195.046415h48.760701v48.764313h-48.760701zM390.096442 146.285714h48.760701v48.760701h-48.760701z" fill="#FFFFFF" p-id="5953"></path><path d="M390.096442 48.760701h48.760701v48.764313h-48.760701zM341.332129 195.046415h48.764313v48.764313H341.332129zM341.332129 48.760701h48.764313v48.764313H341.332129zM390.096442 97.525014h48.760701v48.7607h-48.760701zM341.332129 243.810728h48.764313V292.571429H341.332129zM243.810728 97.525014H292.571429v48.7607H243.810728zM341.332129 97.525014h48.764313v48.7607H341.332129zM195.046415 146.285714h48.764313v48.760701H195.046415z" fill="#F77621" p-id="5954"></path><path d="M243.810728 146.285714H292.571429v48.760701H243.810728zM292.571429 146.285714h48.7607v48.760701H292.571429z" fill="#F77621" p-id="5955"></path><path d="M292.571429 97.525014h48.7607v48.7607H292.571429z" fill="#F77621" p-id="5956"></path><path d="M195.046415 390.096442h48.764313v48.760701H195.046415z" fill="#FEAD35" p-id="5957"></path><path d="M292.571429 536.378544h48.7607v48.764313H292.571429zM292.571429 487.617843h48.7607v48.760701H292.571429zM195.046415 438.857143h48.764313v48.7607H195.046415zM243.810728 438.857143H292.571429v48.7607H243.810728zM243.810728 487.617843H292.571429v48.760701H243.810728zM146.285714 292.571429h48.760701v48.7607H146.285714zM146.285714 341.332129h48.760701v48.764313H146.285714zM146.285714 390.096442h48.760701v48.760701H146.285714zM146.285714 243.810728h48.760701V292.571429H146.285714zM146.285714 195.046415h48.760701v48.764313H146.285714z" fill="#F77621" p-id="5958"></path><path d="M243.810728 48.760701H292.571429v48.764313H243.810728zM195.046415 97.525014h48.764313v48.7607H195.046415zM146.285714 146.285714h48.760701v48.760701H146.285714zM97.525014 243.810728h48.7607V292.571429H97.525014zM97.525014 195.046415h48.7607v48.764313H97.525014zM97.525014 390.096442h48.7607v48.760701H97.525014zM97.525014 341.332129h48.7607v48.764313H97.525014zM97.525014 292.571429h48.7607v48.7607H97.525014zM146.285714 438.857143h48.760701v48.7607H146.285714zM195.046415 487.617843h48.764313v48.760701H195.046415zM243.810728 585.142857H292.571429v48.760701H243.810728zM243.810728 633.903558H292.571429v48.7607H243.810728zM243.810728 536.378544H292.571429v48.764313H243.810728zM243.810728 828.949973H292.571429v48.764313H243.810728zM243.810728 780.189272H292.571429v48.760701H243.810728zM243.810728 682.664258H292.571429v48.764313H243.810728zM243.810728 731.428571H292.571429v48.760701H243.810728zM243.810728 877.714286H292.571429v48.7607H243.810728zM292.571429 926.474986h48.7607v48.760701H292.571429zM585.142857 975.235687h48.760701v48.764313H585.142857zM438.857143 975.235687h48.7607v48.764313h-48.7607zM487.617843 975.235687h48.760701v48.764313h-48.760701zM536.378544 975.235687h48.764313v48.764313h-48.764313zM390.096442 975.235687h48.760701v48.764313h-48.760701zM341.332129 975.235687h48.764313v48.764313H341.332129zM633.903558 926.474986h48.7607v48.760701h-48.7607zM682.664258 682.664258h48.764313v48.764313h-48.764313zM682.664258 877.714286h48.764313v48.7607h-48.764313zM682.664258 780.189272h48.764313v48.760701h-48.764313zM682.664258 828.949973h48.764313v48.764313h-48.764313zM682.664258 731.428571h48.764313v48.760701h-48.764313zM682.664258 633.903558h48.764313v48.7607h-48.764313zM682.664258 585.142857h48.764313v48.760701h-48.764313zM682.664258 536.378544h48.764313v48.764313h-48.764313zM731.428571 487.617843h48.760701v48.760701h-48.760701zM780.189272 438.857143h48.760701v48.7607h-48.760701zM828.949973 195.046415h48.764313v48.764313h-48.764313zM828.949973 292.571429h48.764313v48.7607h-48.764313zM828.949973 390.096442h48.764313v48.760701h-48.764313zM828.949973 243.810728h48.764313V292.571429h-48.764313zM828.949973 341.332129h48.764313v48.764313h-48.764313zM780.189272 146.285714h48.760701v48.760701h-48.760701zM731.428571 97.525014h48.760701v48.7607h-48.760701zM682.664258 48.760701h48.764313v48.764313h-48.764313zM633.903558 0h48.7607v48.760701h-48.7607zM585.142857 0h48.760701v48.760701H585.142857zM536.378544 0h48.764313v48.760701h-48.764313zM487.617843 0h48.760701v48.760701h-48.760701zM438.857143 0h48.7607v48.760701h-48.7607zM390.096442 0h48.760701v48.760701h-48.760701zM341.332129 0h48.764313v48.760701H341.332129zM292.571429 0h48.7607v48.760701H292.571429z" fill="#1D2033" p-id="5959"></path></svg>