<?xml version="1.0" standalone="no"?><!DOCTYPE svg PUBLIC "-//W3C//DTD SVG 1.1//EN" "http://www.w3.org/Graphics/SVG/1.1/DTD/svg11.dtd"><svg t="1683859934930" class="icon" viewBox="0 0 1024 1024" version="1.1" xmlns="http://www.w3.org/2000/svg" p-id="5619" xmlns:xlink="http://www.w3.org/1999/xlink" width="200" height="200"><path d="M671.816104 559.613751h44.942353v44.93874h-44.942353zM671.816104 469.736271h44.942353v44.93874h-44.942353zM671.816104 424.790306h44.942353v44.942352h-44.942353zM671.816104 379.851565h44.942353v44.938741h-44.942353z" fill="#39CC27" p-id="5620"></path><path d="M671.816104 604.552491h44.942353v44.938741h-44.942353z" fill="#39CC27" p-id="5621"></path><path d="M671.816104 514.675011h44.942353v44.93874h-44.942353z" fill="#A3FF94" p-id="5622"></path><path d="M626.877364 604.552491h44.93874v44.938741h-44.93874zM626.877364 424.790306h44.93874v44.942352h-44.93874zM626.877364 469.736271h44.93874v44.93874h-44.93874z" fill="#39CC27" p-id="5623"></path><path d="M626.877364 559.613751h44.93874v44.93874h-44.93874z" fill="#39CC27" p-id="5624"></path><path d="M626.877364 514.675011h44.93874v44.93874h-44.93874z" fill="#A3FF94" p-id="5625"></path><path d="M626.877364 649.494844h44.93874v44.93874h-44.93874zM626.877364 379.851565h44.93874v44.938741h-44.93874zM492.057531 379.851565h44.93874v44.938741h-44.93874zM492.057531 469.736271h44.93874v44.93874h-44.93874z" fill="#39CC27" p-id="5626"></path><path d="M447.118791 469.736271h44.93874v44.93874h-44.93874zM492.057531 649.494844h44.93874v44.93874h-44.93874zM447.118791 559.613751h44.93874v44.93874h-44.93874z" fill="#39CC27" p-id="5627"></path><path d="M447.118791 649.494844h44.93874v44.93874h-44.93874zM492.057531 424.790306h44.93874v44.942352h-44.93874z" fill="#39CC27" p-id="5628"></path><path d="M447.118791 514.675011h44.93874v44.93874h-44.93874z" fill="#A3FF94" p-id="5629"></path><path d="M447.118791 424.790306h44.93874v44.942352h-44.93874zM447.118791 379.851565h44.93874v44.938741h-44.93874zM492.057531 604.552491h44.93874v44.938741h-44.93874z" fill="#39CC27" p-id="5630"></path><path d="M492.057531 559.613751h44.93874v44.93874h-44.93874z" fill="#39CC27" p-id="5631"></path><path d="M447.118791 604.552491h44.93874v44.938741h-44.93874z" fill="#39CC27" p-id="5632"></path><path d="M492.057531 514.675011h44.93874v44.93874h-44.93874z" fill="#A3FF94" p-id="5633"></path><path d="M267.356605 559.613751h44.93874v44.93874H267.356605z" fill="#39CC27" p-id="5634"></path><path d="M312.295345 379.851565h44.93874v44.938741H312.295345z" p-id="5635"></path><path d="M267.356605 424.790306h44.93874v44.942352H267.356605z" fill="#39CC27" p-id="5636"></path><path d="M312.295345 604.552491h44.93874v44.938741H312.295345z" p-id="5637"></path><path d="M267.356605 379.851565h44.93874v44.938741H267.356605zM267.356605 649.494844h44.93874v44.93874H267.356605z" fill="#39CC27" p-id="5638"></path><path d="M312.295345 649.494844h44.93874v44.93874H312.295345zM312.295345 424.790306h44.93874v44.942352H312.295345z" p-id="5639"></path><path d="M267.356605 469.736271h44.93874v44.93874H267.356605zM267.356605 604.552491h44.93874v44.938741H267.356605z" fill="#39CC27" p-id="5640"></path><path d="M267.356605 514.675011h44.93874v44.93874H267.356605z" fill="#A3FF94" p-id="5641"></path><path d="M312.295345 559.613751h44.93874v44.93874H312.295345z" p-id="5642"></path><path d="M222.414252 514.675011h44.93874v44.93874h-44.93874z" fill="#A3FF94" p-id="5643"></path><path d="M222.414252 469.736271h44.93874v44.93874h-44.93874zM222.414252 604.552491h44.93874v44.938741h-44.93874zM222.414252 649.494844h44.93874v44.93874h-44.93874z" fill="#39CC27" p-id="5644"></path><path d="M222.414252 559.613751h44.93874v44.93874h-44.93874zM222.414252 379.851565h44.93874v44.938741h-44.93874zM222.414252 424.790306h44.93874v44.942352h-44.93874zM402.176438 604.552491h44.942353v44.938741h-44.942353z" fill="#39CC27" p-id="5645"></path><path d="M402.176438 559.613751h44.942353v44.93874h-44.942353zM402.176438 649.494844h44.942353v44.93874h-44.942353z" fill="#39CC27" p-id="5646"></path><path d="M402.176438 514.675011h44.942353v44.93874h-44.942353z" fill="#A3FF94" p-id="5647"></path><path d="M402.176438 424.790306h44.942353v44.942352h-44.942353zM402.176438 469.736271h44.942353v44.93874h-44.942353zM402.176438 379.851565h44.942353v44.938741h-44.942353z" fill="#39CC27" p-id="5648"></path><path d="M581.938624 649.494844h44.93874v44.93874h-44.93874zM581.938624 514.675011h44.93874v44.93874h-44.93874zM581.938624 469.736271h44.93874v44.93874h-44.93874zM581.938624 559.613751h44.93874v44.93874h-44.93874z" fill="#1C550B" p-id="5649"></path><path d="M581.938624 604.552491h44.93874v44.938741h-44.93874zM581.938624 424.790306h44.93874v44.942352h-44.93874zM581.938624 379.851565h44.93874v44.938741h-44.93874z" fill="#1C550B" p-id="5650"></path><path d="M761.70081 424.790306h44.93874v44.942352h-44.93874zM761.70081 469.736271h44.93874v44.93874h-44.93874zM761.70081 604.552491h44.93874v44.938741h-44.93874zM761.70081 379.851565h44.93874v44.938741h-44.93874z" p-id="5651"></path><path d="M761.70081 559.613751h44.93874v44.93874h-44.93874zM761.70081 514.675011h44.93874v44.93874h-44.93874z" p-id="5652"></path><path d="M716.762069 514.675011h44.938741v44.93874h-44.938741z" fill="#A3FF94" p-id="5653"></path><path d="M716.762069 424.790306h44.938741v44.942352h-44.938741zM716.762069 559.613751h44.938741v44.93874h-44.938741z" fill="#39CC27" p-id="5654"></path><path d="M716.762069 604.552491h44.938741v44.938741h-44.938741zM716.762069 379.851565h44.938741v44.938741h-44.938741zM716.762069 469.736271h44.938741v44.93874h-44.938741z" fill="#39CC27" p-id="5655"></path><path d="M536.996271 604.552491h44.93874v44.938741h-44.93874zM536.996271 424.790306h44.93874v44.942352h-44.93874zM536.996271 514.675011h44.93874v44.93874h-44.93874zM536.996271 649.494844h44.93874v44.93874h-44.93874z" p-id="5656"></path><path d="M536.996271 559.613751h44.93874v44.93874h-44.93874zM536.996271 469.736271h44.93874v44.93874h-44.93874zM536.996271 379.851565h44.93874v44.938741h-44.93874z" p-id="5657"></path><path d="M357.234085 379.851565h44.938741v44.938741H357.234085zM357.234085 424.790306h44.938741v44.942352H357.234085zM357.234085 649.494844h44.938741v44.93874H357.234085zM357.234085 514.675011h44.938741v44.93874H357.234085zM357.234085 469.736271h44.938741v44.93874H357.234085z" fill="#1C550B" p-id="5658"></path><path d="M312.295345 514.675011h44.93874v44.93874H312.295345z" p-id="5659"></path><path d="M357.234085 604.552491h44.938741v44.938741H357.234085z" fill="#1C550B" p-id="5660"></path><path d="M357.234085 559.613751h44.938741v44.93874H357.234085z" fill="#1C550B" p-id="5661"></path><path d="M312.295345 469.736271h44.93874v44.93874H312.295345zM941.459383 559.613751h44.942353v44.93874h-44.942353zM941.459383 514.675011h44.942353v44.93874h-44.942353zM941.459383 469.736271h44.942353v44.93874h-44.942353z" p-id="5662"></path><path d="M896.520643 604.552491h44.93874v44.938741h-44.93874z" p-id="5663"></path><path d="M896.520643 559.613751h44.93874v44.93874h-44.93874zM896.520643 514.675011h44.93874v44.93874h-44.93874z" fill="#9E9E9E" p-id="5664"></path><path d="M896.520643 469.736271h44.93874v44.93874h-44.93874z" fill="#F2F2F2" p-id="5665"></path><path d="M896.520643 424.790306h44.93874v44.942352h-44.93874zM896.520643 379.851565h44.93874v44.938741h-44.93874zM851.581903 739.375937h44.93874v44.93874h-44.93874zM851.581903 694.433584h44.93874v44.942353h-44.93874z" p-id="5666"></path><path d="M851.581903 649.494844h44.93874v44.93874h-44.93874z" p-id="5667"></path><path d="M851.581903 604.552491h44.93874v44.938741h-44.93874z" fill="#9E9E9E" p-id="5668"></path><path d="M851.581903 559.613751h44.93874v44.93874h-44.93874zM851.581903 514.675011h44.93874v44.93874h-44.93874z" fill="#9E9E9E" p-id="5669"></path><path d="M851.581903 469.736271h44.93874v44.93874h-44.93874z" fill="#F2F2F2" p-id="5670"></path><path d="M851.581903 424.790306h44.93874v44.942352h-44.93874z" fill="#9E9E9E" p-id="5671"></path><path d="M851.581903 379.851565h44.93874v44.938741h-44.93874zM851.581903 334.912825h44.93874v44.93874h-44.93874zM851.581903 289.970473h44.93874v44.93874h-44.93874zM806.63955 784.31829h44.93874v44.93874h-44.93874z" p-id="5672"></path><path d="M806.63955 739.375937h44.93874v44.93874h-44.93874z" fill="#9E9E9E" p-id="5673"></path><path d="M806.63955 694.433584h44.93874v44.942353h-44.93874z" fill="#1C550B" p-id="5674"></path><path d="M806.63955 649.494844h44.93874v44.93874h-44.93874zM806.63955 604.552491h44.93874v44.938741h-44.93874z" fill="#1C550B" p-id="5675"></path><path d="M806.63955 559.613751h44.93874v44.93874h-44.93874zM806.63955 514.675011h44.93874v44.93874h-44.93874zM806.63955 469.736271h44.93874v44.93874h-44.93874zM806.63955 424.790306h44.93874v44.942352h-44.93874zM806.63955 379.851565h44.93874v44.938741h-44.93874zM806.63955 334.912825h44.93874v44.93874h-44.93874z" fill="#1C550B" p-id="5676"></path><path d="M806.63955 289.970473h44.93874v44.93874h-44.93874z" fill="#9E9E9E" p-id="5677"></path><path d="M806.63955 245.031732h44.93874v44.938741h-44.93874zM761.70081 784.31829h44.93874v44.93874h-44.93874z" p-id="5678"></path><path d="M761.70081 739.375937h44.93874v44.93874h-44.93874z" fill="#9E9E9E" p-id="5679"></path><path d="M761.70081 694.433584h44.93874v44.942353h-44.93874z" fill="#1C550B" p-id="5680"></path><path d="M761.70081 649.494844h44.93874v44.93874h-44.93874z" p-id="5681"></path><path d="M761.70081 334.912825h44.93874v44.93874h-44.93874z" fill="#1C550B" p-id="5682"></path><path d="M761.70081 289.970473h44.93874v44.93874h-44.93874z" fill="#9E9E9E" p-id="5683"></path><path d="M761.70081 245.031732h44.93874v44.938741h-44.93874zM716.762069 784.31829h44.938741v44.93874h-44.938741z" p-id="5684"></path><path d="M716.762069 739.375937h44.938741v44.93874h-44.938741z" fill="#9E9E9E" p-id="5685"></path><path d="M716.762069 694.433584h44.938741v44.942353h-44.938741z" fill="#1C550B" p-id="5686"></path><path d="M716.762069 649.494844h44.938741v44.93874h-44.938741z" fill="#39CC27" p-id="5687"></path><path d="M716.762069 334.912825h44.938741v44.93874h-44.938741z" fill="#1C550B" p-id="5688"></path><path d="M716.762069 289.970473h44.938741v44.93874h-44.938741z" fill="#F2F2F2" p-id="5689"></path><path d="M716.762069 245.031732h44.938741v44.938741h-44.938741zM671.816104 784.31829h44.942353v44.93874h-44.942353z" p-id="5690"></path><path d="M671.816104 739.375937h44.942353v44.93874h-44.942353z" fill="#9E9E9E" p-id="5691"></path><path d="M671.816104 694.433584h44.942353v44.942353h-44.942353z" fill="#1C550B" p-id="5692"></path><path d="M671.816104 649.494844h44.942353v44.93874h-44.942353z" fill="#39CC27" p-id="5693"></path><path d="M671.816104 334.912825h44.942353v44.93874h-44.942353z" fill="#1C550B" p-id="5694"></path><path d="M671.816104 289.970473h44.942353v44.93874h-44.942353z" fill="#F2F2F2" p-id="5695"></path><path d="M671.816104 245.031732h44.942353v44.938741h-44.942353zM626.877364 784.31829h44.93874v44.93874h-44.93874z" p-id="5696"></path><path d="M626.877364 739.375937h44.93874v44.93874h-44.93874z" fill="#9E9E9E" p-id="5697"></path><path d="M626.877364 694.433584h44.93874v44.942353h-44.93874zM626.877364 334.912825h44.93874v44.93874h-44.93874z" fill="#1C550B" p-id="5698"></path><path d="M626.877364 289.970473h44.93874v44.93874h-44.93874z" fill="#9E9E9E" p-id="5699"></path><path d="M626.877364 245.031732h44.93874v44.938741h-44.93874zM581.938624 784.31829h44.93874v44.93874h-44.93874z" p-id="5700"></path><path d="M581.938624 739.375937h44.93874v44.93874h-44.93874z" fill="#9E9E9E" p-id="5701"></path><path d="M581.938624 694.433584h44.93874v44.942353h-44.93874zM581.938624 334.912825h44.93874v44.93874h-44.93874z" fill="#1C550B" p-id="5702"></path><path d="M581.938624 289.970473h44.93874v44.93874h-44.93874z" fill="#9E9E9E" p-id="5703"></path><path d="M581.938624 245.031732h44.93874v44.938741h-44.93874zM536.996271 784.31829h44.93874v44.93874h-44.93874z" p-id="5704"></path><path d="M536.996271 739.375937h44.93874v44.93874h-44.93874z" fill="#9E9E9E" p-id="5705"></path><path d="M536.996271 694.433584h44.93874v44.942353h-44.93874zM536.996271 334.912825h44.93874v44.93874h-44.93874z" fill="#1C550B" p-id="5706"></path><path d="M536.996271 289.970473h44.93874v44.93874h-44.93874z" fill="#9E9E9E" p-id="5707"></path><path d="M536.996271 245.031732h44.93874v44.938741h-44.93874zM492.057531 784.31829h44.93874v44.93874h-44.93874z" p-id="5708"></path><path d="M492.057531 739.375937h44.93874v44.93874h-44.93874z" fill="#9E9E9E" p-id="5709"></path><path d="M492.057531 694.433584h44.93874v44.942353h-44.93874zM492.057531 334.912825h44.93874v44.93874h-44.93874z" fill="#1C550B" p-id="5710"></path><path d="M492.057531 289.970473h44.93874v44.93874h-44.93874z" fill="#9E9E9E" p-id="5711"></path><path d="M492.057531 245.031732h44.93874v44.938741h-44.93874zM447.118791 784.31829h44.93874v44.93874h-44.93874z" p-id="5712"></path><path d="M447.118791 739.375937h44.93874v44.93874h-44.93874z" fill="#9E9E9E" p-id="5713"></path><path d="M447.118791 694.433584h44.93874v44.942353h-44.93874zM447.118791 334.912825h44.93874v44.93874h-44.93874z" fill="#1C550B" p-id="5714"></path><path d="M447.118791 289.970473h44.93874v44.93874h-44.93874z" fill="#9E9E9E" p-id="5715"></path><path d="M447.118791 245.031732h44.93874v44.938741h-44.93874zM402.176438 784.31829h44.942353v44.93874h-44.942353z" p-id="5716"></path><path d="M402.176438 739.375937h44.942353v44.93874h-44.942353z" fill="#9E9E9E" p-id="5717"></path><path d="M402.176438 694.433584h44.942353v44.942353h-44.942353zM402.176438 334.912825h44.942353v44.93874h-44.942353z" fill="#1C550B" p-id="5718"></path><path d="M402.176438 289.970473h44.942353v44.93874h-44.942353z" fill="#9E9E9E" p-id="5719"></path><path d="M402.176438 245.031732h44.942353v44.938741h-44.942353zM357.234085 784.31829h44.938741v44.93874H357.234085z" p-id="5720"></path><path d="M357.234085 739.375937h44.938741v44.93874H357.234085z" fill="#9E9E9E" p-id="5721"></path><path d="M357.234085 694.433584h44.938741v44.942353H357.234085zM357.234085 334.912825h44.938741v44.93874H357.234085z" fill="#1C550B" p-id="5722"></path><path d="M357.234085 289.970473h44.938741v44.93874H357.234085z" fill="#9E9E9E" p-id="5723"></path><path d="M357.234085 245.031732h44.938741v44.938741H357.234085zM312.295345 784.31829h44.93874v44.93874H312.295345z" p-id="5724"></path><path d="M312.295345 739.375937h44.93874v44.93874H312.295345z" fill="#9E9E9E" p-id="5725"></path><path d="M312.295345 694.433584h44.93874v44.942353H312.295345zM312.295345 334.912825h44.93874v44.93874H312.295345z" fill="#1C550B" p-id="5726"></path><path d="M312.295345 289.970473h44.93874v44.93874H312.295345z" fill="#9E9E9E" p-id="5727"></path><path d="M312.295345 245.031732h44.93874v44.938741H312.295345zM267.356605 784.31829h44.93874v44.93874H267.356605z" p-id="5728"></path><path d="M267.356605 739.375937h44.93874v44.93874H267.356605z" fill="#9E9E9E" p-id="5729"></path><path d="M267.356605 694.433584h44.93874v44.942353H267.356605zM267.356605 334.912825h44.93874v44.93874H267.356605z" fill="#1C550B" p-id="5730"></path><path d="M267.356605 289.970473h44.93874v44.93874H267.356605z" fill="#9E9E9E" p-id="5731"></path><path d="M267.356605 245.031732h44.93874v44.938741H267.356605zM222.414252 784.31829h44.93874v44.93874h-44.93874z" p-id="5732"></path><path d="M222.414252 739.375937h44.93874v44.93874h-44.93874z" fill="#9E9E9E" p-id="5733"></path><path d="M222.414252 694.433584h44.93874v44.942353h-44.93874zM222.414252 334.912825h44.93874v44.93874h-44.93874z" fill="#1C550B" p-id="5734"></path><path d="M222.414252 289.970473h44.93874v44.93874h-44.93874z" fill="#9E9E9E" p-id="5735"></path><path d="M222.414252 245.031732h44.93874v44.938741h-44.93874zM177.475512 784.31829h44.93874v44.93874h-44.93874z" p-id="5736"></path><path d="M177.475512 739.375937h44.93874v44.93874h-44.93874z" fill="#F2F2F2" p-id="5737"></path><path d="M177.475512 694.433584h44.93874v44.942353h-44.93874z" fill="#1C550B" p-id="5738"></path><path d="M177.475512 649.494844h44.93874v44.93874h-44.93874zM177.475512 604.552491h44.93874v44.938741h-44.93874z" fill="#39CC27" p-id="5739"></path><path d="M177.475512 559.613751h44.93874v44.93874h-44.93874z" fill="#39CC27" p-id="5740"></path><path d="M177.475512 514.675011h44.93874v44.93874h-44.93874z" fill="#A3FF94" p-id="5741"></path><path d="M177.475512 469.736271h44.93874v44.93874h-44.93874zM177.475512 424.790306h44.93874v44.942352h-44.93874zM177.475512 379.851565h44.93874v44.938741h-44.93874z" fill="#39CC27" p-id="5742"></path><path d="M177.475512 334.912825h44.93874v44.93874h-44.93874z" fill="#1C550B" p-id="5743"></path><path d="M177.475512 289.970473h44.93874v44.93874h-44.93874z" fill="#9E9E9E" p-id="5744"></path><path d="M177.475512 245.031732h44.93874v44.938741h-44.93874zM132.533159 784.31829h44.942353v44.93874H132.533159z" p-id="5745"></path><path d="M132.533159 739.375937h44.942353v44.93874H132.533159z" fill="#F2F2F2" p-id="5746"></path><path d="M132.533159 694.433584h44.942353v44.942353H132.533159z" fill="#1C550B" p-id="5747"></path><path d="M132.533159 649.494844h44.942353v44.93874H132.533159zM132.533159 604.552491h44.942353v44.938741H132.533159z" fill="#1C550B" p-id="5748"></path><path d="M132.533159 559.613751h44.942353v44.93874H132.533159zM132.533159 514.675011h44.942353v44.93874H132.533159zM132.533159 469.736271h44.942353v44.93874H132.533159zM132.533159 424.790306h44.942353v44.942352H132.533159zM132.533159 379.851565h44.942353v44.938741H132.533159zM132.533159 334.912825h44.942353v44.93874H132.533159z" fill="#1C550B" p-id="5749"></path><path d="M132.533159 289.970473h44.942353v44.93874H132.533159z" fill="#9E9E9E" p-id="5750"></path><path d="M132.533159 245.031732h44.942353v44.938741H132.533159zM87.590807 784.31829h44.93874v44.93874h-44.93874z" p-id="5751"></path><path d="M87.590807 739.375937h44.93874v44.93874h-44.93874zM87.590807 694.433584h44.93874v44.942353h-44.93874z" fill="#9E9E9E" p-id="5752"></path><path d="M87.590807 649.494844h44.93874v44.93874h-44.93874zM87.590807 604.552491h44.93874v44.938741h-44.93874z" fill="#9E9E9E" p-id="5753"></path><path d="M87.590807 559.613751h44.93874v44.93874h-44.93874zM87.590807 514.675011h44.93874v44.93874h-44.93874zM87.590807 469.736271h44.93874v44.93874h-44.93874zM87.590807 424.790306h44.93874v44.942352h-44.93874zM87.590807 379.851565h44.93874v44.938741h-44.93874zM87.590807 334.912825h44.93874v44.93874h-44.93874zM87.590807 289.970473h44.93874v44.93874h-44.93874z" fill="#9E9E9E" p-id="5754"></path><path d="M87.590807 245.031732h44.93874v44.938741h-44.93874zM42.652066 784.31829h44.938741v44.93874h-44.938741zM42.652066 739.375937h44.938741v44.93874h-44.938741zM42.652066 694.433584h44.938741v44.942353h-44.938741z" p-id="5755"></path><path d="M42.652066 649.494844h44.938741v44.93874h-44.938741zM42.652066 604.552491h44.938741v44.938741h-44.938741z" p-id="5756"></path><path d="M42.652066 559.613751h44.938741v44.93874h-44.938741zM42.652066 514.675011h44.938741v44.93874h-44.938741zM42.652066 469.736271h44.938741v44.93874h-44.938741zM42.652066 424.790306h44.938741v44.942352h-44.938741zM42.652066 379.851565h44.938741v44.938741h-44.938741zM42.652066 334.912825h44.938741v44.93874h-44.938741zM42.652066 289.970473h44.938741v44.93874h-44.938741zM42.652066 245.031732h44.938741v44.938741h-44.938741z" p-id="5757"></path></svg>