<?xml version="1.0" standalone="no"?><!DOCTYPE svg PUBLIC "-//W3C//DTD SVG 1.1//EN" "http://www.w3.org/Graphics/SVG/1.1/DTD/svg11.dtd"><svg t="1659285150257" class="icon" viewBox="0 0 1024 1024" version="1.1" xmlns="http://www.w3.org/2000/svg" p-id="4904" xmlns:xlink="http://www.w3.org/1999/xlink" width="200" height="200"><defs><style type="text/css">@font-face { font-family: feedback-iconfont; src: url("//at.alicdn.com/t/font_1031158_u69w8yhxdu.woff2?t=1630033759944") format("woff2"), url("//at.alicdn.com/t/font_1031158_u69w8yhxdu.woff?t=1630033759944") format("woff"), url("//at.alicdn.com/t/font_1031158_u69w8yhxdu.ttf?t=1630033759944") format("truetype"); }
</style></defs><path d="M877.714286 682.664258h48.7607v48.764313H877.714286zM877.714286 633.903558h48.7607v48.7607H877.714286zM877.714286 585.142857h48.7607v48.760701H877.714286zM877.714286 536.382157h48.7607v48.7607H877.714286zM877.714286 487.617843h48.7607v48.764314H877.714286zM877.714286 438.857143h48.7607v48.7607H877.714286zM877.714286 390.096442h48.7607v48.760701H877.714286zM877.714286 341.332129h48.7607v48.764313H877.714286zM828.949973 731.428571h48.764313v48.760701h-48.764313zM828.949973 682.664258h48.764313v48.764313h-48.764313zM828.949973 633.903558h48.764313v48.7607h-48.764313z" fill="#231815" p-id="4905"></path><path d="M828.949973 585.142857h48.764313v48.760701h-48.764313zM828.949973 536.382157h48.764313v48.7607h-48.764313zM828.949973 487.617843h48.764313v48.764314h-48.764313zM828.949973 438.857143h48.764313v48.7607h-48.764313zM828.949973 390.096442h48.764313v48.760701h-48.764313z" fill="#FBB002" p-id="4906"></path><path d="M828.949973 341.332129h48.764313v48.764313h-48.764313zM828.949973 292.571429h48.764313v48.7607h-48.764313zM828.949973 243.810728h48.764313V292.571429h-48.764313zM780.189272 780.189272h48.760701v48.760701h-48.760701zM780.189272 731.428571h48.760701v48.760701h-48.760701z" fill="#231815" p-id="4907"></path><path d="M780.189272 682.664258h48.760701v48.764313h-48.760701zM780.189272 633.903558h48.760701v48.7607h-48.760701z" fill="#FBB002" p-id="4908"></path><path d="M780.189272 585.142857h48.760701v48.760701h-48.760701zM780.189272 536.382157h48.760701v48.7607h-48.760701zM780.189272 487.617843h48.760701v48.764314h-48.760701zM780.189272 438.857143h48.760701v48.7607h-48.760701zM780.189272 390.096442h48.760701v48.760701h-48.760701z" fill="#010101" p-id="4909"></path><path d="M780.189272 341.332129h48.760701v48.764313h-48.760701z" fill="#FBB002" p-id="4910"></path><path d="M828.949973 292.571429v48.7607h-97.521402V292.571429h97.521402z" fill="#F5F5F5" p-id="4911"></path><path d="M780.189272 243.810728h48.760701V292.571429h-48.760701zM780.189272 195.046415h48.760701v48.764313h-48.760701zM731.428571 828.949973h48.760701v48.764313h-48.760701zM731.428571 780.189272h48.760701v48.760701h-48.760701z" fill="#231815" p-id="4912"></path><path d="M731.428571 731.428571h48.760701v48.760701h-48.760701zM731.428571 682.664258h48.760701v48.764313h-48.760701z" fill="#FBB002" p-id="4913"></path><path d="M731.428571 633.903558h48.760701v48.7607h-48.760701z" fill="#010101" p-id="4914"></path><path d="M731.428571 585.142857h48.760701v48.760701h-48.760701zM731.428571 536.382157h48.760701v48.7607h-48.760701zM731.428571 487.617843h48.760701v48.764314h-48.760701zM731.428571 438.857143h48.760701v48.7607h-48.760701zM731.428571 390.096442h48.760701v48.760701h-48.760701z" fill="#EB8F01" p-id="4915"></path><path d="M731.428571 341.332129h48.760701v48.764313h-48.760701z" fill="#010101" p-id="4916"></path><path d="M731.428571 243.810728h48.760701V292.571429h-48.760701z" fill="#FBB002" p-id="4917"></path><path d="M731.428571 195.046415h48.760701v48.764313h-48.760701zM731.428571 146.285714h48.760701v48.760701h-48.760701zM682.664258 828.949973h48.764313v48.764313h-48.764313z" fill="#231815" p-id="4918"></path><path d="M682.664258 780.189272h48.764313v48.760701h-48.764313zM682.664258 731.428571h48.764313v48.760701h-48.764313z" fill="#FBB002" p-id="4919"></path><path d="M682.664258 682.664258h48.764313v48.764313h-48.764313z" fill="#010101" p-id="4920"></path><path d="M682.664258 633.903558h48.764313v48.7607h-48.764313zM682.664258 585.142857h48.764313v48.760701h-48.764313zM682.664258 536.382157h48.764313v48.7607h-48.764313zM682.664258 487.617843h48.764313v48.764314h-48.764313zM682.664258 438.857143h48.764313v48.7607h-48.764313zM682.664258 390.096442h48.764313v48.760701h-48.764313z" fill="#EB8F01" p-id="4921"></path><path d="M682.664258 341.332129h48.764313v48.764313h-48.764313z" fill="#EB8E00" p-id="4922"></path><path d="M682.664258 292.571429h48.764313v48.7607h-48.764313zM682.664258 243.810728h48.764313V292.571429h-48.764313z" fill="#010101" p-id="4923"></path><path d="M682.664258 195.046415h48.764313v48.764313h-48.764313z" fill="#FBB002" p-id="4924"></path><path d="M682.664258 146.285714h48.764313v48.760701h-48.764313zM633.903558 877.714286h48.7607v48.7607h-48.7607zM633.903558 828.949973h48.7607v48.764313h-48.7607z" fill="#231815" p-id="4925"></path><path d="M633.903558 780.189272h48.7607v48.760701h-48.7607z" fill="#FBB002" p-id="4926"></path><path d="M633.903558 731.428571h48.7607v48.760701h-48.7607z" fill="#010101" p-id="4927"></path><path d="M633.903558 682.664258h48.7607v48.764313h-48.7607z" fill="#EB8F01" p-id="4928"></path><path d="M633.903558 633.903558h48.7607v48.7607h-48.7607zM633.903558 585.142857h48.7607v48.760701h-48.7607zM633.903558 536.382157h48.7607v48.7607h-48.7607zM633.903558 487.617843h48.7607v48.764314h-48.7607z" fill="#FFEA54" p-id="4929"></path><path d="M633.903558 438.857143h48.7607v48.7607h-48.7607z" fill="#EB8F01" p-id="4930"></path><path d="M633.903558 390.096442h48.7607v48.760701h-48.7607zM633.903558 341.332129h48.7607v48.764313h-48.7607z" fill="#FFEA54" p-id="4931"></path><path d="M633.903558 292.571429h48.7607v48.7607h-48.7607z" fill="#EB8F01" p-id="4932"></path><path d="M633.903558 243.810728h48.7607V292.571429h-48.7607z" fill="#010101" p-id="4933"></path><path d="M633.903558 195.046415h48.7607v48.764313h-48.7607z" fill="#F5F5F5" p-id="4934"></path><path d="M633.903558 146.285714h48.7607v48.760701h-48.7607z" fill="#231815" p-id="4935"></path><path d="M633.903558 97.525014h48.7607v48.7607h-48.7607zM585.142857 877.714286h48.760701v48.7607H585.142857z" fill="#231815" p-id="4936"></path><path d="M585.142857 828.949973h48.760701v48.764313H585.142857z" fill="#FBB002" p-id="4937"></path><path d="M585.142857 780.189272h48.760701v48.760701H585.142857z" fill="#010101" p-id="4938"></path><path d="M585.142857 731.428571h48.760701v48.760701H585.142857z" fill="#010202" p-id="4939"></path><path d="M585.142857 682.664258h48.760701v48.764313H585.142857zM585.142857 633.903558h48.760701v48.7607H585.142857zM585.142857 585.142857h48.760701v48.760701H585.142857zM585.142857 536.382157h48.760701v48.7607H585.142857zM585.142857 487.617843h48.760701v48.764314H585.142857z" fill="#FFEA54" p-id="4940"></path><path d="M585.142857 438.857143h48.760701v48.7607H585.142857z" fill="#EB8F01" p-id="4941"></path><path d="M585.142857 390.096442h48.760701v48.760701H585.142857zM585.142857 341.332129h48.760701v48.764313H585.142857z" fill="#FFEA54" p-id="4942"></path><path d="M585.142857 292.571429h48.760701v48.7607H585.142857zM585.142857 243.810728h48.760701V292.571429H585.142857z" fill="#EB8F01" p-id="4943"></path><path d="M585.142857 195.046415h48.760701v48.764313H585.142857z" fill="#010101" p-id="4944"></path><path d="M585.142857 146.285714h48.760701v48.760701H585.142857z" fill="#FBB002" p-id="4945"></path><path d="M585.142857 97.525014h48.760701v48.7607H585.142857zM536.378544 877.714286h48.764313v48.7607h-48.764313z" fill="#231815" p-id="4946"></path><path d="M536.378544 828.949973h48.764313v48.764313h-48.764313z" fill="#FBB002" p-id="4947"></path><path d="M536.378544 780.189272h48.764313v48.760701h-48.764313z" fill="#010101" p-id="4948"></path><path d="M536.378544 731.428571h48.764313v48.760701h-48.764313z" fill="#EB8F01" p-id="4949"></path><path d="M536.378544 682.664258h48.764313v48.764313h-48.764313zM536.378544 633.903558h48.764313v48.7607h-48.764313z" fill="#FFEA54" p-id="4950"></path><path d="M536.378544 585.142857h48.764313v48.760701h-48.764313z" fill="#EB8F01" p-id="4951"></path><path d="M536.378544 536.382157h48.764313v48.7607h-48.764313zM536.378544 487.617843h48.764313v48.764314h-48.764313z" fill="#FFEA54" p-id="4952"></path><path d="M536.378544 438.857143h48.764313v48.7607h-48.764313z" fill="#EB8F01" p-id="4953"></path><path d="M536.378544 390.096442h48.764313v48.760701h-48.764313zM536.378544 341.332129h48.764313v48.764313h-48.764313z" fill="#FFEA54" p-id="4954"></path><path d="M536.378544 292.571429h48.764313v48.7607h-48.764313zM536.378544 243.810728h48.764313V292.571429h-48.764313z" fill="#EB8F01" p-id="4955"></path><path d="M536.378544 195.046415h48.764313v48.764313h-48.764313z" fill="#010101" p-id="4956"></path><path d="M536.378544 146.285714h48.764313v48.760701h-48.764313z" fill="#FBB002" p-id="4957"></path><path d="M536.378544 97.525014h48.764313v48.7607h-48.764313zM487.617843 877.714286h48.760701v48.7607h-48.760701z" fill="#231815" p-id="4958"></path><path d="M487.617843 828.949973h48.760701v48.764313h-48.760701z" fill="#FBB002" p-id="4959"></path><path d="M487.617843 780.189272h48.760701v48.760701h-48.760701z" fill="#010101" p-id="4960"></path><path d="M487.617843 731.428571h48.760701v48.760701h-48.760701z" fill="#EB8F01" p-id="4961"></path><path d="M487.617843 682.664258h48.760701v48.764313h-48.760701zM487.617843 633.903558h48.760701v48.7607h-48.760701z" fill="#FFEA54" p-id="4962"></path><path d="M487.617843 585.142857h48.760701v48.760701h-48.760701z" fill="#EB8F01" p-id="4963"></path><path d="M487.617843 536.382157h48.760701v48.7607h-48.760701zM487.617843 487.617843h48.760701v48.764314h-48.760701z" fill="#FFEA54" p-id="4964"></path><path d="M487.617843 438.857143h48.760701v48.7607h-48.760701z" fill="#EB8F01" p-id="4965"></path><path d="M487.617843 390.096442h48.760701v48.760701h-48.760701zM487.617843 341.332129h48.760701v48.764313h-48.760701z" fill="#FFEA54" p-id="4966"></path><path d="M487.617843 292.571429h48.760701v48.7607h-48.760701zM487.617843 243.810728h48.760701V292.571429h-48.760701z" fill="#EB8F01" p-id="4967"></path><path d="M487.617843 195.046415h48.760701v48.764313h-48.760701z" fill="#010101" p-id="4968"></path><path d="M487.617843 146.285714h48.760701v48.760701h-48.760701z" fill="#FBB002" p-id="4969"></path><path d="M487.617843 97.525014h48.760701v48.7607h-48.760701zM438.857143 877.714286h48.7607v48.7607h-48.7607z" fill="#231815" p-id="4970"></path><path d="M438.857143 828.949973h48.7607v48.764313h-48.7607z" fill="#FBB002" p-id="4971"></path><path d="M438.857143 780.189272h48.7607v48.760701h-48.7607z" fill="#010101" p-id="4972"></path><path d="M438.857143 731.428571h48.7607v48.760701h-48.7607z" fill="#EB8F01" p-id="4973"></path><path d="M438.857143 682.664258h48.7607v48.764313h-48.7607zM438.857143 633.903558h48.7607v48.7607h-48.7607zM438.857143 585.142857h48.7607v48.760701h-48.7607z" fill="#FFEA54" p-id="4974"></path><path d="M438.857143 536.382157h48.7607v48.7607h-48.7607zM438.857143 487.617843h48.7607v48.764314h-48.7607zM438.857143 438.857143h48.7607v48.7607h-48.7607z" fill="#EB8F01" p-id="4975"></path><path d="M438.857143 390.096442h48.7607v48.760701h-48.7607zM438.857143 341.332129h48.7607v48.764313h-48.7607z" fill="#FFEA54" p-id="4976"></path><path d="M438.857143 292.571429h48.7607v48.7607h-48.7607zM438.857143 243.810728h48.7607V292.571429h-48.7607z" fill="#EB8F01" p-id="4977"></path><path d="M438.857143 195.046415h48.7607v48.764313h-48.7607z" fill="#010101" p-id="4978"></path><path d="M438.857143 146.285714h48.7607v48.760701h-48.7607z" fill="#FBB002" p-id="4979"></path><path d="M438.857143 97.525014h48.7607v48.7607h-48.7607zM390.096442 877.714286h48.760701v48.7607h-48.760701z" fill="#231815" p-id="4980"></path><path d="M390.096442 828.949973h48.760701v48.764313h-48.760701z" fill="#FBB002" p-id="4981"></path><path d="M390.096442 780.189272h48.760701v48.760701h-48.760701z" fill="#010202" p-id="4982"></path><path d="M390.096442 731.428571h48.760701v48.760701h-48.760701z" fill="#010101" p-id="4983"></path><path d="M390.096442 682.664258h48.760701v48.764313h-48.760701zM390.096442 633.903558h48.760701v48.7607h-48.760701zM390.096442 585.142857h48.760701v48.760701h-48.760701zM390.096442 536.382157h48.760701v48.7607h-48.760701zM390.096442 487.617843h48.760701v48.764314h-48.760701zM390.096442 438.857143h48.760701v48.7607h-48.760701zM390.096442 390.096442h48.760701v48.760701h-48.760701zM390.096442 341.332129h48.760701v48.764313h-48.760701z" fill="#FFEA54" p-id="4984"></path><path d="M390.096442 292.571429h48.760701v48.7607h-48.760701zM390.096442 243.810728h48.760701V292.571429h-48.760701z" fill="#EB8F01" p-id="4985"></path><path d="M390.096442 195.046415h48.760701v48.764313h-48.760701z" fill="#010101" p-id="4986"></path><path d="M390.096442 146.285714h48.760701v48.760701h-48.760701z" fill="#FBB002" p-id="4987"></path><path d="M390.096442 97.525014h48.760701v48.7607h-48.760701zM341.332129 877.714286h48.764313v48.7607H341.332129zM341.332129 828.949973h48.764313v48.764313H341.332129z" fill="#231815" p-id="4988"></path><path d="M341.332129 780.189272h48.764313v48.760701H341.332129z" fill="#FBB002" p-id="4989"></path><path d="M341.332129 731.428571h48.764313v48.760701H341.332129z" fill="#010101" p-id="4990"></path><path d="M341.332129 682.664258h48.764313v48.764313H341.332129z" fill="#EB8F01" p-id="4991"></path><path d="M341.332129 633.903558h48.764313v48.7607H341.332129zM341.332129 585.142857h48.764313v48.760701H341.332129zM341.332129 536.382157h48.764313v48.7607H341.332129zM341.332129 487.617843h48.764313v48.764314H341.332129zM341.332129 438.857143h48.764313v48.7607H341.332129zM341.332129 390.096442h48.764313v48.760701H341.332129zM341.332129 341.332129h48.764313v48.764313H341.332129z" fill="#FFEA54" p-id="4992"></path><path d="M341.332129 292.571429h48.764313v48.7607H341.332129z" fill="#EB8F01" p-id="4993"></path><path d="M341.332129 243.810728h48.764313V292.571429H341.332129z" fill="#010101" p-id="4994"></path><path d="M341.332129 195.046415h48.764313v48.764313H341.332129z" fill="#FBB002" p-id="4995"></path><path d="M341.332129 146.285714h48.764313v48.760701H341.332129z" fill="#231815" p-id="4996"></path><path d="M341.332129 97.525014h48.764313v48.7607H341.332129zM292.571429 828.949973h48.7607v48.764313H292.571429z" fill="#231815" p-id="4997"></path><path d="M292.571429 780.189272h48.7607v48.760701H292.571429z" fill="#F5F5F5" p-id="4998"></path><path d="M292.571429 731.428571h48.7607v48.760701H292.571429z" fill="#FBB002" p-id="4999"></path><path d="M292.571429 682.664258h48.7607v48.764313H292.571429z" fill="#010101" p-id="5000"></path><path d="M292.571429 633.903558h48.7607v48.7607H292.571429z" fill="#EB8F01" p-id="5001"></path><path d="M292.571429 585.142857h48.7607v48.760701H292.571429z" fill="#EA8E01" p-id="5002"></path><path d="M292.571429 536.382157h48.7607v48.7607H292.571429zM292.571429 487.617843h48.7607v48.764314H292.571429zM292.571429 438.857143h48.7607v48.7607H292.571429z" fill="#FFEA54" p-id="5003"></path><path d="M292.571429 390.096442h48.7607v48.760701H292.571429z" fill="#EB8E00" p-id="5004"></path><path d="M292.571429 341.332129h48.7607v48.764313H292.571429zM292.571429 292.571429h48.7607v48.7607H292.571429z" fill="#EB8F01" p-id="5005"></path><path d="M292.571429 243.810728h48.7607V292.571429H292.571429z" fill="#010101" p-id="5006"></path><path d="M292.571429 195.046415h48.7607v48.764313H292.571429z" fill="#FBB002" p-id="5007"></path><path d="M292.571429 146.285714h48.7607v48.760701H292.571429zM243.810728 828.949973H292.571429v48.764313H243.810728z" fill="#231815" p-id="5008"></path><path d="M243.810728 780.189272H292.571429v48.760701H243.810728z" fill="#F5F5F5" p-id="5009"></path><path d="M243.810728 731.428571H292.571429v48.760701H243.810728zM243.810728 682.664258H292.571429v48.764313H243.810728z" fill="#FBB002" p-id="5010"></path><path d="M243.810728 633.903558H292.571429v48.7607H243.810728z" fill="#010101" p-id="5011"></path><path d="M243.810728 585.142857H292.571429v48.760701H243.810728zM243.810728 536.382157H292.571429v48.7607H243.810728zM243.810728 487.617843H292.571429v48.764314H243.810728zM243.810728 438.857143H292.571429v48.7607H243.810728zM243.810728 390.096442H292.571429v48.760701H243.810728z" fill="#EB8F01" p-id="5012"></path><path d="M243.810728 341.332129H292.571429v48.764313H243.810728zM243.810728 292.571429H292.571429v48.7607H243.810728z" fill="#010101" p-id="5013"></path><path d="M243.810728 243.810728H292.571429V292.571429H243.810728z" fill="#FBB002" p-id="5014"></path><path d="M243.810728 195.046415H292.571429v48.764313H243.810728zM243.810728 146.285714H292.571429v48.760701H243.810728zM195.046415 780.189272h48.764313v48.760701H195.046415zM195.046415 731.428571h48.764313v48.760701H195.046415z" fill="#231815" p-id="5015"></path><path d="M195.046415 682.664258h48.764313v48.764313H195.046415z" fill="#FBB002" p-id="5016"></path><path d="M195.046415 633.903558h48.764313v48.7607H195.046415z" fill="#F5F5F5" p-id="5017"></path><path d="M195.046415 585.142857h48.764313v48.760701H195.046415zM195.046415 536.382157h48.764313v48.7607H195.046415zM195.046415 487.617843h48.764313v48.764314H195.046415zM195.046415 438.857143h48.764313v48.7607H195.046415zM195.046415 390.096442h48.764313v48.760701H195.046415z" fill="#010101" p-id="5018"></path><path d="M195.046415 341.332129h48.764313v48.764313H195.046415zM195.046415 292.571429h48.764313v48.7607H195.046415z" fill="#FBB002" p-id="5019"></path><path d="M195.046415 243.810728h48.764313V292.571429H195.046415zM195.046415 195.046415h48.764313v48.764313H195.046415zM146.285714 731.428571h48.760701v48.760701H146.285714zM146.285714 682.664258h48.760701v48.764313H146.285714zM146.285714 633.903558h48.760701v48.7607H146.285714z" fill="#231815" p-id="5020"></path><path d="M146.285714 585.142857h48.760701v48.760701H146.285714zM146.285714 536.382157h48.760701v48.7607H146.285714zM146.285714 487.617843h48.760701v48.764314H146.285714zM146.285714 438.857143h48.760701v48.7607H146.285714zM146.285714 390.096442h48.760701v48.760701H146.285714z" fill="#FBB002" p-id="5021"></path><path d="M146.285714 341.332129h48.760701v48.764313H146.285714zM146.285714 292.571429h48.760701v48.7607H146.285714zM146.285714 243.810728h48.760701V292.571429H146.285714zM97.525014 682.664258h48.7607v48.764313H97.525014zM97.525014 633.903558h48.7607v48.7607H97.525014zM97.525014 585.142857h48.7607v48.760701H97.525014zM97.525014 536.382157h48.7607v48.7607H97.525014zM97.525014 487.617843h48.7607v48.764314H97.525014zM97.525014 438.857143h48.7607v48.7607H97.525014zM97.525014 390.096442h48.7607v48.760701H97.525014z" fill="#231815" p-id="5022"></path><path d="M97.525014 341.332129h48.7607v48.764313H97.525014zM97.525014 292.571429h48.7607v48.7607H97.525014z" fill="#231815" p-id="5023"></path></svg>