<?xml version="1.0" standalone="no"?><!DOCTYPE svg PUBLIC "-//W3C//DTD SVG 1.1//EN" "http://www.w3.org/Graphics/SVG/1.1/DTD/svg11.dtd"><svg t="1683859952349" class="icon" viewBox="0 0 1024 1024" version="1.1" xmlns="http://www.w3.org/2000/svg" p-id="6344" xmlns:xlink="http://www.w3.org/1999/xlink" width="200" height="200"><path d="M975.246524 438.528411h48.753476v48.753476h-48.753476z" fill="#F7F6F5" p-id="6345"></path><path d="M975.246524 633.542314h48.753476v48.753476h-48.753476zM975.246524 584.788838h48.753476v48.753476h-48.753476zM975.246524 536.035362h48.753476v48.753476h-48.753476z" p-id="6346"></path><path d="M975.246524 487.281887h48.753476v48.753475h-48.753476zM926.493049 682.29579h48.753475v48.753475h-48.753475z" p-id="6347"></path><path d="M926.493049 633.542314h48.753475v48.753476h-48.753475zM926.493049 584.788838h48.753475v48.753476h-48.753475z" fill="#833D03" p-id="6348"></path><path d="M926.493049 536.035362h48.753475v48.753476h-48.753475z" fill="#F0C775" p-id="6349"></path><path d="M926.493049 487.281887h48.753475v48.753475h-48.753475z" fill="#815513" p-id="6350"></path><path d="M926.493049 438.528411h48.753475v48.753476h-48.753475zM877.739573 682.29579h48.753476v48.753475h-48.753476zM877.739573 633.542314h48.753476v48.753476h-48.753476zM877.739573 584.788838h48.753476v48.753476h-48.753476z" p-id="6351"></path><path d="M877.739573 536.035362h48.753476v48.753476h-48.753476z" fill="#5A3309" p-id="6352"></path><path d="M877.739573 487.281887h48.753476v48.753475h-48.753476z" fill="#5A3309" p-id="6353"></path><path d="M877.739573 438.528411h48.753476v48.753476h-48.753476zM828.986097 682.29579h48.753476v48.753475h-48.753476z" p-id="6354"></path><path d="M828.986097 633.542314h48.753476v48.753476h-48.753476zM828.986097 584.788838h48.753476v48.753476h-48.753476z" fill="#833D03" p-id="6355"></path><path d="M828.986097 536.035362h48.753476v48.753476h-48.753476z" fill="#F0C775" p-id="6356"></path><path d="M828.986097 487.281887h48.753476v48.753475h-48.753476z" fill="#815513" p-id="6357"></path><path d="M828.986097 438.528411h48.753476v48.753476h-48.753476zM780.232621 682.29579h48.753476v48.753475h-48.753476zM780.232621 633.542314h48.753476v48.753476h-48.753476zM780.232621 584.788838h48.753476v48.753476h-48.753476zM780.232621 536.035362h48.753476v48.753476h-48.753476z" p-id="6358"></path><path d="M780.232621 487.281887h48.753476v48.753475h-48.753476z" fill="#F7F6F5" p-id="6359"></path><path d="M780.232621 438.528411h48.753476v48.753476h-48.753476zM731.479146 536.035362h48.753475v48.753476h-48.753475z" p-id="6360"></path><path d="M731.479146 487.281887h48.753475v48.753475h-48.753475z" fill="#815513" p-id="6361"></path><path d="M731.479146 438.528411h48.753475v48.753476h-48.753475zM682.72567 536.035362h48.753476v48.753476h-48.753476z" p-id="6362"></path><path d="M682.72567 487.281887h48.753476v48.753475h-48.753476z" fill="#F7F6F5" p-id="6363"></path><path d="M682.72567 438.528411h48.753476v48.753476h-48.753476zM633.972194 536.035362h48.753476v48.753476h-48.753476z" p-id="6364"></path><path d="M633.972194 487.281887h48.753476v48.753475h-48.753476z" fill="#815513" p-id="6365"></path><path d="M633.972194 438.528411h48.753476v48.753476h-48.753476zM585.218718 536.035362h48.753476v48.753476h-48.753476z" p-id="6366"></path><path d="M585.218718 487.281887h48.753476v48.753475h-48.753476z" fill="#5A3309" p-id="6367"></path><path d="M585.218718 438.528411h48.753476v48.753476h-48.753476zM536.465243 536.035362h48.753475v48.753476h-48.753475z" p-id="6368"></path><path d="M536.465243 487.281887h48.753475v48.753475h-48.753475z" fill="#815513" p-id="6369"></path><path d="M536.465243 438.528411h48.753475v48.753476h-48.753475zM487.711767 536.035362h48.753476v48.753476h-48.753476z" p-id="6370"></path><path d="M487.711767 487.281887h48.753476v48.753475h-48.753476z" fill="#5A3309" p-id="6371"></path><path d="M487.711767 438.528411h48.753476v48.753476h-48.753476zM438.958291 536.035362h48.753476v48.753476h-48.753476z" p-id="6372"></path><path d="M438.958291 487.281887h48.753476v48.753475h-48.753476z" fill="#815513" p-id="6373"></path><path d="M438.958291 438.528411h48.753476v48.753476h-48.753476zM390.204815 536.035362h48.753476v48.753476h-48.753476z" p-id="6374"></path><path d="M390.204815 487.281887h48.753476v48.753475h-48.753476z" fill="#5A3309" p-id="6375"></path><path d="M390.204815 438.528411h48.753476v48.753476h-48.753476zM341.45134 536.035362h48.753475v48.753476H341.45134z" p-id="6376"></path><path d="M341.45134 487.281887h48.753475v48.753475H341.45134z" fill="#815513" p-id="6377"></path><path d="M341.45134 438.528411h48.753475v48.753476H341.45134zM292.697864 536.035362h48.753476v48.753476H292.697864z" p-id="6378"></path><path d="M292.697864 487.281887h48.753476v48.753475H292.697864z" fill="#5A3309" p-id="6379"></path><path d="M292.697864 438.528411h48.753476v48.753476H292.697864zM243.944388 633.542314h48.753476v48.753476H243.944388zM243.944388 584.788838h48.753476v48.753476H243.944388z" p-id="6380"></path><path d="M243.944388 536.035362h48.753476v48.753476H243.944388z" fill="#5A3309" p-id="6381"></path><path d="M243.944388 487.281887h48.753476v48.753475H243.944388z" fill="#5A3309" p-id="6382"></path><path d="M243.944388 438.528411h48.753476v48.753476H243.944388zM243.944388 389.774935h48.753476v48.753476H243.944388zM195.190912 682.29579h48.753476v48.753475H195.190912z" p-id="6383"></path><path d="M195.190912 633.542314h48.753476v48.753476H195.190912zM195.190912 584.788838h48.753476v48.753476H195.190912z" fill="#5A3309" p-id="6384"></path><path d="M195.190912 536.035362h48.753476v48.753476H195.190912z" fill="#F0C775" p-id="6385"></path><path d="M195.190912 487.281887h48.753476v48.753475H195.190912zM195.190912 438.528411h48.753476v48.753476H195.190912z" fill="#F0C775" p-id="6386"></path><path d="M195.190912 389.774935h48.753476v48.753476H195.190912z" fill="#5A3309" p-id="6387"></path><path d="M195.190912 341.021459h48.753476v48.753476H195.190912zM146.437437 682.29579h48.753475v48.753475H146.437437z" p-id="6388"></path><path d="M146.437437 633.542314h48.753475v48.753476H146.437437z" fill="#5A3309" p-id="6389"></path><path d="M146.437437 584.788838h48.753475v48.753476H146.437437z" fill="#F0C775" p-id="6390"></path><path d="M146.437437 536.035362h48.753475v48.753476H146.437437z" fill="#FFFFFF" p-id="6391"></path><path d="M146.437437 487.281887h48.753475v48.753475H146.437437zM146.437437 438.528411h48.753475v48.753476H146.437437z" fill="#FFFFFF" p-id="6392"></path><path d="M146.437437 389.774935h48.753475v48.753476H146.437437z" fill="#F0C775" p-id="6393"></path><path d="M146.437437 341.021459h48.753475v48.753476H146.437437z" fill="#5A3309" p-id="6394"></path><path d="M146.437437 292.267984h48.753475v48.753475H146.437437zM97.683961 682.29579h48.753476v48.753475H97.683961zM97.683961 633.542314h48.753476v48.753476H97.683961z" p-id="6395"></path><path d="M97.683961 584.788838h48.753476v48.753476H97.683961z" fill="#5A3309" p-id="6396"></path><path d="M97.683961 536.035362h48.753476v48.753476H97.683961z" fill="#F0C775" p-id="6397"></path><path d="M97.683961 487.281887h48.753476v48.753475H97.683961zM97.683961 438.528411h48.753476v48.753476H97.683961z" fill="#F0C775" p-id="6398"></path><path d="M97.683961 389.774935h48.753476v48.753476H97.683961zM97.683961 341.021459h48.753476v48.753476H97.683961z" fill="#5A3309" p-id="6399"></path><path d="M97.683961 292.267984h48.753476v48.753475H97.683961zM48.930485 584.788838h48.753476v48.753476H48.930485z" p-id="6400"></path><path d="M48.930485 536.035362h48.753476v48.753476H48.930485z" fill="#5A3309" p-id="6401"></path><path d="M48.930485 487.281887h48.753476v48.753475H48.930485zM48.930485 438.528411h48.753476v48.753476H48.930485zM48.930485 389.774935h48.753476v48.753476H48.930485z" fill="#5A3309" p-id="6402"></path><path d="M48.930485 341.021459h48.753476v48.753476H48.930485zM0.17701 536.035362h48.753475v48.753476H0.17701z" p-id="6403"></path><path d="M0.17701 487.281887h48.753475v48.753475H0.17701zM0.17701 438.528411h48.753475v48.753476H0.17701zM0.17701 389.774935h48.753475v48.753476H0.17701z" p-id="6404"></path></svg>