<?xml version="1.0" standalone="no"?><!DOCTYPE svg PUBLIC "-//W3C//DTD SVG 1.1//EN" "http://www.w3.org/Graphics/SVG/1.1/DTD/svg11.dtd"><svg t="1683859962013" class="icon" viewBox="0 0 1024 1024" version="1.1" xmlns="http://www.w3.org/2000/svg" p-id="6739" xmlns:xlink="http://www.w3.org/1999/xlink" width="200" height="200"><path d="M828.949973 487.617843h48.764313v48.760701h-48.764313zM828.949973 97.525014h48.764313v48.7607h-48.764313zM780.189272 536.378544h48.760701v48.764313h-48.760701z" fill="#09111F" p-id="6740"></path><path d="M780.189272 487.617843h48.760701v48.760701h-48.760701z" fill="#FEAE32" p-id="6741"></path><path d="M780.189272 438.857143h48.760701v48.7607h-48.760701zM780.189272 146.285714h48.760701v48.760701h-48.760701z" fill="#09111F" p-id="6742"></path><path d="M780.189272 97.525014h48.760701v48.7607h-48.760701z" fill="#FEAE32" p-id="6743"></path><path d="M780.189272 48.760701h48.760701v48.764313h-48.760701zM731.428571 585.142857h48.760701v48.760701h-48.760701z" fill="#09111F" p-id="6744"></path><path d="M731.428571 536.378544h48.760701v48.764313h-48.760701zM731.428571 487.617843h48.760701v48.760701h-48.760701z" fill="#FEAE32" p-id="6745"></path><path d="M731.428571 438.857143h48.760701v48.7607h-48.760701zM731.428571 195.046415h48.760701v48.764313h-48.760701z" fill="#09111F" p-id="6746"></path><path d="M731.428571 146.285714h48.760701v48.760701h-48.760701z" fill="#FEAE32" p-id="6747"></path><path d="M731.428571 97.525014h48.760701v48.7607h-48.760701z" fill="#FEAE32" p-id="6748"></path><path d="M731.428571 48.760701h48.760701v48.764313h-48.760701zM682.664258 633.903558h48.764313v48.7607h-48.764313z" fill="#09111F" p-id="6749"></path><path d="M682.664258 585.142857h48.764313v48.760701h-48.764313zM682.664258 536.378544h48.764313v48.764313h-48.764313zM682.664258 487.617843h48.764313v48.760701h-48.764313z" fill="#FEAE32" p-id="6750"></path><path d="M682.664258 438.857143h48.764313v48.7607h-48.764313zM682.664258 243.810728h48.764313V292.571429h-48.764313z" fill="#09111F" p-id="6751"></path><path d="M682.664258 195.046415h48.764313v48.764313h-48.764313zM682.664258 146.285714h48.764313v48.760701h-48.764313z" fill="#FEAE32" p-id="6752"></path><path d="M682.664258 97.525014h48.764313v48.7607h-48.764313z" fill="#FEAE32" p-id="6753"></path><path d="M682.664258 48.760701h48.764313v48.764313h-48.764313zM633.903558 633.903558h48.7607v48.7607h-48.7607z" fill="#09111F" p-id="6754"></path><path d="M633.903558 585.142857h48.7607v48.760701h-48.7607zM633.903558 536.378544h48.7607v48.764313h-48.7607zM633.903558 487.617843h48.7607v48.760701h-48.7607z" fill="#FEAE32" p-id="6755"></path><path d="M633.903558 438.857143h48.7607v48.7607h-48.7607zM633.903558 292.571429h48.7607v48.7607h-48.7607z" fill="#09111F" p-id="6756"></path><path d="M633.903558 243.810728h48.7607V292.571429h-48.7607zM633.903558 195.046415h48.7607v48.764313h-48.7607zM633.903558 146.285714h48.7607v48.760701h-48.7607z" fill="#FEAE32" p-id="6757"></path><path d="M633.903558 97.525014h48.7607v48.7607h-48.7607z" fill="#FEAE32" p-id="6758"></path><path d="M633.903558 48.760701h48.7607v48.764313h-48.7607zM585.142857 682.664258h48.760701v48.764313H585.142857z" fill="#09111F" p-id="6759"></path><path d="M585.142857 633.903558h48.760701v48.7607H585.142857zM585.142857 585.142857h48.760701v48.760701H585.142857z" fill="#FEAE32" p-id="6760"></path><path d="M585.142857 536.378544h48.760701v48.764313H585.142857z" fill="#FFFFFF" p-id="6761"></path><path d="M585.142857 487.617843h48.760701v48.760701H585.142857z" fill="#FEAE32" p-id="6762"></path><path d="M585.142857 438.857143h48.760701v48.7607H585.142857zM585.142857 341.332129h48.760701v48.764313H585.142857z" fill="#09111F" p-id="6763"></path><path d="M585.142857 292.571429h48.760701v48.7607H585.142857zM585.142857 243.810728h48.760701V292.571429H585.142857zM585.142857 195.046415h48.760701v48.764313H585.142857zM585.142857 146.285714h48.760701v48.760701H585.142857z" fill="#FEAE32" p-id="6764"></path><path d="M585.142857 97.525014h48.760701v48.7607H585.142857z" fill="#FEAE32" p-id="6765"></path><path d="M585.142857 48.760701h48.760701v48.764313H585.142857zM536.378544 731.428571h48.764313v48.760701h-48.764313z" fill="#09111F" p-id="6766"></path><path d="M536.378544 682.664258h48.764313v48.764313h-48.764313zM536.378544 633.903558h48.764313v48.7607h-48.764313zM536.378544 585.142857h48.764313v48.760701h-48.764313zM536.378544 536.378544h48.764313v48.764313h-48.764313zM536.378544 487.617843h48.764313v48.760701h-48.764313zM536.378544 438.857143h48.764313v48.7607h-48.764313z" fill="#FEAE32" p-id="6767"></path><path d="M536.378544 390.096442h48.764313v48.760701h-48.764313z" fill="#09111F" p-id="6768"></path><path d="M536.378544 341.332129h48.764313v48.764313h-48.764313zM536.378544 292.571429h48.764313v48.7607h-48.764313zM536.378544 243.810728h48.764313V292.571429h-48.764313zM536.378544 195.046415h48.764313v48.764313h-48.764313z" fill="#FEAE32" p-id="6769"></path><path d="M536.378544 146.285714h48.764313v48.760701h-48.764313z" fill="#FCDE56" p-id="6770"></path><path d="M536.378544 97.525014h48.764313v48.7607h-48.764313z" fill="#FCDE56" p-id="6771"></path><path d="M536.378544 48.760701h48.764313v48.764313h-48.764313zM487.617843 780.189272h48.760701v48.760701h-48.760701z" fill="#09111F" p-id="6772"></path><path d="M487.617843 731.428571h48.760701v48.760701h-48.760701z" fill="#FFFFFF" p-id="6773"></path><path d="M487.617843 682.664258h48.760701v48.764313h-48.760701z" fill="#FCDE56" p-id="6774"></path><path d="M487.617843 633.903558h48.760701v48.7607h-48.760701zM487.617843 585.142857h48.760701v48.760701h-48.760701zM487.617843 536.378544h48.760701v48.764313h-48.760701z" fill="#FEAE32" p-id="6775"></path><path d="M487.617843 487.617843h48.760701v48.760701h-48.760701z" fill="#FFFFFF" p-id="6776"></path><path d="M487.617843 438.857143h48.760701v48.7607h-48.760701zM487.617843 390.096442h48.760701v48.760701h-48.760701zM487.617843 341.332129h48.760701v48.764313h-48.760701zM487.617843 292.571429h48.760701v48.7607h-48.760701z" fill="#FEAE32" p-id="6777"></path><path d="M487.617843 243.810728h48.760701V292.571429h-48.760701zM487.617843 195.046415h48.760701v48.764313h-48.760701zM487.617843 146.285714h48.760701v48.760701h-48.760701z" fill="#FCDE56" p-id="6778"></path><path d="M487.617843 97.525014h48.760701v48.7607h-48.760701z" fill="#C24831" p-id="6779"></path><path d="M487.617843 48.760701h48.760701v48.764313h-48.760701zM438.857143 828.949973h48.7607v48.764313h-48.7607z" fill="#09111F" p-id="6780"></path><path d="M438.857143 780.189272h48.7607v48.760701h-48.7607z" fill="#FEAE32" p-id="6781"></path><path d="M438.857143 731.428571h48.7607v48.760701h-48.7607z" fill="#FCDE56" p-id="6782"></path><path d="M438.857143 682.664258h48.7607v48.764313h-48.7607z" fill="#C24831" p-id="6783"></path><path d="M438.857143 633.903558h48.7607v48.7607h-48.7607z" fill="#09111F" p-id="6784"></path><path d="M438.857143 585.142857h48.7607v48.760701h-48.7607zM438.857143 536.378544h48.7607v48.764313h-48.7607zM438.857143 487.617843h48.7607v48.760701h-48.7607zM438.857143 438.857143h48.7607v48.7607h-48.7607zM438.857143 390.096442h48.7607v48.760701h-48.7607zM438.857143 341.332129h48.7607v48.764313h-48.7607z" fill="#FEAE32" p-id="6785"></path><path d="M438.857143 292.571429h48.7607v48.7607h-48.7607zM438.857143 243.810728h48.7607V292.571429h-48.7607z" fill="#FCDE56" p-id="6786"></path><path d="M438.857143 195.046415h48.7607v48.764313h-48.7607zM438.857143 146.285714h48.7607v48.760701h-48.7607z" fill="#C24831" p-id="6787"></path><path d="M438.857143 97.525014h48.7607v48.7607h-48.7607z" fill="#C24831" p-id="6788"></path><path d="M438.857143 48.760701h48.7607v48.764313h-48.7607zM390.096442 877.714286h48.760701v48.7607h-48.760701z" fill="#09111F" p-id="6789"></path><path d="M390.096442 828.949973h48.760701v48.764313h-48.760701z" fill="#FEAE32" p-id="6790"></path><path d="M390.096442 780.189272h48.760701v48.760701h-48.760701z" fill="#FCDE56" p-id="6791"></path><path d="M390.096442 731.428571h48.760701v48.760701h-48.760701z" fill="#C24831" p-id="6792"></path><path d="M390.096442 682.664258h48.760701v48.764313h-48.760701zM438.857143 585.142857v48.760701H341.332129V585.142857h97.525014z" fill="#09111F" p-id="6793"></path><path d="M390.096442 536.378544h48.760701v48.764313h-48.760701zM390.096442 487.617843h48.760701v48.760701h-48.760701zM390.096442 438.857143h48.760701v48.7607h-48.760701zM390.096442 390.096442h48.760701v48.760701h-48.760701z" fill="#FEAE32" p-id="6794"></path><path d="M390.096442 341.332129h48.760701v48.764313h-48.760701zM390.096442 292.571429h48.760701v48.7607h-48.760701z" fill="#FCDE56" p-id="6795"></path><path d="M390.096442 243.810728h48.760701V292.571429h-48.760701z" fill="#C24831" p-id="6796"></path><path d="M390.096442 195.046415h48.760701v48.764313h-48.760701zM390.096442 146.285714h48.760701v48.760701h-48.760701z" fill="#FFFFFF" p-id="6797"></path><path d="M390.096442 97.525014h48.760701v48.7607h-48.760701z" fill="#C24831" p-id="6798"></path><path d="M390.096442 48.760701h48.760701v48.764313h-48.760701zM341.332129 926.474986h48.764313v48.760701H341.332129z" fill="#09111F" p-id="6799"></path><path d="M341.332129 877.714286h48.764313v48.7607H341.332129z" fill="#FEAE32" p-id="6800"></path><path d="M341.332129 828.949973h48.764313v48.764313H341.332129z" fill="#FCDE56" p-id="6801"></path><path d="M341.332129 780.189272h48.764313v48.760701H341.332129z" fill="#C24831" p-id="6802"></path><path d="M341.332129 731.428571h48.764313v48.760701H341.332129z" fill="#09111F" p-id="6803"></path><path d="M341.332129 536.378544h48.764313v48.764313H341.332129zM341.332129 487.617843h48.764313v48.760701H341.332129z" fill="#FEAE32" p-id="6804"></path><path d="M341.332129 438.857143h48.764313v48.7607H341.332129zM341.332129 390.096442h48.764313v48.760701H341.332129zM341.332129 341.332129h48.764313v48.764313H341.332129z" fill="#FCDE56" p-id="6805"></path><path d="M341.332129 292.571429h48.764313v48.7607H341.332129zM341.332129 243.810728h48.764313V292.571429H341.332129z" fill="#C24831" p-id="6806"></path><path d="M341.332129 195.046415h48.764313v48.764313H341.332129z" fill="#FFFFFF" p-id="6807"></path><path d="M341.332129 146.285714h48.764313v48.760701H341.332129z" fill="#C24831" p-id="6808"></path><path d="M341.332129 97.525014h48.764313v48.7607H341.332129zM292.571429 926.474986h48.7607v48.760701H292.571429z" fill="#09111F" p-id="6809"></path><path d="M292.571429 877.714286h48.7607v48.7607H292.571429z" fill="#C24831" p-id="6810"></path><path d="M292.571429 828.949973h48.7607v48.764313H292.571429zM292.571429 780.189272h48.7607v48.760701H292.571429zM292.571429 585.142857h48.7607v48.760701H292.571429z" fill="#09111F" p-id="6811"></path><path d="M292.571429 536.378544h48.7607v48.764313H292.571429z" fill="#FEAE32" p-id="6812"></path><path d="M292.571429 487.617843h48.7607v48.760701H292.571429zM292.571429 438.857143h48.7607v48.7607H292.571429z" fill="#FCDE56" p-id="6813"></path><path d="M292.571429 390.096442h48.7607v48.760701H292.571429zM292.571429 341.332129h48.7607v48.764313H292.571429zM292.571429 292.571429h48.7607v48.7607H292.571429zM292.571429 243.810728h48.7607V292.571429H292.571429zM292.571429 195.046415h48.7607v48.764313H292.571429z" fill="#C24831" p-id="6814"></path><path d="M292.571429 146.285714h48.7607v48.760701H292.571429zM243.810728 877.714286H292.571429v48.7607H243.810728zM243.810728 585.142857H292.571429v48.760701H243.810728z" fill="#09111F" p-id="6815"></path><path d="M243.810728 536.378544H292.571429v48.764313H243.810728zM243.810728 487.617843H292.571429v48.760701H243.810728z" fill="#FCDE56" p-id="6816"></path><path d="M243.810728 438.857143H292.571429v48.7607H243.810728zM243.810728 390.096442H292.571429v48.760701H243.810728z" fill="#C24831" p-id="6817"></path><path d="M243.810728 341.332129H292.571429v48.764313H243.810728z" fill="#FCDE56" p-id="6818"></path><path d="M243.810728 292.571429H292.571429v48.7607H243.810728zM243.810728 243.810728H292.571429V292.571429H243.810728z" fill="#C24831" p-id="6819"></path><path d="M243.810728 195.046415H292.571429v48.764313H243.810728zM195.046415 585.142857h48.764313v48.760701H195.046415z" fill="#09111F" p-id="6820"></path><path d="M195.046415 536.378544h48.764313v48.764313H195.046415zM195.046415 487.617843h48.764313v48.760701H195.046415z" fill="#C24831" p-id="6821"></path><path d="M195.046415 438.857143h48.764313v48.7607H195.046415z" fill="#FCDE56" p-id="6822"></path><path d="M195.046415 390.096442h48.764313v48.760701H195.046415zM195.046415 341.332129h48.764313v48.764313H195.046415z" fill="#C24831" p-id="6823"></path><path d="M195.046415 292.571429h48.764313v48.7607H195.046415zM195.046415 243.810728h48.764313V292.571429H195.046415zM146.285714 585.142857h48.760701v48.760701H146.285714z" fill="#09111F" p-id="6824"></path><path d="M146.285714 536.378544h48.760701v48.764313H146.285714zM146.285714 487.617843h48.760701v48.760701H146.285714zM146.285714 438.857143h48.760701v48.7607H146.285714z" fill="#C24831" p-id="6825"></path><path d="M146.285714 390.096442h48.760701v48.760701H146.285714zM146.285714 341.332129h48.760701v48.764313H146.285714zM97.525014 585.142857h48.7607v48.760701H97.525014z" fill="#09111F" p-id="6826"></path><path d="M97.525014 536.378544h48.7607v48.764313H97.525014zM97.525014 487.617843h48.7607v48.760701H97.525014z" fill="#C24831" p-id="6827"></path><path d="M97.525014 438.857143h48.7607v48.7607H97.525014zM48.760701 536.378544h48.764313v48.764313H48.760701zM48.760701 487.617843h48.764313v48.760701H48.760701z" fill="#09111F" p-id="6828"></path></svg>